<?xml version="1.0" encoding="UTF-8" standalone="no"?>
<!-- Created with Inkscape (http://www.inkscape.org/) -->

<svg
   xmlns:dc="http://purl.org/dc/elements/1.1/"
   xmlns:cc="http://creativecommons.org/ns#"
   xmlns:rdf="http://www.w3.org/1999/02/22-rdf-syntax-ns#"
   xmlns:svg="http://www.w3.org/2000/svg"
   xmlns="http://www.w3.org/2000/svg"
   version="1.1"
   width="38.672375"
   height="38.670124"
   id="svg26944"
   viewBox="0 0 38.672375 38.670124">
  <defs
     id="defs26946">
    <clipPath
       id="clipPath10322">
      <path
         d="m 764.85,1303.07 30.938,0 0,-30.94 -30.938,0 0,30.94 z"
         id="path10324" />
    </clipPath>
  </defs>
  <metadata
     id="metadata26949">
    <rdf:RDF>
      <cc:Work
         rdf:about="">
        <dc:format>image/svg+xml</dc:format>
        <dc:type
           rdf:resource="http://purl.org/dc/dcmitype/StillImage" />
        <dc:title></dc:title>
      </cc:Work>
    </rdf:RDF>
  </metadata>
  <g
     transform="translate(367.90758,-258.74138)"
     id="layer1">
    <g
       transform="matrix(1.25,0,0,-1.25,-1323.9702,1887.574)"
       id="g10318">
      <g
         id="g10320" />
      <g
         id="g10326">
        <g
           clip-path="url(#clipPath10322)"
           id="g10328"
           style="opacity:0.89999402">
          <g
             transform="translate(795.7881,1276.8291)"
             id="g10330">
            <path
               d="m 0,0 c 0,-2.597 -2.104,-4.702 -4.7,-4.702 l -21.537,0 c -2.598,0 -4.701,2.105 -4.701,4.702 l 0,21.536 c 0,2.596 2.103,4.701 4.701,4.701 l 21.537,0 c 2.596,0 4.7,-2.105 4.7,-4.701 L 0,0 z"
               id="path10332"
               style="fill:#3a5a98;fill-opacity:1;fill-rule:nonzero;stroke:none" />
          </g>
        </g>
      </g>
    </g>
    <g
       transform="matrix(1.25,0,0,-1.25,-338.24025,281.08226)"
       id="g10334">
      <path
         d="m 0,0 0.5,3.879 -3.843,0 0,2.476 c 0,1.124 0.314,1.889 1.924,1.889 l 2.052,10e-4 0,3.47 c -0.353,0.047 -1.571,0.153 -2.992,0.153 -2.962,0 -4.989,-1.809 -4.989,-5.129 l 0,-2.86 -3.349,0 0,-3.879 3.349,0 0,-9.954 4.005,0 0,9.954 L 0,0 z"
         id="path10336"
         style="fill:#ffeed7;fill-opacity:1;fill-rule:nonzero;stroke:none" />
    </g>
  </g>
</svg>
