<?xml version="1.0" encoding="UTF-8" standalone="no"?>
<!-- Created with Inkscape (http://www.inkscape.org/) -->

<svg
   xmlns:dc="http://purl.org/dc/elements/1.1/"
   xmlns:cc="http://creativecommons.org/ns#"
   xmlns:rdf="http://www.w3.org/1999/02/22-rdf-syntax-ns#"
   xmlns:svg="http://www.w3.org/2000/svg"
   xmlns="http://www.w3.org/2000/svg"
   version="1.1"
   width="38.674999"
   height="38.670124"
   id="svg26944"
   viewBox="0 0 38.674999 38.670124">
  <defs
     id="defs26946">
    <clipPath
       id="clipPath10322">
      <path
         d="m 764.85,1303.07 30.938,0 0,-30.94 -30.938,0 0,30.94 z"
         id="path10324" />
    </clipPath>
    <clipPath
       id="clipPath10342">
      <path
         d="m 798.673,1303.07 30.939,0 0,-30.94 -30.939,0 0,30.94 z"
         id="path10344" />
    </clipPath>
    <clipPath
       id="clipPath10366">
      <path
         d="m 833.947,1303.07 30.941,0 0,-30.94 -30.941,0 0,30.94 z"
         id="path10368" />
    </clipPath>
  </defs>
  <metadata
     id="metadata26949">
    <rdf:RDF>
      <cc:Work
         rdf:about="">
        <dc:format>image/svg+xml</dc:format>
        <dc:type
           rdf:resource="http://purl.org/dc/dcmitype/StillImage" />
        <dc:title></dc:title>
      </cc:Work>
    </rdf:RDF>
  </metadata>
  <g
     transform="translate(382.71687,-249.30298)"
     id="layer1">
    <g
       transform="matrix(1.25,0,0,-1.25,-1425.1515,1878.1356)"
       id="g10362">
      <g
         id="g10364" />
      <g
         id="g10370">
        <g
           clip-path="url(#clipPath10366)"
           id="g10372"
           style="opacity:0.69999701">
          <g
             transform="translate(864.8877,1276.8291)"
             id="g10374">
            <path
               d="m 0,0 c 0,-2.597 -2.105,-4.702 -4.702,-4.702 l -21.536,0 c -2.597,0 -4.702,2.105 -4.702,4.702 l 0,21.536 c 0,2.596 2.105,4.701 4.702,4.701 l 21.536,0 C -2.105,26.237 0,24.132 0,21.536 L 0,0 z"
               id="path10376"
               style="fill:#e54a55;fill-opacity:1;fill-rule:nonzero;stroke:none" />
          </g>
        </g>
      </g>
    </g>
    <g
       transform="matrix(1.25,0,0,-1.25,-365.27855,267.19561)"
       id="g10378">
      <path
         d="m 0,0 c 0.712,0.027 1.305,0.283 1.78,0.768 0.229,0.343 0.376,0.696 0.441,1.058 0.04,0.362 0.06,0.665 0.06,0.912 0,1.067 -0.273,2.143 -0.817,3.226 C 1.206,6.482 0.87,6.907 0.451,7.232 0.025,7.54 -0.465,7.704 -1.019,7.722 -1.752,7.704 -2.36,7.408 -2.847,6.836 -3.257,6.236 -3.452,5.566 -3.435,4.825 -3.435,3.848 -3.148,2.83 -2.576,1.772 -2.298,1.279 -1.942,0.86 -1.503,0.517 -1.064,0.172 -0.562,0 0,0 m 3.771,-7.929 c 0,0.687 -0.224,1.284 -0.669,1.794 -0.476,0.485 -1.217,1.078 -2.224,1.783 -0.175,0.018 -0.375,0.026 -0.608,0.026 -0.137,0.016 -0.491,0 -1.058,-0.053 -0.562,-0.079 -1.134,-0.206 -1.72,-0.383 -0.138,-0.052 -0.33,-0.132 -0.581,-0.237 -0.249,-0.114 -0.503,-0.277 -0.762,-0.488 -0.251,-0.22 -0.461,-0.492 -0.632,-0.819 -0.199,-0.343 -0.297,-0.756 -0.297,-1.241 0,-0.95 0.429,-1.732 1.29,-2.349 0.819,-0.616 1.938,-0.932 3.359,-0.95 1.276,0.018 2.248,0.299 2.92,0.845 0.654,0.537 0.982,1.228 0.982,2.072 M 2.727,7.643 C 2.897,7.537 3.088,7.383 3.3,7.181 3.504,6.97 3.703,6.709 3.897,6.402 4.084,6.111 4.251,5.77 4.396,5.372 4.515,4.978 4.574,4.516 4.574,3.987 4.561,3.02 4.345,2.246 3.933,1.665 3.732,1.383 3.52,1.124 3.292,0.887 3.043,0.649 2.777,0.407 2.495,0.16 2.334,-0.006 2.186,-0.195 2.048,-0.407 c -0.161,-0.22 -0.24,-0.474 -0.24,-0.765 0,-0.283 0.082,-0.515 0.247,-0.699 0.14,-0.176 0.277,-0.332 0.409,-0.463 l 0.918,-0.752 c 0.569,-0.466 1.069,-0.979 1.5,-1.543 0.404,-0.572 0.615,-1.319 0.633,-2.242 0,-1.312 -0.578,-2.472 -1.737,-3.484 -1.199,-1.048 -2.931,-1.588 -5.195,-1.624 -1.896,0.018 -3.309,0.422 -4.245,1.211 -0.941,0.739 -1.413,1.621 -1.413,2.648 0,0.5 0.152,1.058 0.46,1.673 0.298,0.614 0.836,1.154 1.618,1.619 0.875,0.5 1.795,0.834 2.76,1.002 0.954,0.139 1.748,0.219 2.38,0.236 -0.197,0.257 -0.372,0.53 -0.524,0.822 -0.177,0.284 -0.265,0.625 -0.265,1.022 0,0.238 0.033,0.439 0.099,0.597 0.062,0.169 0.117,0.322 0.166,0.464 -0.306,-0.036 -0.598,-0.052 -0.868,-0.052 -1.44,0.016 -2.538,0.471 -3.293,1.358 -0.791,0.828 -1.187,1.791 -1.187,2.891 0,1.329 0.561,2.532 1.68,3.615 0.77,0.633 1.569,1.045 2.398,1.24 0.819,0.166 1.589,0.251 2.305,0.251 l 5.411,0 -1.67,-0.975 -1.668,0 z"
         id="path10380"
         style="fill:#ffeed7;fill-opacity:1;fill-rule:nonzero;stroke:none" />
    </g>
    <g
       transform="matrix(1.25,0,0,-1.25,-348.53526,260.11681)"
       id="g10382">
      <path
         d="m 0,0 -2.84,0 0,2.839 -1.374,0 0,-2.839 -2.839,0 0,-1.375 2.839,0 0,-2.838 1.374,0 0,2.838 2.84,0 L 0,0 z"
         id="path10384"
         style="fill:#ffeed7;fill-opacity:1;fill-rule:nonzero;stroke:none" />
    </g>
  </g>
</svg>
