<?xml version="1.0" encoding="UTF-8" standalone="no"?>
<!-- Created with Inkscape (http://www.inkscape.org/) -->

<svg
   xmlns:dc="http://purl.org/dc/elements/1.1/"
   xmlns:cc="http://creativecommons.org/ns#"
   xmlns:rdf="http://www.w3.org/1999/02/22-rdf-syntax-ns#"
   xmlns:svg="http://www.w3.org/2000/svg"
   xmlns="http://www.w3.org/2000/svg"
   version="1.1"
   width="38.67625"
   height="38.670124"
   id="svg26944"
   viewBox="0 0 38.67625 38.670124">
  <defs
     id="defs26946">
    <clipPath
       id="clipPath10322">
      <path
         d="m 764.85,1303.07 30.938,0 0,-30.94 -30.938,0 0,30.94 z"
         id="path10324" />
    </clipPath>
    <clipPath
       id="clipPath10342">
      <path
         d="m 798.673,1303.07 30.939,0 0,-30.94 -30.939,0 0,30.94 z"
         id="path10344" />
    </clipPath>
    <clipPath
       id="clipPath10366">
      <path
         d="m 833.947,1303.07 30.941,0 0,-30.94 -30.941,0 0,30.94 z"
         id="path10368" />
    </clipPath>
    <clipPath
       id="clipPath10290">
      <path
         d="m 869.018,1303.07 30.941,0 0,-30.94 -30.941,0 0,30.94 z"
         id="path10292" />
    </clipPath>
  </defs>
  <metadata
     id="metadata26949">
    <rdf:RDF>
      <cc:Work
         rdf:about="">
        <dc:format>image/svg+xml</dc:format>
        <dc:type
           rdf:resource="http://purl.org/dc/dcmitype/StillImage" />
        <dc:title></dc:title>
      </cc:Work>
    </rdf:RDF>
  </metadata>
  <g
     transform="translate(377.6851,-252.98068)"
     id="layer1">
    <g
       transform="matrix(1.25,0,0,-1.25,-1463.9576,1881.8133)"
       id="g10286">
      <g
         id="g10288" />
      <g
         id="g10294">
        <g
           clip-path="url(#clipPath10290)"
           id="g10296"
           style="opacity:0.60000598">
          <g
             transform="translate(899.959,1276.8291)"
             id="g10298">
            <path
               d="m 0,0 c 0,-2.597 -2.107,-4.702 -4.702,-4.702 l -21.538,0 c -2.596,0 -4.701,2.105 -4.701,4.702 l 0,21.536 c 0,2.596 2.105,4.701 4.701,4.701 l 21.538,0 C -2.107,26.237 0,24.132 0,21.536 L 0,0 z"
               id="path10300"
               style="fill:#840d16;fill-opacity:1;fill-rule:nonzero;stroke:none" />
          </g>
        </g>
      </g>
    </g>
    <g
       transform="matrix(1.25,0,0,-1.25,-358.78413,259.6844)"
       id="g10386">
      <path
         d="m 0,0 c -5.581,0 -10.107,-4.524 -10.107,-10.107 0,-4.137 2.488,-7.693 6.05,-9.256 -0.029,0.707 -0.005,1.553 0.175,2.32 0.194,0.822 1.301,5.509 1.301,5.509 0,0 -0.323,0.644 -0.323,1.597 0,1.498 0.87,2.616 1.951,2.616 0.918,0 1.362,-0.69 1.362,-1.517 0,-0.923 -0.589,-2.305 -0.892,-3.585 -0.253,-1.072 0.538,-1.947 1.594,-1.947 1.915,0 3.203,2.459 3.203,5.373 0,2.214 -1.491,3.872 -4.203,3.872 -3.065,0 -4.975,-2.285 -4.975,-4.838 0,-0.882 0.26,-1.503 0.666,-1.983 0.187,-0.221 0.214,-0.31 0.145,-0.563 -0.048,-0.187 -0.159,-0.634 -0.206,-0.811 -0.068,-0.257 -0.274,-0.348 -0.505,-0.253 -1.413,0.576 -2.072,2.122 -2.072,3.86 0,2.871 2.422,6.314 7.225,6.314 3.857,0 6.398,-2.792 6.398,-5.79 0,-3.965 -2.207,-6.926 -5.454,-6.926 -1.092,0 -2.118,0.591 -2.468,1.26 0,0 -0.588,-2.329 -0.711,-2.779 -0.215,-0.778 -0.633,-1.557 -1.018,-2.165 0.907,-0.267 1.869,-0.414 2.864,-0.414 5.58,0 10.105,4.525 10.105,10.106 C 10.105,-4.524 5.58,0 0,0"
         id="path10388"
         style="fill:#ffeed7;fill-opacity:1;fill-rule:nonzero;stroke:none" />
    </g>
  </g>
</svg>
