<?xml version="1.0" encoding="UTF-8" standalone="no"?>
<!-- Created with Inkscape (http://www.inkscape.org/) -->

<svg
   xmlns:dc="http://purl.org/dc/elements/1.1/"
   xmlns:cc="http://creativecommons.org/ns#"
   xmlns:rdf="http://www.w3.org/1999/02/22-rdf-syntax-ns#"
   xmlns:svg="http://www.w3.org/2000/svg"
   xmlns="http://www.w3.org/2000/svg"
   version="1.1"
   width="38.673374"
   height="38.670124"
   id="svg26944"
   viewBox="0 0 38.673374 38.670124">
  <defs
     id="defs26946">
    <clipPath
       id="clipPath10322">
      <path
         d="m 764.85,1303.07 30.938,0 0,-30.94 -30.938,0 0,30.94 z"
         id="path10324" />
    </clipPath>
    <clipPath
       id="clipPath10342">
      <path
         d="m 798.673,1303.07 30.939,0 0,-30.94 -30.939,0 0,30.94 z"
         id="path10344" />
    </clipPath>
  </defs>
  <metadata
     id="metadata26949">
    <rdf:RDF>
      <cc:Work
         rdf:about="">
        <dc:format>image/svg+xml</dc:format>
        <dc:type
           rdf:resource="http://purl.org/dc/dcmitype/StillImage" />
        <dc:title></dc:title>
      </cc:Work>
    </rdf:RDF>
  </metadata>
  <g
     transform="translate(359.46508,-259.51488)"
     id="layer1">
    <g
       transform="matrix(1.25,0,0,-1.25,-1357.8067,1888.3475)"
       id="g10338">
      <g
         id="g10340" />
      <g
         id="g10346">
        <g
           clip-path="url(#clipPath10342)"
           id="g10348"
           style="opacity:0.69999701">
          <g
             transform="translate(829.6123,1276.8291)"
             id="g10350">
            <path
               d="m 0,0 c 0,-2.597 -2.105,-4.702 -4.702,-4.702 l -21.535,0 c -2.598,0 -4.702,2.105 -4.702,4.702 l 0,21.536 c 0,2.596 2.104,4.701 4.702,4.701 l 21.535,0 C -2.105,26.237 0,24.132 0,21.536 L 0,0 z"
               id="path10352"
               style="fill:#60caef;fill-opacity:1;fill-rule:nonzero;stroke:none" />
          </g>
        </g>
      </g>
    </g>
    <g
       transform="matrix(1.25,0,0,-1.25,-326.31261,271.77281)"
       id="g10354">
      <path
         d="m 0,0 c -0.728,-0.322 -1.51,-0.541 -2.328,-0.639 0.836,0.502 1.48,1.296 1.782,2.243 C -1.328,1.14 -2.193,0.802 -3.119,0.62 -3.859,1.408 -4.913,1.9 -6.078,1.9 c -2.238,0 -4.053,-1.815 -4.053,-4.053 0,-0.319 0.035,-0.627 0.104,-0.923 -3.369,0.168 -6.355,1.781 -8.354,4.235 -0.349,-0.599 -0.549,-1.296 -0.549,-2.039 0,-1.405 0.716,-2.647 1.801,-3.373 -0.662,0.021 -1.288,0.204 -1.833,0.507 l 0,-0.051 c 0,-1.964 1.397,-3.602 3.249,-3.974 -0.339,-0.092 -0.699,-0.144 -1.066,-0.144 -0.261,0 -0.516,0.026 -0.764,0.074 0.516,-1.61 2.013,-2.782 3.786,-2.815 -1.386,-1.087 -3.133,-1.736 -5.033,-1.736 -0.327,0 -0.649,0.02 -0.967,0.057 1.794,-1.149 3.925,-1.82 6.214,-1.82 7.456,0 11.532,6.176 11.532,11.532 0,0.175 -0.004,0.35 -0.01,0.525 C -1.23,-1.527 -0.545,-0.813 0,0"
         id="path10356"
         style="fill:#ffeed7;fill-opacity:1;fill-rule:nonzero;stroke:none" />
    </g>
  </g>
</svg>
