<?xml version="1.0" encoding="UTF-8" standalone="no"?>
<!-- Created with Inkscape (http://www.inkscape.org/) -->

<svg
   xmlns:dc="http://purl.org/dc/elements/1.1/"
   xmlns:cc="http://creativecommons.org/ns#"
   xmlns:rdf="http://www.w3.org/1999/02/22-rdf-syntax-ns#"
   xmlns:svg="http://www.w3.org/2000/svg"
   xmlns="http://www.w3.org/2000/svg"
   version="1.1"
   width="45"
   height="45"
   id="svg16797">
  <defs
     id="defs16799">
    <clipPath
       id="clipPath8794">
      <path
         d="m 178.688,3801.59 4.182,0 0,-9.04 -4.182,0 0,9.04 z"
         id="path8796" />
    </clipPath>
    <clipPath
       id="clipPath8778">
      <path
         d="m 172.416,3800.94 7.6,0 0,-9.44 -7.6,0 0,9.44 z"
         id="path8780" />
    </clipPath>
  </defs>
  <metadata
     id="metadata16802">
    <rdf:RDF>
      <cc:Work
         rdf:about="">
        <dc:format>image/svg+xml</dc:format>
        <dc:type
           rdf:resource="http://purl.org/dc/dcmitype/StillImage" />
        <dc:title></dc:title>
      </cc:Work>
    </rdf:RDF>
  </metadata>
  <g
     transform="translate(-380.35714,-221.29075)"
     id="layer1">
    <g
       transform="matrix(1.25,0,0,-1.25,409.12914,230.4469)"
       id="g8754">
      <path
         d="m 0,0 6.398,-1.582 0,-8.936 L 1.176,-9.115 0,0 z"
         id="path8756"
         style="fill:#843c85;fill-opacity:1;fill-rule:nonzero;stroke:none" />
    </g>
    <g
       transform="matrix(1.25,0,0,-1.25,388.37714,234.3007)"
       id="g8758">
      <path
         d="M 0,0 16.941,3.503 17.317,-5.809 0.089,-10.509 0,0 z"
         id="path8760"
         style="fill:#9a9a9b;fill-opacity:1;fill-rule:nonzero;stroke:none" />
    </g>
    <g
       transform="matrix(1.25,0,0,-1.25,388.37714,234.3007)"
       id="g8762">
      <path
         d="M 0,0 0,-14.154 8.847,-17.8 8.855,-11.938 2,-10.008 2,-0.286 0,0 z"
         id="path8764"
         style="fill:#c8cacb;fill-opacity:1;fill-rule:nonzero;stroke:none" />
    </g>
    <g
       transform="matrix(1.25,0,0,-1.25,399.13764,249.2238)"
       id="g8766">
      <path
         d="m 0,0 15.351,4.271 0,-4.932 -15.423,-5.2 L 0,0 z"
         id="path8768"
         style="fill:#dadee0;fill-opacity:1;fill-rule:nonzero;stroke:none" />
    </g>
    <g
       transform="matrix(1.25,0,0,-1.25,391.01264,246.8104)"
       id="g8770">
      <path
         d="M 0,0 15.209,4.199 22.143,2.341 6.792,-1.931 0,0 z"
         id="path8772"
         style="fill:#c8cacb;fill-opacity:1;fill-rule:nonzero;stroke:none" />
    </g>
    <g
       transform="matrix(1.25,0,0,-1.25,182.12714,4985.6813)"
       id="g8774">
      <g
         id="g8776" />
      <g
         id="g8782">
        <g
           clip-path="url(#clipPath8778)"
           id="g8784">
          <g
             transform="translate(172.416,3800.9434)"
             id="g8786">
            <path
               d="M 0,0 C 0.096,-0.023 0.201,-0.174 0.27,-0.236 1.861,-1.693 3.313,-3.333 4.806,-4.889 5.545,-5.659 6.274,-6.44 7.021,-7.203 7.481,-7.674 7.898,-7.941 7.312,-8.538 6.874,-8.986 6.152,-9.215 5.553,-9.336 4.855,-9.479 4.627,-9.565 4.307,-9.021 3.345,-7.393 2.644,-5.537 1.828,-3.829 L 0,0 z"
               id="path8788"
               style="fill:#fffa5c;fill-opacity:1;fill-rule:nonzero;stroke:none" />
          </g>
        </g>
      </g>
    </g>
    <g
       transform="matrix(1.25,0,0,-1.25,182.12714,4985.6813)"
       id="g8790">
      <g
         id="g8792" />
      <g
         id="g8798">
        <g
           clip-path="url(#clipPath8794)"
           id="g8800">
          <g
             transform="translate(182.8174,3801.5869)"
             id="g8802">
            <path
               d="M 0,0 C -0.722,-1.474 -1.444,-2.946 -2.167,-4.419 -2.631,-5.366 -3.095,-6.312 -3.559,-7.26 -3.676,-7.499 -4.14,-8.126 -4.13,-8.345 c 0.042,-0.891 2.236,-0.733 2.743,-0.566 1.111,0.365 0.785,1.697 0.868,2.63 0.178,2.022 0.381,4.046 0.572,6.067"
               id="path8804"
               style="fill:#fffa5c;fill-opacity:1;fill-rule:nonzero;stroke:none" />
          </g>
        </g>
      </g>
    </g>
    <g
       transform="matrix(1.25,0,0,-1.25,396.24089,236.4126)"
       id="g8806">
      <path
         d="M 0,0 C 0,0 4.607,0.938 4.61,0.938 4.569,0.931 4.299,-0.798 4.249,-0.981 4.019,-1.816 3.572,-2.569 2.994,-3.21 2.376,-3.894 1.465,-4.602 0.75,-5.137 c 0,0 1.426,-1.143 1.752,-1.573 0.785,-1.037 1.072,-1.859 1.072,-1.859 L 0.106,-9.605 0,0 z"
         id="path8808"
         style="fill:#9a499b;fill-opacity:1;fill-rule:nonzero;stroke:none" />
    </g>
    <g
       transform="matrix(1.25,0,0,-1.25,411.84389,233.5634)"
       id="g8810">
      <path
         d="m 0,0 4.227,0.911 0,-8.792 -3.655,-0.93 c 0,0 -0.255,2.538 1.174,4.039 1.431,1.501 0.897,0.714 0.897,0.714 0,0 -2.108,1.073 -2.643,4.058"
         id="path8812"
         style="fill:#9a499b;fill-opacity:1;fill-rule:nonzero;stroke:none" />
    </g>
    <g
       transform="matrix(1.25,0,0,-1.25,388.37714,234.3007)"
       id="g8814">
      <path
         d="M 0,0 C 0,0 16.835,3.467 16.941,3.503 17.05,3.538 23.125,1.93 23.125,1.93 23.125,1.93 6.469,-1.716 6.361,-1.716 6.255,-1.716 0,0 0,0"
         id="path8816"
         style="fill:#da17e0;fill-opacity:1;fill-rule:nonzero;stroke:none" />
    </g>
    <g
       transform="matrix(1.25,0,0,-1.25,396.32876,236.3783)"
       id="g8818">
      <path
         d="m 0,0 16.639,3.618 0,-1.097 c 0,-0.055 -0.659,-0.235 -0.76,-0.25 C 15.594,2.229 15.225,2.247 15.068,2.538 15.234,2.229 14.571,1.995 14.39,1.925 14.234,1.865 14.099,1.796 13.929,1.806 13.849,1.811 13.297,1.996 13.354,2.138 13.189,1.731 12.782,1.449 12.366,1.348 12.161,1.298 11.416,1.192 11.375,1.521 11.447,0.948 10.111,0.786 9.854,1.204 9.525,0.498 8.642,0.433 8.032,0.748 7.729,0.386 7.584,0.189 7.109,0.16 6.986,0.152 6.081,0.087 6.127,0.373 6.059,-0.065 5.388,-0.37 5.002,-0.402 4.704,-0.427 4.146,-0.505 3.984,-0.219 3.683,-0.96 2.568,-1.089 1.964,-0.695 1.967,-0.674 1.967,-0.674 1.968,-0.694 1.867,-0.88 1.66,-1.054 1.486,-1.171 1.285,-1.306 1.055,-1.397 0.814,-1.417 0.612,-1.435 0.168,-1.409 0.061,-1.202 -0.053,-0.981 -0.004,-0.255 0,0"
         id="path8820"
         style="fill:#de5ae5;fill-opacity:1;fill-rule:nonzero;stroke:none" />
    </g>
    <g
       transform="matrix(1.25,0,0,-1.25,388.37714,234.3007)"
       id="g8822">
      <path
         d="M 0,0 6.361,-1.716 6.397,-11.295 2.108,-10.008 0,0 z"
         id="path8824"
         style="fill:#843c85;fill-opacity:1;fill-rule:nonzero;stroke:none" />
    </g>
  </g>
</svg>
