<?xml version="1.0" encoding="UTF-8" standalone="no"?>
<!-- Created with Inkscape (http://www.inkscape.org/) -->

<svg
   xmlns:dc="http://purl.org/dc/elements/1.1/"
   xmlns:cc="http://creativecommons.org/ns#"
   xmlns:rdf="http://www.w3.org/1999/02/22-rdf-syntax-ns#"
   xmlns:svg="http://www.w3.org/2000/svg"
   xmlns="http://www.w3.org/2000/svg"
   version="1.1"
   width="45"
   height="45"
   id="svg16797">
  <defs
     id="defs16799">
    <clipPath
       id="clipPath8794">
      <path
         d="m 178.688,3801.59 4.182,0 0,-9.04 -4.182,0 0,9.04 z"
         id="path8796" />
    </clipPath>
    <clipPath
       id="clipPath8778">
      <path
         d="m 172.416,3800.94 7.6,0 0,-9.44 -7.6,0 0,9.44 z"
         id="path8780" />
    </clipPath>
  </defs>
  <metadata
     id="metadata16802">
    <rdf:RDF>
      <cc:Work
         rdf:about="">
        <dc:format>image/svg+xml</dc:format>
        <dc:type
           rdf:resource="http://purl.org/dc/dcmitype/StillImage" />
        <dc:title></dc:title>
      </cc:Work>
    </rdf:RDF>
  </metadata>
  <g
     transform="translate(-380.35714,-221.29075)"
     id="layer1">
    <g
       transform="matrix(1.25,0,0,-1.25,399.01845,258.95009)"
       id="g9210">
      <path
         d="m 0,0 c 0,0 -0.037,0.377 -0.1,1.027 -0.421,4.327 -1.966,20.911 -1.143,22.068 0.943,1.328 0.856,-0.012 1.056,-1.757 0.199,-1.74 1.308,-21.21 1.308,-21.21 L 0.66,0.077 0,0 z"
         id="path9212"
         style="fill:#461100;fill-opacity:1;fill-rule:nonzero;stroke:none" />
    </g>
    <g
       transform="matrix(1.25,0,0,-1.25,401.9212,255.06839)"
       id="g9214">
      <path
         d="m 0,0 c 1.586,0.354 -1.381,-2.914 -1.512,-3.626 -1.057,0.575 -3.399,1.853 -3.485,2.635 -0.091,0.782 2.7,-0.692 3.274,-1.508 C -1.449,-1.828 -0.365,-0.082 0,0"
         id="path9216"
         style="fill:#461100;fill-opacity:1;fill-rule:nonzero;stroke:none" />
    </g>
    <g
       transform="matrix(1.25,0,0,-1.25,398.48133,231.21939)"
       id="g9218">
      <path
         d="M 0,0 C 0,0 10.014,-1.291 11.82,-1.932 9.211,-4.371 0.958,-10.027 0.139,-9.713 0.158,-6.689 0,0 0,0"
         id="path9220"
         style="fill:#ffc724;fill-opacity:1;fill-rule:nonzero;stroke:none" />
    </g>
  </g>
</svg>
