<?xml version="1.0" encoding="UTF-8" standalone="no"?>
<!-- Created with Inkscape (http://www.inkscape.org/) -->

<svg
   xmlns:dc="http://purl.org/dc/elements/1.1/"
   xmlns:cc="http://creativecommons.org/ns#"
   xmlns:rdf="http://www.w3.org/1999/02/22-rdf-syntax-ns#"
   xmlns:svg="http://www.w3.org/2000/svg"
   xmlns="http://www.w3.org/2000/svg"
   version="1.1"
   width="45"
   height="45"
   id="svg16797">
  <defs
     id="defs16799">
    <clipPath
       id="clipPath8794">
      <path
         d="m 178.688,3801.59 4.182,0 0,-9.04 -4.182,0 0,9.04 z"
         id="path8796" />
    </clipPath>
    <clipPath
       id="clipPath8778">
      <path
         d="m 172.416,3800.94 7.6,0 0,-9.44 -7.6,0 0,9.44 z"
         id="path8780" />
    </clipPath>
  </defs>
  <metadata
     id="metadata16802">
    <rdf:RDF>
      <cc:Work
         rdf:about="">
        <dc:format>image/svg+xml</dc:format>
        <dc:type
           rdf:resource="http://purl.org/dc/dcmitype/StillImage" />
        <dc:title></dc:title>
      </cc:Work>
    </rdf:RDF>
  </metadata>
  <g
     transform="translate(-380.35714,-221.29075)"
     id="layer1">
    <g
       transform="matrix(1.25,0,0,-1.25,413.15849,241.83143)"
       id="g8830">
      <path
         d="m 0,0 -2.581,1.285 c -0.884,0.442 -1.727,1.465 -2.11,2.477 l -0.352,1.741 -0.711,4.801 c -0.08,0.552 -0.242,0.855 -0.436,0.925 l -0.013,0.06 -0.08,-0.042 c -0.094,-0.002 -0.194,-0.048 -0.299,-0.15 L -7.715,10.515 -7.399,9.494 -8.758,6.422 C -9.111,5.618 -9.918,5.084 -10.773,4.981 l -2.444,0.543 -0.985,0.311 c -0.618,0.196 -1.009,0.132 -1.146,-0.119 l -1.175,-0.546 1.459,-0.523 2.605,-3.881 c 0.681,-1.01 0.985,-2.799 0.678,-3.978 l -1.274,-4.896 c -0.308,-1.178 0.264,-1.581 1.274,-0.901 l 2.162,1.466 c 1.011,0.681 2.328,0.377 2.933,-0.68 l 1.238,-2.157 1.088,-4.317 1.283,0.695 c 0.18,0.029 0.268,0.359 0.216,0.991 0,0 -0.711,8.406 -0.682,8.794 C -3.513,-3.827 0.016,-2 0.016,-2 1.097,-1.441 1.088,-0.543 0,0"
         id="path8832"
         style="fill:#8322b3;fill-opacity:1;fill-rule:nonzero;stroke:none" />
    </g>
    <g
       transform="matrix(1.25,0,0,-1.25,396.80349,236.33103)"
       id="g8834">
      <path
         d="m 0,0 c 1.158,-0.365 2.51,0.244 3,1.358 l 1.785,4.044 c 0.49,1.115 1.039,1.041 1.218,-0.161 l 0.866,-5.845 c 0.18,-1.206 1.217,-2.633 2.305,-3.173 l 2.583,-1.287 c 1.088,-0.541 1.096,-1.442 0.015,-2.001 0,0 -3.529,-1.826 -3.559,-2.215 -0.029,-0.388 0.682,-8.795 0.682,-8.795 0.103,-1.212 -0.309,-1.34 -0.915,-0.284 l -2.909,5.073 c -0.604,1.055 -1.924,1.361 -2.93,0.68 l -2.165,-1.467 c -1.007,-0.682 -1.581,-0.279 -1.275,0.902 l 1.275,4.896 c 0.305,1.177 0.002,2.965 -0.677,3.976 l -2.619,3.901 c -0.678,1.009 -0.284,1.537 0.875,1.169 L 0,0 z"
         id="path8836"
         style="fill:#ad57b3;fill-opacity:1;fill-rule:nonzero;stroke:none" />
    </g>
  </g>
</svg>
