<?xml version="1.0" encoding="UTF-8" standalone="no"?>
<!-- Created with Inkscape (http://www.inkscape.org/) -->

<svg
   xmlns:dc="http://purl.org/dc/elements/1.1/"
   xmlns:cc="http://creativecommons.org/ns#"
   xmlns:rdf="http://www.w3.org/1999/02/22-rdf-syntax-ns#"
   xmlns:svg="http://www.w3.org/2000/svg"
   xmlns="http://www.w3.org/2000/svg"
   version="1.1"
   width="45"
   height="45"
   id="svg16797">
  <defs
     id="defs16799">
    <clipPath
       id="clipPath8794">
      <path
         d="m 178.688,3801.59 4.182,0 0,-9.04 -4.182,0 0,9.04 z"
         id="path8796" />
    </clipPath>
    <clipPath
       id="clipPath8778">
      <path
         d="m 172.416,3800.94 7.6,0 0,-9.44 -7.6,0 0,9.44 z"
         id="path8780" />
    </clipPath>
  </defs>
  <metadata
     id="metadata16802">
    <rdf:RDF>
      <cc:Work
         rdf:about="">
        <dc:format>image/svg+xml</dc:format>
        <dc:type
           rdf:resource="http://purl.org/dc/dcmitype/StillImage" />
        <dc:title></dc:title>
      </cc:Work>
    </rdf:RDF>
  </metadata>
  <g
     transform="translate(-380.35714,-221.29075)"
     id="layer1">
    <g
       transform="matrix(1.25,0,0,-1.25,391.59813,250.81461)"
       id="g8842">
      <path
         d="m 0,0 c -0.184,-1.416 -1.113,-2.463 -2.067,-2.336 -0.958,0.124 -1.583,1.373 -1.398,2.791 0.186,1.416 1.11,2.464 2.068,2.34 C -0.437,2.669 0.187,1.418 0,0"
         id="path8844"
         style="fill:#231f20;fill-opacity:1;fill-rule:nonzero;stroke:none" />
    </g>
    <g
       transform="matrix(1.25,0,0,-1.25,389.62426,247.32081)"
       id="g8846">
      <path
         d="M 0,0 0.783,-0.049 0.386,-5.22 -0.454,-5.151 0,0 z"
         id="path8848"
         style="fill:#231f20;fill-opacity:1;fill-rule:nonzero;stroke:none" />
    </g>
    <g
       transform="matrix(1.25,0,0,-1.25,392.37438,250.86331)"
       id="g8850">
      <path
         d="m 0,0 c -0.187,-1.418 -1.062,-2.472 -1.951,-2.354 -0.893,0.117 -1.463,1.357 -1.278,2.776 0.186,1.416 1.057,2.469 1.948,2.353 C -0.389,2.66 0.184,1.417 0,0"
         id="path8852"
         style="fill:#383334;fill-opacity:1;fill-rule:nonzero;stroke:none" />
    </g>
    <g
       transform="matrix(1.25,0,0,-1.25,391.37713,250.80111)"
       id="g8854">
      <path
         d="m 0,0 c -0.107,-0.812 -0.607,-1.414 -1.113,-1.347 -0.509,0.067 -0.836,0.776 -0.731,1.586 0.106,0.81 0.604,1.412 1.114,1.345 C -0.221,1.519 0.105,0.808 0,0"
         id="path8856"
         style="fill:#5f5758;fill-opacity:1;fill-rule:nonzero;stroke:none" />
    </g>
    <g
       transform="matrix(1.25,0,0,-1.25,391.04138,252.28421)"
       id="g8858">
      <path
         d="m 0,0 c 0,-0.524 -0.127,-0.949 -0.281,-0.949 -0.156,0 -0.281,0.425 -0.281,0.949 0,0.524 0.125,0.949 0.281,0.949 C -0.127,0.949 0,0.524 0,0"
         id="path8860"
         style="fill:#f4763d;fill-opacity:1;fill-rule:nonzero;stroke:none" />
    </g>
    <g
       transform="matrix(1.25,0,0,-1.25,396.45888,243.27911)"
       id="g8862">
      <path
         d="m 0,0 0,-10.534 19.21,8.262 0,9.397 L 0,0 z"
         id="path8864"
         style="fill:#f4763d;fill-opacity:1;fill-rule:nonzero;stroke:none" />
    </g>
    <g
       transform="matrix(1.25,0,0,-1.25,388.23988,238.89071)"
       id="g8866">
      <path
         d="M 0,0 18.9,6.765 26.284,3.614 6.817,-3.667 0,0 z"
         id="path8868"
         style="fill:#f48b62;fill-opacity:1;fill-rule:nonzero;stroke:none" />
    </g>
    <g
       transform="matrix(1.25,0,0,-1.25,395.85226,237.85561)"
       id="g8870">
      <path
         d="m 0,0 1.889,0.734 0.56,-0.331 -1.162,-0.451 1.131,-0.667 0.997,0.388 0.564,-0.332 -1,-0.388 L 4.671,-2.045 3.943,-2.327 0,0 z"
         id="path8872"
         style="fill:#fbb043;fill-opacity:1;fill-rule:nonzero;stroke:none" />
    </g>
    <g
       transform="matrix(1.25,0,0,-1.25,401.41988,236.62871)"
       id="g8874">
      <path
         d="M 0,0 C -0.177,0.104 -0.371,0.116 -0.585,0.034 L -0.588,0.033 c -0.21,-0.083 -0.225,-0.176 -0.048,-0.28 l 2.412,-1.424 c 0.18,-0.104 0.372,-0.115 0.583,-0.035 0.214,0.084 0.232,0.176 0.052,0.282 L 0,0 z M 3.14,-1.142 C 3.69,-1.467 3.62,-1.766 2.923,-2.038 2.228,-2.308 1.603,-2.28 1.046,-1.954 l -2.408,1.424 c -0.554,0.326 -0.482,0.623 0.216,0.893 0.699,0.273 1.323,0.244 1.875,-0.079 L 3.14,-1.142 z"
         id="path8876"
         style="fill:#fbb043;fill-opacity:1;fill-rule:nonzero;stroke:none" />
    </g>
    <g
       transform="matrix(1.25,0,0,-1.25,404.74263,235.33971)"
       id="g8878">
      <path
         d="M 0,0 C -0.179,0.104 -0.372,0.117 -0.585,0.036 L -0.589,0.034 c -0.209,-0.082 -0.226,-0.176 -0.047,-0.279 l 2.412,-1.424 c 0.177,-0.106 0.373,-0.117 0.582,-0.035 0.214,0.082 0.231,0.176 0.051,0.281 L 0,0 z M 3.14,-1.14 C 3.689,-1.466 3.617,-1.764 2.923,-2.036 2.225,-2.308 1.603,-2.28 1.049,-1.953 l -2.413,1.425 c -0.552,0.325 -0.479,0.624 0.216,0.892 0.698,0.274 1.323,0.246 1.876,-0.08 L 3.14,-1.14 z"
         id="path8880"
         style="fill:#fbb043;fill-opacity:1;fill-rule:nonzero;stroke:none" />
    </g>
    <g
       transform="matrix(1.25,0,0,-1.25,407.07664,234.17991)"
       id="g8882">
      <path
         d="m 0,0 2.823,-1.665 0.317,0.122 c 0.213,0.082 0.227,0.177 0.05,0.281 L 0.903,0.087 C 0.726,0.193 0.53,0.206 0.319,0.124 L 0,0 z m -1.286,0.049 1.118,0.435 C 0.481,0.733 1.083,0.696 1.636,0.37 L 3.919,-0.978 C 4.468,-1.304 4.405,-1.599 3.73,-1.862 L 2.655,-2.28 -1.286,0.049 z"
         id="path8884"
         style="fill:#fbb043;fill-opacity:1;fill-rule:nonzero;stroke:none" />
    </g>
    <g
       transform="matrix(1.25,0,0,-1.25,403.21676,253.91021)"
       id="g8886">
      <path
         d="m 0,0 c -0.184,-1.417 -1.111,-2.465 -2.068,-2.339 -0.958,0.126 -1.584,1.376 -1.397,2.793 0.186,1.416 1.11,2.464 2.069,2.337 C -0.439,2.666 0.186,1.417 0,0"
         id="path8888"
         style="fill:#231f20;fill-opacity:1;fill-rule:nonzero;stroke:none" />
    </g>
    <g
       transform="matrix(1.25,0,0,-1.25,401.24289,250.42021)"
       id="g8890">
      <path
         d="M 0,0 0.784,-0.048 0.386,-5.218 -0.456,-5.15 0,0 z"
         id="path8892"
         style="fill:#231f20;fill-opacity:1;fill-rule:nonzero;stroke:none" />
    </g>
    <g
       transform="matrix(1.25,0,0,-1.25,403.99313,253.96271)"
       id="g8894">
      <path
         d="m 0,0 c -0.188,-1.417 -1.062,-2.47 -1.952,-2.354 -0.89,0.116 -1.462,1.358 -1.277,2.778 0.186,1.415 1.059,2.469 1.948,2.351 C -0.389,2.659 0.183,1.418 0,0"
         id="path8896"
         style="fill:#383334;fill-opacity:1;fill-rule:nonzero;stroke:none" />
    </g>
    <g
       transform="matrix(1.25,0,0,-1.25,402.99576,253.90171)"
       id="g8898">
      <path
         d="M 0,0 C -0.105,-0.811 -0.607,-1.413 -1.113,-1.345 -1.622,-1.279 -1.949,-0.569 -1.844,0.241 -1.738,1.05 -1.24,1.653 -0.73,1.586 -0.219,1.52 0.105,0.809 0,0"
         id="path8900"
         style="fill:#5f5758;fill-opacity:1;fill-rule:nonzero;stroke:none" />
    </g>
    <g
       transform="matrix(1.25,0,0,-1.25,419.48376,246.93991)"
       id="g8902">
      <path
         d="m 0,0 c -0.186,-1.418 -1.113,-2.463 -2.068,-2.338 -0.957,0.126 -1.585,1.374 -1.397,2.791 0.184,1.418 1.11,2.464 2.068,2.34 C -0.441,2.668 0.186,1.418 0,0"
         id="path8904"
         style="fill:#231f20;fill-opacity:1;fill-rule:nonzero;stroke:none" />
    </g>
    <g
       transform="matrix(1.25,0,0,-1.25,417.50876,243.44881)"
       id="g8906">
      <path
         d="M 0,0 0.784,-0.048 0.387,-5.22 -0.455,-5.149 0,0 z"
         id="path8908"
         style="fill:#231f20;fill-opacity:1;fill-rule:nonzero;stroke:none" />
    </g>
    <g
       transform="matrix(1.25,0,0,-1.25,420.25776,246.99131)"
       id="g8910">
      <path
         d="m 0,0 c -0.187,-1.416 -1.062,-2.471 -1.949,-2.355 -0.893,0.118 -1.464,1.36 -1.279,2.779 0.186,1.414 1.056,2.469 1.947,2.351 C -0.389,2.659 0.185,1.416 0,0"
         id="path8912"
         style="fill:#383334;fill-opacity:1;fill-rule:nonzero;stroke:none" />
    </g>
    <g
       transform="matrix(1.25,0,0,-1.25,419.26038,246.93021)"
       id="g8914">
      <path
         d="M 0,0 C -0.104,-0.812 -0.605,-1.412 -1.113,-1.346 -1.621,-1.278 -1.949,-0.57 -1.842,0.241 -1.736,1.05 -1.238,1.652 -0.73,1.586 -0.219,1.52 0.105,0.81 0,0"
         id="path8916"
         style="fill:#5f5758;fill-opacity:1;fill-rule:nonzero;stroke:none" />
    </g>
    <g
       transform="matrix(1.25,0,0,-1.25,397.14251,243.27911)"
       id="g8918">
      <path
         d="M 0,0 -6.994,3.511 -6.88,-6.196 0,-10.534 0,0 z"
         id="path8920"
         style="fill:#fbb043;fill-opacity:1;fill-rule:nonzero;stroke:none" />
    </g>
    <g
       transform="matrix(1.25,0,0,-1.25,388.25701,244.68421)"
       id="g8922">
      <path
         d="M 0,0 -1.938,-1.162 4.337,-4.53 6.835,-3.311 0,0 z"
         id="path8924"
         style="fill:#f7ba69;fill-opacity:1;fill-rule:nonzero;stroke:none" />
    </g>
    <g
       transform="matrix(1.25,0,0,-1.25,385.83388,246.13681)"
       id="g8926">
      <path
         d="M 0,0 0.021,-3.834 6.392,-7.705 6.275,-3.368 0,0 z"
         id="path8928"
         style="fill:#fbb043;fill-opacity:1;fill-rule:nonzero;stroke:none" />
    </g>
    <g
       transform="matrix(1.25,0,0,-1.25,393.67813,250.34691)"
       id="g8930">
      <path
         d="M 0,0 2.498,1.22 2.479,-4.958 0.116,-4.337 0,0 z"
         id="path8932"
         style="fill:#ef9f35;fill-opacity:1;fill-rule:nonzero;stroke:none" />
    </g>
    <g
       transform="matrix(1.25,0,0,-1.25,388.47188,240.06131)"
       id="g8934">
      <path
         d="m 0,0 0,-3.438 5.576,-2.757 0,3.331 L 0,0 z"
         id="path8936"
         style="fill:#afe0ee;fill-opacity:1;fill-rule:nonzero;stroke:none" />
    </g>
    <g
       transform="matrix(1.25,0,0,-1.25,387.16688,249.18481)"
       id="g8938">
      <path
         d="m 0,0 c 0,-0.526 -0.125,-0.949 -0.281,-0.949 -0.155,0 -0.281,0.423 -0.281,0.949 0,0.522 0.126,0.947 0.281,0.947 C -0.125,0.947 0,0.522 0,0"
         id="path8940"
         style="fill:#5f5758;fill-opacity:1;fill-rule:nonzero;stroke:none" />
    </g>
    <g
       transform="matrix(1.25,0,0,-1.25,387.14251,248.69911)"
       id="g8942">
      <path
         d="M 0,0 0,-1.86 3.254,-3.643 3.193,-1.744 0,0 z"
         id="path8944"
         style="fill:#f4763d;fill-opacity:1;fill-rule:nonzero;stroke:none" />
    </g>
    <g
       transform="matrix(1.25,0,0,-1.25,392.46601,252.42711)"
       id="g8946">
      <path
         d="m 0,0 c 0,-0.524 -0.125,-0.95 -0.281,-0.95 -0.155,0 -0.281,0.426 -0.281,0.95 0,0.523 0.126,0.946 0.281,0.946 C -0.125,0.946 0,0.523 0,0"
         id="path8948"
         style="fill:#5f5758;fill-opacity:1;fill-rule:nonzero;stroke:none" />
    </g>
    <g
       transform="matrix(1.25,0,0,-1.25,397.14251,244.05311)"
       id="g8950">
      <path
         d="M 0,0 0,-4.416 2,-2.479 2,0.851 0,0 z"
         id="path8952"
         style="fill:#afe0ee;fill-opacity:1;fill-rule:nonzero;stroke:none" />
    </g>
  </g>
</svg>
