<?xml version="1.0" encoding="UTF-8" standalone="no"?>
<!-- Created with Inkscape (http://www.inkscape.org/) -->

<svg
   xmlns:dc="http://purl.org/dc/elements/1.1/"
   xmlns:cc="http://creativecommons.org/ns#"
   xmlns:rdf="http://www.w3.org/1999/02/22-rdf-syntax-ns#"
   xmlns:svg="http://www.w3.org/2000/svg"
   xmlns="http://www.w3.org/2000/svg"
   version="1.1"
   width="45"
   height="45"
   id="svg16797">
  <defs
     id="defs16799">
    <clipPath
       id="clipPath8794">
      <path
         d="m 178.688,3801.59 4.182,0 0,-9.04 -4.182,0 0,9.04 z"
         id="path8796" />
    </clipPath>
    <clipPath
       id="clipPath8778">
      <path
         d="m 172.416,3800.94 7.6,0 0,-9.44 -7.6,0 0,9.44 z"
         id="path8780" />
    </clipPath>
  </defs>
  <metadata
     id="metadata16802">
    <rdf:RDF>
      <cc:Work
         rdf:about="">
        <dc:format>image/svg+xml</dc:format>
        <dc:type
           rdf:resource="http://purl.org/dc/dcmitype/StillImage" />
        <dc:title></dc:title>
      </cc:Work>
    </rdf:RDF>
  </metadata>
  <g
     transform="translate(-380.35714,-221.29075)"
     id="layer1">
    <g
       transform="matrix(1.25,0,0,-1.25,390.52664,239.33074)"
       id="g8958">
      <path
         d="m 0,0 0.271,-12.199 11.599,-2.325 0,12.463 L 0,0 z"
         id="path8960"
         style="fill:#a9cfd8;fill-opacity:1;fill-rule:nonzero;stroke:none" />
    </g>
    <g
       transform="matrix(1.25,0,0,-1.25,405.36427,241.90644)"
       id="g8962">
      <path
         d="M 0,0 8,5.467 8,-6.338 0,-12.464 0,0 z"
         id="path8964"
         style="fill:#79abb2;fill-opacity:1;fill-rule:nonzero;stroke:none" />
    </g>
    <g
       transform="matrix(1.25,0,0,-1.25,390.04927,239.33074)"
       id="g8966">
      <path
         d="M 0,0 11.01,7.552 12.252,-2.061 0,0 z"
         id="path8968"
         style="fill:#cce8ed;fill-opacity:1;fill-rule:nonzero;stroke:none" />
    </g>
    <g
       transform="matrix(1.25,0,0,-1.25,403.81152,229.89104)"
       id="g8970">
      <path
         d="M 0,0 9.084,-4.146 1.479,-9.612 0,0 z"
         id="path8972"
         style="fill:#8cb8bf;fill-opacity:1;fill-rule:nonzero;stroke:none" />
    </g>
    <g
       transform="matrix(1.25,0,0,-1.25,392.86427,241.90644)"
       id="g8974">
      <path
         d="M 0,0 0,-3.802 9,-5.124 9,-1.267 0,0 z"
         id="path8976"
         style="fill:#cce8ed;fill-opacity:1;fill-rule:nonzero;stroke:none" />
    </g>
  </g>
</svg>
