<?xml version="1.0" encoding="UTF-8" standalone="no"?>
<!-- Created with Inkscape (http://www.inkscape.org/) -->

<svg
   xmlns:dc="http://purl.org/dc/elements/1.1/"
   xmlns:cc="http://creativecommons.org/ns#"
   xmlns:rdf="http://www.w3.org/1999/02/22-rdf-syntax-ns#"
   xmlns:svg="http://www.w3.org/2000/svg"
   xmlns="http://www.w3.org/2000/svg"
   version="1.1"
   width="45"
   height="45"
   id="svg16797">
  <defs
     id="defs16799">
    <clipPath
       id="clipPath8794">
      <path
         d="m 178.688,3801.59 4.182,0 0,-9.04 -4.182,0 0,9.04 z"
         id="path8796" />
    </clipPath>
    <clipPath
       id="clipPath8778">
      <path
         d="m 172.416,3800.94 7.6,0 0,-9.44 -7.6,0 0,9.44 z"
         id="path8780" />
    </clipPath>
  </defs>
  <metadata
     id="metadata16802">
    <rdf:RDF>
      <cc:Work
         rdf:about="">
        <dc:format>image/svg+xml</dc:format>
        <dc:type
           rdf:resource="http://purl.org/dc/dcmitype/StillImage" />
        <dc:title></dc:title>
      </cc:Work>
    </rdf:RDF>
  </metadata>
  <g
     transform="translate(-380.35714,-221.29075)"
     id="layer1">
    <g
       transform="matrix(1.25,0,0,-1.25,388.43545,236.03682)"
       id="g8982">
      <path
         d="M 0,0 0.846,-12.607 9.393,-18.104 8.477,-4.443 0,0 z"
         id="path8984"
         style="fill:#fff8b1;fill-opacity:1;fill-rule:nonzero;stroke:none" />
    </g>
    <g
       transform="matrix(1.25,0,0,-1.25,400.1762,258.66622)"
       id="g8986">
      <path
         d="M 0,0 14.52,5.359 13.638,18.494 -0.916,13.66 0,0 z"
         id="path8988"
         style="fill:#fccc9f;fill-opacity:1;fill-rule:nonzero;stroke:none" />
    </g>
    <g
       transform="matrix(1.25,0,0,-1.25,401.77295,242.28932)"
       id="g8990">
      <path
         d="M 0,0 0.323,-4.86 11.791,-0.748 11.495,3.672 0,0 z"
         id="path8992"
         style="fill:#d8b08b;fill-opacity:1;fill-rule:nonzero;stroke:none" />
    </g>
    <g
       transform="matrix(1.25,0,0,-1.25,402.17695,248.36472)"
       id="g8994">
      <path
         d="M 0,0 C 0.139,-0.032 2.313,-0.329 2.313,-0.329 L 13.22,3.438 11.468,4.112 0,0 z"
         id="path8996"
         style="fill:#9e8167;fill-opacity:1;fill-rule:nonzero;stroke:none" />
    </g>
    <g
       transform="matrix(1.25,0,0,-1.25,394.29858,234.91262)"
       id="g8998">
      <path
         d="M 0,0 4.265,-5.839 19.002,-1.058 15.284,4.538 0,0 z"
         id="path9000"
         style="fill:#ba475b;fill-opacity:1;fill-rule:nonzero;stroke:none" />
    </g>
    <g
       transform="matrix(1.25,0,0,-1.25,394.29858,234.91262)"
       id="g9002">
      <path
         d="M 0,0 -4.857,2.256 -4.577,-1.241 4.265,-5.839 0,0 z"
         id="path9004"
         style="fill:#ba475b;fill-opacity:1;fill-rule:nonzero;stroke:none" />
    </g>
    <g
       transform="matrix(1.25,0,0,-1.25,396.62157,234.28032)"
       id="g9006">
      <path
         d="M 0,0 1.418,0.493 5.137,-5.437 3.716,-5.929 0,0 z"
         id="path9008"
         style="fill:#ffffff;fill-opacity:1;fill-rule:nonzero;stroke:none" />
    </g>
    <g
       transform="matrix(1.25,0,0,-1.25,400.6987,233.01812)"
       id="g9010">
      <path
         d="M 0,0 1.416,0.492 5.135,-5.436 3.717,-5.928 0,0 z"
         id="path9012"
         style="fill:#ffffff;fill-opacity:1;fill-rule:nonzero;stroke:none" />
    </g>
    <g
       transform="matrix(1.25,0,0,-1.25,404.21183,231.95362)"
       id="g9014">
      <path
         d="M 0,0 1.421,0.49 5.139,-5.439 3.718,-5.93 0,0 z"
         id="path9016"
         style="fill:#ffffff;fill-opacity:1;fill-rule:nonzero;stroke:none" />
    </g>
    <g
       transform="matrix(1.25,0,0,-1.25,407.80683,230.84882)"
       id="g9018">
      <path
         d="M 0,0 1.421,0.49 5.032,-5.314 3.612,-5.802 0,0 z"
         id="path9020"
         style="fill:#ffffff;fill-opacity:1;fill-rule:nonzero;stroke:none" />
    </g>
    <g
       transform="matrix(1.25,0,0,-1.25,411.20645,229.87962)"
       id="g9022">
      <path
         d="M 0,0 1.42,0.49 5.121,-5.177 3.701,-5.667 0,0 z"
         id="path9024"
         style="fill:#ffffff;fill-opacity:1;fill-rule:nonzero;stroke:none" />
    </g>
    <g
       transform="matrix(1.25,0,0,-1.25,388.22682,232.09282)"
       id="g9026">
      <path
         d="M 0,0 12.854,2.908 17.116,1.345 4.857,-2.256 0,0 z"
         id="path9028"
         style="fill:#802b3b;fill-opacity:1;fill-rule:nonzero;stroke:none" />
    </g>
  </g>
</svg>
