<?xml version="1.0" encoding="UTF-8" standalone="no"?>
<!-- Created with Inkscape (http://www.inkscape.org/) -->

<svg
   xmlns:dc="http://purl.org/dc/elements/1.1/"
   xmlns:cc="http://creativecommons.org/ns#"
   xmlns:rdf="http://www.w3.org/1999/02/22-rdf-syntax-ns#"
   xmlns:svg="http://www.w3.org/2000/svg"
   xmlns="http://www.w3.org/2000/svg"
   version="1.1"
   width="45"
   height="45"
   id="svg16797">
  <defs
     id="defs16799">
    <clipPath
       id="clipPath8794">
      <path
         d="m 178.688,3801.59 4.182,0 0,-9.04 -4.182,0 0,9.04 z"
         id="path8796" />
    </clipPath>
    <clipPath
       id="clipPath8778">
      <path
         d="m 172.416,3800.94 7.6,0 0,-9.44 -7.6,0 0,9.44 z"
         id="path8780" />
    </clipPath>
  </defs>
  <metadata
     id="metadata16802">
    <rdf:RDF>
      <cc:Work
         rdf:about="">
        <dc:format>image/svg+xml</dc:format>
        <dc:type
           rdf:resource="http://purl.org/dc/dcmitype/StillImage" />
        <dc:title></dc:title>
      </cc:Work>
    </rdf:RDF>
  </metadata>
  <g
     transform="translate(-380.35714,-221.29075)"
     id="layer1">
    <path
       d="m 409.49702,249.44685 -6.25,0 0,-12.5 6.25,0 0,12.5 z"
       id="path9042"
       style="fill:#ededed;fill-opacity:1;fill-rule:nonzero;stroke:none" />
    <g
       transform="matrix(1.25,0,0,-1.25,409.82415,249.7835)"
       id="g9044">
      <path
         d="m 0,0 c 0,-0.349 -1.209,-0.624 -2.705,-0.624 -1.496,0 -2.709,0.275 -2.709,0.624 0,0.345 1.213,0.625 2.709,0.625 C -1.209,0.625 0,0.345 0,0"
         id="path9046"
         style="fill:#ededed;fill-opacity:1;fill-rule:nonzero;stroke:none" />
    </g>
    <g
       transform="matrix(1.25,0,0,-1.25,420.23914,236.8221)"
       id="g9048">
      <path
         d="m 0,0 0.039,1.582 -2.045,0 -18.939,0 -1.088,0 0,-1.332 0.021,0 c 0.226,-1.332 5.37,-2.592 11.054,-2.517 C -2.862,-2.168 0,0 0,0"
         id="path9050"
         style="fill:#d3d3d3;fill-opacity:1;fill-rule:nonzero;stroke:none" />
    </g>
    <g
       transform="matrix(1.25,0,0,-1.25,420.69327,234.703)"
       id="g9052">
      <path
         d="m 0,0 c 0,-1.534 -4.95,-2.777 -11.054,-2.777 -6.104,0 -11.05,1.243 -11.05,2.777 0,1.532 4.946,2.776 11.05,2.776 C -4.95,2.776 0,1.532 0,0"
         id="path9054"
         style="fill:#ededed;fill-opacity:1;fill-rule:nonzero;stroke:none" />
    </g>
    <path
       d="m 417.50827,248.22685 -1.52125,0 0,-6.105 1.52125,0 0,6.105 z"
       id="path9056"
       style="fill:#ededed;fill-opacity:1;fill-rule:nonzero;stroke:none" />
    <g
       transform="matrix(1.25,0,0,-1.25,418.47527,248.4969)"
       id="g9058">
      <path
         d="m 0,0 c 0,-0.18 -0.615,-0.323 -1.381,-0.323 -0.765,0 -1.387,0.143 -1.387,0.323 0,0.175 0.622,0.317 1.387,0.317 C -0.615,0.317 0,0.175 0,0"
         id="path9060"
         style="fill:#ededed;fill-opacity:1;fill-rule:nonzero;stroke:none" />
    </g>
    <g
       transform="matrix(1.25,0,0,-1.25,421.70164,243.8265)"
       id="g9062">
      <path
         d="m 0,0 0.015,0.569 -0.738,0 -6.828,0 -0.39,0 0,-0.479 0.005,0 C -7.851,-0.389 -6.001,-0.845 -3.95,-0.82 -1.031,-0.781 0,0 0,0"
         id="path9064"
         style="fill:#d3d3d3;fill-opacity:1;fill-rule:nonzero;stroke:none" />
    </g>
    <g
       transform="matrix(1.25,0,0,-1.25,421.72727,243.0624)"
       id="g9066">
      <path
         d="m 0,0 c 0,-0.557 -1.783,-1 -3.982,-1 -2.203,0 -3.986,0.443 -3.986,1 0,0.553 1.783,0.998 3.986,0.998 C -1.783,0.998 0,0.553 0,0"
         id="path9068"
         style="fill:#ededed;fill-opacity:1;fill-rule:nonzero;stroke:none" />
    </g>
    <path
       d="m 395.22827,247.04935 -1.52,0 0,-6.1125 1.52,0 0,6.1125 z"
       id="path9070"
       style="fill:#ededed;fill-opacity:1;fill-rule:nonzero;stroke:none" />
    <g
       transform="matrix(1.25,0,0,-1.25,396.19377,247.3201)"
       id="g9072">
      <path
         d="m 0,0 c 0,-0.176 -0.615,-0.316 -1.378,-0.316 -0.767,0 -1.389,0.14 -1.389,0.316 0,0.178 0.622,0.321 1.389,0.321 C -0.615,0.321 0,0.178 0,0"
         id="path9074"
         style="fill:#ededed;fill-opacity:1;fill-rule:nonzero;stroke:none" />
    </g>
    <g
       transform="matrix(1.25,0,0,-1.25,399.42015,242.6449)"
       id="g9076">
      <path
         d="m 0,0 0.017,0.569 -0.742,0 -6.827,0 -0.389,0 0,-0.48 0.008,0 c 0.081,-0.48 1.936,-0.934 3.985,-0.906 C -1.031,-0.781 0,0 0,0"
         id="path9078"
         style="fill:#d3d3d3;fill-opacity:1;fill-rule:nonzero;stroke:none" />
    </g>
    <g
       transform="matrix(1.25,0,0,-1.25,399.4409,241.8844)"
       id="g9080">
      <path
         d="m 0,0 c 0,-0.554 -1.778,-0.999 -3.976,-0.999 -2.204,0 -3.988,0.445 -3.988,0.999 0,0.554 1.784,1.003 3.988,1.003 C -1.778,1.003 0,0.554 0,0"
         id="path9082"
         style="fill:#ededed;fill-opacity:1;fill-rule:nonzero;stroke:none" />
    </g>
    <path
       d="m 404.46327,252.73935 -1.52625,0 0,-6.1075 1.52625,0 0,6.1075 z"
       id="path9084"
       style="fill:#ededed;fill-opacity:1;fill-rule:nonzero;stroke:none" />
    <g
       transform="matrix(1.25,0,0,-1.25,405.42839,253.0111)"
       id="g9086">
      <path
         d="m 0,0 c 0,-0.178 -0.618,-0.318 -1.383,-0.318 -0.767,0 -1.385,0.14 -1.385,0.318 0,0.176 0.618,0.322 1.385,0.322 C -0.618,0.322 0,0.176 0,0"
         id="path9088"
         style="fill:#ededed;fill-opacity:1;fill-rule:nonzero;stroke:none" />
    </g>
    <g
       transform="matrix(1.25,0,0,-1.25,408.65102,248.337)"
       id="g9090">
      <path
         d="m 0,0 0.016,0.569 -0.742,0 -6.825,0 -0.39,0 0,-0.478 0.005,0 c 0.084,-0.483 1.934,-0.934 3.987,-0.909 C -1.028,-0.78 0,0 0,0"
         id="path9092"
         style="fill:#d3d3d3;fill-opacity:1;fill-rule:nonzero;stroke:none" />
    </g>
    <g
       transform="matrix(1.25,0,0,-1.25,408.6779,247.5716)"
       id="g9094">
      <path
         d="m 0,0 c 0,-0.555 -1.781,-1.004 -3.982,-1.004 -2.202,0 -3.986,0.449 -3.986,1.004 0,0.549 1.784,0.999 3.986,0.999 C -1.781,0.999 0,0.549 0,0"
         id="path9096"
         style="fill:#ededed;fill-opacity:1;fill-rule:nonzero;stroke:none" />
    </g>
    <g
       transform="matrix(1.25,0,0,-1.25,400.08665,252.2299)"
       id="g9098">
      <path
         d="m 0,0 c -0.032,-1.039 -0.655,-1.863 -1.56,-1.837 l -6.061,0.167 c -0.901,0.027 -1.608,0.891 -1.579,1.927 l 0.147,5.441 c 0.032,1.04 1.31,1.796 2.213,1.769 L -1.303,7.361 C -0.402,7.338 0.18,6.479 0.149,5.441 L 0,0 z"
         id="path9100"
         style="fill:#a43d74;fill-opacity:1;fill-rule:nonzero;stroke:none" />
    </g>
    <g
       transform="matrix(1.25,0,0,-1.25,396.19752,254.0437)"
       id="g9102">
      <path
         d="m 0,0 c -0.027,-1.033 -0.654,-1.857 -1.556,-1.832 l -6.061,0.169 c -0.901,0.025 -1.61,0.889 -1.579,1.925 l 0.145,5.439 c 0.03,1.036 0.79,1.858 1.69,1.832 L -1.303,7.365 C -0.396,7.341 0.185,6.48 0.156,5.445 L 0,0 z"
         id="path9104"
         style="fill:#cc4e90;fill-opacity:1;fill-rule:nonzero;stroke:none" />
    </g>
    <g
       transform="matrix(1.25,0,0,-1.25,394.97802,244.8885)"
       id="g9106">
      <path
         d="M 0,0 3.016,1.483 4.207,-0.248 4.087,-5.873 3.016,-7.596 -0.194,-9.168 0,0 z"
         id="path9108"
         style="fill:#a43d74;fill-opacity:1;fill-rule:nonzero;stroke:none" />
    </g>
    <g
       transform="matrix(1.25,0,0,-1.25,386.67602,244.6162)"
       id="g9110">
      <path
         d="M 0,0 3.269,1.396 9.657,1.271 c 0,0 -0.636,-0.475 -1.385,-0.805 -1.359,-0.613 -1.63,-0.651 -1.63,-0.651 L 0,0 z"
         id="path9112"
         style="fill:#e86bb2;fill-opacity:1;fill-rule:nonzero;stroke:none" />
    </g>
    <g
       transform="matrix(1.25,0,0,-1.25,392.09715,243.4932)"
       id="g9114">
      <path
         d="m 0,0 c 0,-0.05 -0.224,-0.089 -0.498,-0.082 -0.272,0.012 -0.49,0.056 -0.49,0.11 0,0.054 0.223,0.091 0.497,0.084 C -0.22,0.103 0,0.059 0,0"
         id="path9116"
         style="fill:#a43d74;fill-opacity:1;fill-rule:nonzero;stroke:none" />
    </g>
    <g
       transform="matrix(1.25,0,0,-1.25,395.92889,243.5995)"
       id="g9118">
      <path
         d="m 0,0 c 0,-0.051 -0.221,-0.088 -0.494,-0.081 -0.276,0.011 -0.495,0.056 -0.495,0.112 0,0.051 0.221,0.089 0.495,0.078 C -0.218,0.1 0,0.055 0,0"
         id="path9120"
         style="fill:#a43d74;fill-opacity:1;fill-rule:nonzero;stroke:none" />
    </g>
    <g
       transform="matrix(1.25,0,0,-1.25,393.02489,243.9986)"
       id="g9122">
      <path
         d="m 0,0 c -0.005,-0.05 -0.225,-0.087 -0.5,-0.079 -0.271,0.008 -0.489,0.056 -0.489,0.113 0,0.049 0.224,0.084 0.493,0.076 C -0.223,0.104 0,0.056 0,0"
         id="path9124"
         style="fill:#a43d74;fill-opacity:1;fill-rule:nonzero;stroke:none" />
    </g>
    <g
       transform="matrix(1.25,0,0,-1.25,390.30027,244.1561)"
       id="g9126">
      <path
         d="m 0,0 c 0,-0.055 -0.221,-0.092 -0.496,-0.085 -0.274,0.01 -0.492,0.058 -0.492,0.11 0,0.051 0.222,0.089 0.496,0.082 C -0.218,0.1 0,0.049 0,0"
         id="path9128"
         style="fill:#a43d74;fill-opacity:1;fill-rule:nonzero;stroke:none" />
    </g>
    <g
       transform="matrix(1.25,0,0,-1.25,395.13302,244.2586)"
       id="g9130">
      <path
         d="m 0,0 c 0,-0.052 -0.222,-0.085 -0.496,-0.08 -0.272,0.01 -0.493,0.059 -0.493,0.11 0.004,0.052 0.224,0.091 0.496,0.081 C -0.218,0.104 0.007,0.055 0,0"
         id="path9132"
         style="fill:#a43d74;fill-opacity:1;fill-rule:nonzero;stroke:none" />
    </g>
  </g>
</svg>
