<?xml version="1.0" encoding="UTF-8" standalone="no"?>
<!-- Created with Inkscape (http://www.inkscape.org/) -->

<svg
   xmlns:dc="http://purl.org/dc/elements/1.1/"
   xmlns:cc="http://creativecommons.org/ns#"
   xmlns:rdf="http://www.w3.org/1999/02/22-rdf-syntax-ns#"
   xmlns:svg="http://www.w3.org/2000/svg"
   xmlns="http://www.w3.org/2000/svg"
   version="1.1"
   width="45"
   height="45"
   id="svg16797">
  <defs
     id="defs16799">
    <clipPath
       id="clipPath8794">
      <path
         d="m 178.688,3801.59 4.182,0 0,-9.04 -4.182,0 0,9.04 z"
         id="path8796" />
    </clipPath>
    <clipPath
       id="clipPath8778">
      <path
         d="m 172.416,3800.94 7.6,0 0,-9.44 -7.6,0 0,9.44 z"
         id="path8780" />
    </clipPath>
  </defs>
  <metadata
     id="metadata16802">
    <rdf:RDF>
      <cc:Work
         rdf:about="">
        <dc:format>image/svg+xml</dc:format>
        <dc:type
           rdf:resource="http://purl.org/dc/dcmitype/StillImage" />
        <dc:title></dc:title>
      </cc:Work>
    </rdf:RDF>
  </metadata>
  <g
     transform="translate(-380.35714,-221.29075)"
     id="layer1">
    <g
       transform="matrix(1.25,0,0,-1.25,394.37648,244.42593)"
       id="g9138">
      <path
         d="M 0,0 -0.322,-10.846 -6.244,-7.499 -5.92,3.427 0,0 z"
         id="path9140"
         style="fill:#ffffff;fill-opacity:1;fill-rule:nonzero;stroke:none" />
    </g>
    <g
       transform="matrix(1.25,0,0,-1.25,394.37648,244.42593)"
       id="g9142">
      <path
         d="M 0,0 5.865,2.758 5.549,-7.851 -0.322,-10.846 0,0 z"
         id="path9144"
         style="fill:#e1f3fc;fill-opacity:1;fill-rule:nonzero;stroke:none" />
    </g>
    <g
       transform="matrix(1.25,0,0,-1.25,386.9766,240.14253)"
       id="g9146">
      <path
         d="M 0,0 5.4,3.087 5.92,-3.427 0,0 z"
         id="path9148"
         style="fill:#83d4f6;fill-opacity:1;fill-rule:nonzero;stroke:none" />
    </g>
    <g
       transform="matrix(1.25,0,0,-1.25,393.7271,236.28393)"
       id="g9150">
      <path
         d="M 0,0 6.385,-3.756 0.52,-6.514 0,0 z"
         id="path9152"
         style="fill:#70b3d0;fill-opacity:1;fill-rule:nonzero;stroke:none" />
    </g>
    <g
       transform="matrix(1.25,0,0,-1.25,412.88236,237.02733)"
       id="g9154">
      <path
         d="M 0,0 -0.322,-10.846 -6.244,-7.5 -5.919,3.426 0,0 z"
         id="path9156"
         style="fill:#99ffff;fill-opacity:1;fill-rule:nonzero;stroke:none" />
    </g>
    <g
       transform="matrix(1.25,0,0,-1.25,412.88236,237.02733)"
       id="g9158">
      <path
         d="M 0,0 5.865,2.758 5.549,-7.85 -0.322,-10.846 0,0 z"
         id="path9160"
         style="fill:#7bf3fc;fill-opacity:1;fill-rule:nonzero;stroke:none" />
    </g>
    <g
       transform="matrix(1.25,0,0,-1.25,405.48373,232.74503)"
       id="g9162">
      <path
         d="M 0,0 5.399,3.089 5.919,-3.426 0,0 z"
         id="path9164"
         style="fill:#1dd4f6;fill-opacity:1;fill-rule:nonzero;stroke:none" />
    </g>
    <g
       transform="matrix(1.25,0,0,-1.25,412.23298,228.88393)"
       id="g9166">
      <path
         d="M 0,0 6.385,-3.757 0.52,-6.515 0,0 z"
         id="path9168"
         style="fill:#0ab3d0;fill-opacity:1;fill-rule:nonzero;stroke:none" />
    </g>
  </g>
</svg>
