<?xml version="1.0" encoding="UTF-8" standalone="no"?>
<!-- Created with Inkscape (http://www.inkscape.org/) -->

<svg
   xmlns:dc="http://purl.org/dc/elements/1.1/"
   xmlns:cc="http://creativecommons.org/ns#"
   xmlns:rdf="http://www.w3.org/1999/02/22-rdf-syntax-ns#"
   xmlns:svg="http://www.w3.org/2000/svg"
   xmlns="http://www.w3.org/2000/svg"
   version="1.1"
   width="45"
   height="45"
   id="svg16797">
  <defs
     id="defs16799">
    <clipPath
       id="clipPath8794">
      <path
         d="m 178.688,3801.59 4.182,0 0,-9.04 -4.182,0 0,9.04 z"
         id="path8796" />
    </clipPath>
    <clipPath
       id="clipPath8778">
      <path
         d="m 172.416,3800.94 7.6,0 0,-9.44 -7.6,0 0,9.44 z"
         id="path8780" />
    </clipPath>
  </defs>
  <metadata
     id="metadata16802">
    <rdf:RDF>
      <cc:Work
         rdf:about="">
        <dc:format>image/svg+xml</dc:format>
        <dc:type
           rdf:resource="http://purl.org/dc/dcmitype/StillImage" />
        <dc:title></dc:title>
      </cc:Work>
    </rdf:RDF>
  </metadata>
  <g
     transform="translate(-380.35714,-221.29075)"
     id="layer1">
    <g
       transform="matrix(1.25,0,0,-1.25,403.57671,240.54065)"
       id="g9174">
      <path
         d="M 0,0 -0.491,-16.595 -9.553,-11.478 -9.06,5.239 0,0 z"
         id="path9176"
         style="fill:#db9e30;fill-opacity:1;fill-rule:nonzero;stroke:none" />
    </g>
    <g
       transform="matrix(1.25,0,0,-1.25,403.57671,240.54065)"
       id="g9178">
      <path
         d="M 0,0 8.973,4.222 8.493,-12.01 -0.491,-16.595 0,0 z"
         id="path9180"
         style="fill:#bd922d;fill-opacity:1;fill-rule:nonzero;stroke:none" />
    </g>
    <g
       transform="matrix(1.25,0,0,-1.25,392.25234,233.99155)"
       id="g9182">
      <path
         d="M 0,0 8.263,4.727 9.06,-5.239 0,0 z"
         id="path9184"
         style="fill:#5f7327;fill-opacity:1;fill-rule:nonzero;stroke:none" />
    </g>
    <g
       transform="matrix(1.25,0,0,-1.25,402.58059,228.08325)"
       id="g9186">
      <path
         d="M 0,0 9.77,-5.744 0.797,-9.966 0,0 z"
         id="path9188"
         style="fill:#4c5201;fill-opacity:1;fill-rule:nonzero;stroke:none" />
    </g>
  </g>
</svg>
