<?xml version="1.0" encoding="UTF-8" standalone="no"?>
<!-- Created with Inkscape (http://www.inkscape.org/) -->

<svg
   xmlns:dc="http://purl.org/dc/elements/1.1/"
   xmlns:cc="http://creativecommons.org/ns#"
   xmlns:rdf="http://www.w3.org/1999/02/22-rdf-syntax-ns#"
   xmlns:svg="http://www.w3.org/2000/svg"
   xmlns="http://www.w3.org/2000/svg"
   version="1.1"
   width="135.91814"
   height="107.24636"
   id="svg18276">
  <defs
     id="defs18278" />
  <metadata
     id="metadata18281">
    <rdf:RDF>
      <cc:Work
         rdf:about="">
        <dc:format>image/svg+xml</dc:format>
        <dc:type
           rdf:resource="http://purl.org/dc/dcmitype/StillImage" />
        <dc:title></dc:title>
      </cc:Work>
    </rdf:RDF>
  </metadata>
  <g
     transform="translate(-478.28732,-291.21853)"
     id="layer1">
    <g
       transform="matrix(1.25,0,0,-1.25,522.41397,365.87703)"
       id="g666">
      <path
         d="M 0,0 C 16.693,-10.479 37.357,-7.544 45.988,11.037 52.479,25.014 43.869,36.96 32.148,44.093 22.137,50.186 12.283,47.646 2.789,42.268 -4.906,37.907 -8.395,27.816 -10.051,19.644 -11.729,11.37 -7.079,4.443 0,0"
         id="path668"
         style="fill:#fff543;fill-opacity:1;fill-rule:nonzero;stroke:none" />
    </g>
    <g
       transform="matrix(1.25,0,0,-1.25,545.8796,296.22678)"
       id="g670">
      <path
         d="m 0,0 c 0,0 0.952,-0.079 2.733,-0.225 1.78,-0.177 4.375,-0.578 7.641,-1.327 3.244,-0.832 7.15,-2.098 11.346,-4.301 0.263,-0.134 0.529,-0.27 0.799,-0.406 0.255,-0.156 0.515,-0.313 0.777,-0.471 0.523,-0.318 1.055,-0.641 1.594,-0.969 1.072,-0.669 2.095,-1.475 3.192,-2.252 2.048,-1.716 4.226,-3.577 6.05,-5.933 0.986,-1.119 1.814,-2.396 2.691,-3.68 0.432,-0.646 0.774,-1.353 1.17,-2.039 0.383,-0.693 0.787,-1.379 1.103,-2.15 0.334,-0.754 0.682,-1.513 1.008,-2.288 0.286,-0.756 0.508,-1.49 0.768,-2.246 l 0.381,-1.131 0.047,-0.156 0.018,-0.077 0.038,-0.154 0.076,-0.307 0.151,-0.617 c 0.188,-0.828 0.432,-1.648 0.574,-2.502 0.661,-3.393 0.785,-7.049 0.167,-10.703 -0.601,-3.652 -1.978,-7.292 -4.116,-10.481 -2.113,-3.204 -4.879,-5.98 -7.992,-8.257 -3.119,-2.28 -6.574,-4.098 -10.201,-5.466 -7.256,-2.759 -15.166,-3.716 -22.893,-3.202 -3.865,0.243 -7.704,0.885 -11.394,1.974 -0.92,0.293 -1.842,0.542 -2.75,0.871 -0.896,0.356 -1.836,0.658 -2.684,1.057 -1.714,0.725 -3.472,1.646 -5.062,2.656 -6.465,4.11 -11.225,10.242 -14.443,16.754 -1.604,3.275 -2.839,6.688 -3.606,10.151 -0.337,1.738 -0.668,3.468 -0.799,5.208 -0.036,0.435 -0.092,0.862 -0.11,1.301 l -0.027,1.326 c -0.015,0.88 -0.047,1.778 0.024,2.568 l 0.074,1.218 0.043,0.606 0.011,0.15 0.016,0.147 0.011,0.08 0.046,0.316 c 0.119,0.843 0.226,1.681 0.42,2.503 0.32,1.654 0.835,3.251 1.45,4.774 1.266,3.038 3.094,5.725 5.247,7.857 2.111,2.184 4.543,3.784 6.921,5.047 2.399,1.242 4.786,2.122 7.059,2.77 4.556,1.29 8.626,1.701 11.953,1.977 3.338,0.208 5.957,0.18 7.745,0.14 C -1.838,0.096 -1.157,0.06 -0.698,0.035 -0.239,0.012 0,0 0,0 m -0.022,-0.399 c 0,0 -0.235,0.01 -0.695,0.03 -0.46,0.022 -1.141,0.054 -2.026,0.064 -1.772,0.027 -4.385,-0.014 -7.667,-0.423 -1.641,-0.202 -3.446,-0.506 -5.375,-0.976 -1.931,-0.452 -3.986,-1.074 -6.093,-1.925 -2.107,-0.844 -4.268,-1.923 -6.353,-3.302 -2.1,-1.354 -4.102,-3.043 -5.856,-5.055 -1.766,-2.007 -3.191,-4.396 -4.265,-7.036 -1.038,-2.674 -1.69,-5.553 -1.88,-8.721 -0.108,-0.834 -0.096,-1.582 -0.114,-2.355 l -0.024,-1.163 c 0,-0.392 0.037,-0.797 0.053,-1.197 0.029,-1.609 0.219,-3.233 0.427,-4.876 0.479,-3.282 1.355,-6.594 2.625,-9.831 1.28,-3.228 2.975,-6.386 5.17,-9.24 0.573,-0.694 1.147,-1.39 1.723,-2.088 0.64,-0.638 1.281,-1.28 1.926,-1.922 0.67,-0.614 1.388,-1.175 2.084,-1.768 0.701,-0.585 1.497,-1.047 2.249,-1.569 6.259,-3.94 13.886,-5.375 21.309,-5.401 7.455,0.033 14.852,1.563 21.513,4.302 6.634,2.747 12.544,7.063 16.015,12.681 1.725,2.793 2.882,5.83 3.386,8.937 0.118,0.778 0.27,1.548 0.272,2.334 0.016,0.783 0.133,1.555 0.062,2.334 -0.038,0.777 -0.029,1.552 -0.099,2.32 -0.1,0.77 -0.198,1.534 -0.295,2.291 -0.108,0.759 -0.317,1.502 -0.467,2.246 l -0.223,1.03 -0.354,1.14 c -0.24,0.749 -0.46,1.527 -0.712,2.236 -0.279,0.664 -0.531,1.333 -0.791,1.994 -1.121,2.646 -2.486,5.174 -4.059,7.391 -1.521,2.269 -3.293,4.223 -5.05,6.026 -0.944,0.827 -1.829,1.693 -2.772,2.43 -0.478,0.364 -0.947,0.723 -1.412,1.077 -0.232,0.177 -0.463,0.354 -0.691,0.528 -0.243,0.157 -0.481,0.312 -0.719,0.466 -1.877,1.276 -3.756,2.308 -5.551,3.136 -0.908,0.388 -1.763,0.816 -2.617,1.128 -0.861,0.296 -1.682,0.578 -2.46,0.846 -3.158,0.958 -5.734,1.385 -7.491,1.597 -1.763,0.185 -2.703,0.284 -2.703,0.284"
         id="path672"
         style="fill:#fff543;fill-opacity:1;fill-rule:nonzero;stroke:none" />
    </g>
    <g
       transform="matrix(1.25,0,0,-1.25,529.31347,392.04528)"
       id="g674">
      <path
         d="M 0,0 C 0,0 0.365,-0.109 1.051,-0.316 1.732,-0.52 2.697,-0.76 3.957,-1.02 c 1.258,-0.248 2.791,-0.453 4.547,-0.597 1.76,-0.12 3.748,-0.195 5.919,-0.098 2.171,0.059 4.518,0.277 7.009,0.533 2.49,0.258 5.156,0.457 7.909,0.891 2.749,0.43 5.575,1.116 8.279,2.246 2.712,1.1 5.323,2.578 7.694,4.334 l 0.445,0.328 0.2,0.151 0.22,0.176 c 0.23,0.206 0.479,0.437 0.729,0.692 0.498,0.5 0.985,1.038 1.457,1.588 0.956,1.092 1.879,2.221 2.797,3.338 1.832,2.239 3.532,4.534 5.088,6.797 1.535,2.279 2.982,4.489 4.264,6.618 1.273,2.131 2.398,4.181 3.201,6.134 0.832,1.942 1.345,3.782 1.488,5.395 0.123,1.611 -0.152,2.986 -0.723,4.008 -0.552,1.029 -1.287,1.717 -1.806,2.15 -0.257,0.229 -0.479,0.376 -0.624,0.482 -0.148,0.106 -0.224,0.161 -0.224,0.161 l 0.163,0.365 c 0,0 0.093,-0.027 0.273,-0.081 0.18,-0.055 0.455,-0.125 0.797,-0.268 0.677,-0.277 1.715,-0.76 2.729,-1.856 1.025,-1.071 1.862,-2.846 2.054,-4.899 0.226,-2.054 -0.1,-4.321 -0.74,-6.629 C 65.764,26.324 63.154,21.458 59.594,16.919 57.83,14.635 55.881,12.389 53.768,10.225 52.713,9.141 51.586,8.105 50.391,7.119 49.786,6.633 49.168,6.156 48.51,5.699 48.186,5.473 47.837,5.247 47.454,5.021 L 46.925,4.744 46.408,4.485 C 43.643,3.127 40.84,1.959 38.076,0.837 c -2.767,-1.11 -5.484,-2.233 -8.177,-3.245 -2.688,-1.02 -5.378,-1.839 -8.003,-2.274 -2.624,-0.435 -5.16,-0.507 -7.492,-0.423 -2.334,0.123 -4.471,0.404 -6.324,0.871 -1.853,0.443 -3.423,1.026 -4.656,1.617 -1.227,0.584 -2.156,1.177 -2.738,1.59 -0.567,0.438 -0.87,0.672 -0.87,0.672 L 0,0 z"
         id="path676"
         style="fill:#fff543;fill-opacity:1;fill-rule:nonzero;stroke:none" />
    </g>
    <g
       transform="matrix(1.25,0,0,-1.25,514.32685,291.64853)"
       id="g678">
      <path
         d="m 0,0 c 0,0 -0.243,-0.227 -0.7,-0.651 -0.463,-0.415 -1.135,-1.018 -2.088,-1.707 -0.463,-0.363 -0.996,-0.735 -1.574,-1.117 -0.575,-0.394 -1.204,-0.816 -1.889,-1.223 -1.355,-0.853 -2.904,-1.747 -4.561,-2.709 -1.644,-0.969 -3.41,-2.004 -5.156,-3.173 -1.748,-1.166 -3.599,-2.391 -5.259,-4.047 -1.647,-1.656 -2.944,-3.811 -3.706,-6.194 -0.168,-0.603 -0.338,-1.208 -0.507,-1.815 -0.116,-0.571 -0.205,-1.259 -0.308,-1.885 -0.069,-0.641 -0.197,-1.299 -0.214,-1.93 l -0.032,-1.887 c -0.03,-0.62 0.013,-1.251 0.069,-1.881 l 0.141,-1.868 0.263,-1.835 0.112,-0.908 0.187,-0.894 c 0.377,-2.394 1.207,-4.643 2.013,-6.79 0.942,-2.109 1.855,-4.145 2.897,-6.032 0.993,-1.904 2.024,-3.689 3.02,-5.324 0.977,-1.651 1.92,-3.15 2.749,-4.498 0.827,-1.346 1.559,-2.528 2.138,-3.516 1.183,-1.967 1.791,-3.151 1.791,-3.151 l -0.309,-0.254 c 0,0 -1.045,0.824 -2.731,2.394 -0.839,0.792 -1.865,1.746 -2.964,2.919 -1.127,1.149 -2.324,2.518 -3.596,4.057 -1.232,1.567 -2.56,3.297 -3.752,5.297 -1.244,1.961 -2.278,4.236 -3.138,6.657 -0.201,0.612 -0.37,1.243 -0.556,1.87 -0.193,0.627 -0.362,1.263 -0.472,1.922 -0.127,0.652 -0.254,1.308 -0.381,1.967 -0.085,0.666 -0.154,1.34 -0.215,2.012 -0.193,1.34 -0.058,2.715 -0.054,4.068 l 0.264,2.023 c 0.081,0.671 0.177,1.34 0.347,2.008 0.295,1.34 0.567,2.652 0.963,3.878 0.174,0.639 0.307,1.228 0.514,1.904 0.203,0.627 0.404,1.253 0.605,1.877 0.897,2.452 1.832,4.884 3.172,7.102 1.338,2.203 3.027,4.153 4.897,5.607 0.47,0.356 0.942,0.699 1.412,1.025 0.486,0.291 0.964,0.578 1.434,0.86 0.946,0.548 1.884,1.011 2.78,1.446 1.801,0.848 3.474,1.516 4.953,2.082 1.469,0.585 2.781,1.039 3.829,1.437 1.077,0.394 1.924,0.704 2.5,0.915 0.591,0.199 0.907,0.306 0.907,0.306 L 0,0 z"
         id="path680"
         style="fill:#fff543;fill-opacity:1;fill-rule:nonzero;stroke:none" />
    </g>
  </g>
</svg>
