<?xml version="1.0" encoding="UTF-8" standalone="no"?>
<!-- Created with Inkscape (http://www.inkscape.org/) -->

<svg
   xmlns:dc="http://purl.org/dc/elements/1.1/"
   xmlns:cc="http://creativecommons.org/ns#"
   xmlns:rdf="http://www.w3.org/1999/02/22-rdf-syntax-ns#"
   xmlns:svg="http://www.w3.org/2000/svg"
   xmlns="http://www.w3.org/2000/svg"
   version="1.1"
   width="543.46027"
   height="660.80548"
   id="svg15844">
  <defs
     id="defs15846" />
  <metadata
     id="metadata15849">
    <rdf:RDF>
      <cc:Work
         rdf:about="">
        <dc:format>image/svg+xml</dc:format>
        <dc:type
           rdf:resource="http://purl.org/dc/dcmitype/StillImage" />
        <dc:title></dc:title>
      </cc:Work>
    </rdf:RDF>
  </metadata>
  <g
     transform="translate(-88.269926,-121.95943)"
     id="layer1">
    <g
       transform="matrix(1.25,0,0,-1.25,627.67254,397.57407)"
       id="g1412">
      <path
         d="m 0,0 c 3.375,20.514 4.85,41.319 0.789,59.082 -3.241,13.478 -11.254,27.033 -23.991,40.645 -45.327,48.429 -87.548,102.842 -155.661,117.718 -46.992,10.267 -103.145,-7.913 -148.981,-17.617 -33.404,-7.074 -75.042,-14.178 -92.137,-47.76 -16.249,-31.924 -10.497,-78.222 -10.769,-113.104 -0.336,-43.254 1.175,-86.493 2.877,-129.703 0.941,-23.894 1.943,-47.788 2.73,-71.689 1.236,-37.468 -7.179,-88.413 30.225,-111.869 35.577,-22.314 79.368,-27.433 120.341,-30.905 31.695,-2.688 63.536,-3.346 95.332,-2.745 36.391,0.691 81.437,-3.862 104.089,31.259 18.5,28.686 21.25,64.819 29.85,97.115 11.318,42.493 24.627,84.454 34.226,127.393 C -7.605,-36.644 -3.032,-18.438 0,0"
         id="path1414"
         style="fill:#00b7b7;fill-opacity:1;fill-rule:nonzero;stroke:none" />
    </g>
  </g>
</svg>
