<?xml version="1.0" encoding="UTF-8" standalone="no"?>
<!-- Created with Inkscape (http://www.inkscape.org/) -->

<svg
   xmlns:dc="http://purl.org/dc/elements/1.1/"
   xmlns:cc="http://creativecommons.org/ns#"
   xmlns:rdf="http://www.w3.org/1999/02/22-rdf-syntax-ns#"
   xmlns:svg="http://www.w3.org/2000/svg"
   xmlns="http://www.w3.org/2000/svg"
   version="1.1"
   width="200"
   height="165"
   id="svg2"
   viewBox="0 0 200 165">
  <defs
     id="defs4">
    <clipPath
       id="clipPath1232">
      <path
         d="m 0,1896.979 164,0 0,141 -164,0 0,-141 z"
         id="path1234" />
    </clipPath>
  </defs>
  <metadata
     id="metadata7">
    <rdf:RDF>
      <cc:Work
         rdf:about="">
        <dc:format>image/svg+xml</dc:format>
        <dc:type
           rdf:resource="http://purl.org/dc/dcmitype/StillImage" />
        <dc:title></dc:title>
      </cc:Work>
    </rdf:RDF>
  </metadata>
  <g
     transform="translate(-256.77555,-333.5973)"
     id="layer1">
    <g
       transform="matrix(1.0564899,0,0,1.0622722,-38.653523,-55.329285)"
       id="layer1-9">
      <g
         transform="matrix(1.25,0,0,-1.25,279.63265,2913.6008)"
         clip-path="url(#clipPath1232)"
         id="g1230">
        <g
           transform="translate(150.208,1996.7998)"
           id="g1236">
          <path
             d="m 0,0 c 1.274,-11.975 1.558,-19.439 0.879,-22.414 -1.233,-5.138 -4.288,-10.301 -9.141,-15.487 -2.368,-2.4 -6.54,-6.664 -12.519,-12.856 -10.222,-10.66 -19.566,-18.946 -28.025,-24.847 -2.246,-1.44 -4.498,-2.834 -6.747,-4.139 -1.625,-0.615 -5.643,-1.617 -12.015,-3.011 -10.536,-1.058 -24.835,0.439 -42.907,4.474 -4.655,0.97 -13,2.817 -24.961,5.57 -11.973,2.735 -19.4,6.439 -22.266,11.112 -0.526,0.502 -1.237,1.339 -2.122,2.5 -0.753,2.101 -1.169,3.675 -1.22,4.74 -0.014,0.408 -0.04,0.736 -0.044,1.006 -0.015,0.125 -0.201,0.464 -0.555,0.966 -0.352,0.534 -0.533,0.988 -0.564,1.382 l -0.968,19.587 c -0.058,1.201 -0.147,2.937 -0.264,5.196 0.1,1.22 -0.031,3.807 -0.379,7.803 -0.023,0.144 -0.012,0.269 -0.038,0.405 -0.176,0.395 -0.221,1.191 -0.11,2.396 -0.008,0.129 -0.015,0.395 -0.043,0.8 0.108,4.552 0.186,9.697 0.201,15.447 -0.207,1.19 -0.308,2.986 -0.253,5.4 -0.068,1.323 -0.108,1.924 -0.088,1.802 l -0.079,1.589 c -0.054,0.936 -0.088,1.6 -0.107,2.001 -0.015,0.266 0.107,0.671 0.336,1.228 0.248,0.534 0.361,0.954 0.337,1.216 0.217,2.956 0.198,5.02 -0.05,6.214 l 0.777,0.63 c 0.072,1.877 0.327,4.158 0.701,6.852 0.174,0.284 0.344,3.885 0.52,10.855 0.306,0.674 0.579,1.825 0.831,3.439 -0.028,0.409 -0.088,1.736 -0.201,4.002 0.037,-0.803 0.022,-0.264 -0.082,1.6 0.164,3.222 0.058,5.551 -0.35,7 0.458,0.825 0.648,1.976 0.578,3.435 l -0.083,1.592 c -0.528,0.641 -0.796,1.239 -0.83,1.765 -0.439,8.799 -0.13,15.898 0.921,21.29 0.004,0.284 0.053,0.608 0.201,1.024 0.131,0.403 0.214,0.667 0.216,0.808 -0.267,5.193 1.005,9.605 3.815,13.217 5.772,7.371 15.313,12.252 28.636,14.662 2.463,0.52 7.483,1.441 15.044,2.749 2.301,0.377 6.788,0.613 13.413,0.675 0.161,0.012 0.573,-0.107 1.243,-0.341 0.69,-0.228 1.194,-0.335 1.537,-0.318 0.817,0.036 2.137,0.232 3.943,0.593 1.803,0.352 3.213,0.567 4.211,0.608 l 27.096,0.756 c 10.268,0.251 18.346,-0.556 24.259,-2.4 3.881,-1.271 7.057,-5.333 9.559,-12.144 0.375,-0.66 0.829,-1.563 1.385,-2.739 0.635,-2.923 1.767,-7.206 3.371,-12.864 0.18,-0.25 0.461,-0.711 0.816,-1.356 1.055,-4.095 3.26,-11.798 6.617,-23.117 1.198,-3.557 3.508,-10.243 6.986,-20.103 0.702,-3.966 1.792,-9.122 3.276,-15.461 l 0.325,-1.788 C -2.252,13.501 -0.579,5.167 0,0"
             id="path1238"
             style="fill:#ebe84d;fill-opacity:1;fill-rule:nonzero;stroke:none" />
        </g>
      </g>
    </g>
  </g>
</svg>
