<?xml version="1.0" encoding="UTF-8" standalone="no"?>
<!-- Created with Inkscape (http://www.inkscape.org/) -->

<svg
   xmlns:dc="http://purl.org/dc/elements/1.1/"
   xmlns:cc="http://creativecommons.org/ns#"
   xmlns:rdf="http://www.w3.org/1999/02/22-rdf-syntax-ns#"
   xmlns:svg="http://www.w3.org/2000/svg"
   xmlns="http://www.w3.org/2000/svg"
   version="1.1"
   width="111.21649"
   height="188.92216"
   id="svg19612">
  <defs
     id="defs19614">
    <clipPath
       id="clipPath11018">
      <path
         d="m 0,6615.635 990,0 L 990,0 0,0 0,6615.635 z"
         id="path11020" />
    </clipPath>
  </defs>
  <metadata
     id="metadata19617">
    <rdf:RDF>
      <cc:Work
         rdf:about="">
        <dc:format>image/svg+xml</dc:format>
        <dc:type
           rdf:resource="http://purl.org/dc/dcmitype/StillImage" />
        <dc:title></dc:title>
      </cc:Work>
    </rdf:RDF>
  </metadata>
  <g
     transform="translate(-440.80014,1543.844)"
     id="layer1">
    <g
       transform="matrix(1.25,0,0,-1.25,17.788345,-1495.6925)"
       id="g11022">
      <path
         d="m 0,0 c -13.805,10.807 -28.111,20.252 -45.662,23.386 -1.891,0.338 -2.7,-2.553 -0.797,-2.893 C -29.419,17.451 -15.524,8.371 -2.121,-2.121 -0.617,-3.299 1.522,-1.191 0,0"
         id="path11024"
         style="fill:#d9374f;fill-opacity:1;fill-rule:nonzero;stroke:none" />
    </g>
    <g
       transform="matrix(1.25,0,0,-1.25,-11.535905,-1437.4248)"
       id="g11026">
      <path
         d="m 0,0 c -11.692,-4.021 -22.237,-10.116 -32.358,-17.151 -1.577,-1.096 -0.079,-3.698 1.514,-2.59 9.906,6.885 20.189,12.91 31.642,16.848 C 2.616,-2.268 1.834,0.631 0,0"
         id="path11028"
         style="fill:#d9374f;fill-opacity:1;fill-rule:nonzero;stroke:none" />
    </g>
    <g
       transform="matrix(1.25,0,0,-1.25,11.387095,-1371.9425)"
       id="g11030">
      <path
         d="m 0,0 c -6.892,-7.111 -11.479,-15.708 -16.235,-24.304 -0.937,-1.694 1.654,-3.207 2.591,-1.513 4.63,8.369 9.05,16.766 15.765,23.696 C 3.467,-0.732 1.348,1.392 0,0"
         id="path11032"
         style="fill:#d9374f;fill-opacity:1;fill-rule:nonzero;stroke:none" />
    </g>
    <g
       transform="matrix(1.25,0,0,-1.25,444.52059,-1501.3688)"
       id="g11034">
      <path
         d="m 0,0 c 4.321,13.089 14.456,23.094 25.311,31.104 1.539,1.134 0.044,3.74 -1.514,2.589 C 12.273,25.189 1.692,14.687 -2.893,0.797 -3.501,-1.045 -0.604,-1.828 0,0"
         id="path11036"
         style="fill:#d9374f;fill-opacity:1;fill-rule:nonzero;stroke:none" />
    </g>
    <g
       transform="matrix(1.25,0,0,-1.25,472.40872,-1465.2482)"
       id="g11038">
      <path
         d="M 0,0 C 11.124,8.397 26.449,7.904 39.642,9.849 41.55,10.13 40.736,13.02 38.845,12.741 25.381,10.758 9.848,11.168 -1.514,2.59 -3.037,1.44 -1.545,-1.167 0,0"
         id="path11040"
         style="fill:#d9374f;fill-opacity:1;fill-rule:nonzero;stroke:none" />
    </g>
    <g
       transform="matrix(1.25,0,0,-1.25,479.26672,-1402.7482)"
       id="g11042">
      <path
         d="m 0,0 c 20.203,-10.542 40.569,-20.119 55.696,-37.766 1.261,-1.47 3.373,0.662 2.121,2.121 C 42.528,-17.808 21.946,-8.071 1.514,2.59 -0.199,3.484 -1.716,0.895 0,0"
         id="path11044"
         style="fill:#d9374f;fill-opacity:1;fill-rule:nonzero;stroke:none" />
    </g>
    <g
       transform="matrix(1.25,0,0,-1.25,-29.288655,-1472.4248)"
       id="g11046">
      <path
         d="m 0,0 c -6.404,0.968 -13.136,2.741 -19.537,0.868 -4.29,-1.256 -8.33,-6.938 -5.99,-11.349 2.066,-3.896 9.457,-0.79 12.214,0.18 3.291,1.158 6.508,2.517 9.781,3.723 2.201,0.811 5.34,2.283 7.734,1.685 C 6.08,-5.361 6.876,-2.469 5,-2 c -3.072,0.768 -6.486,-0.669 -9.33,-1.686 -4.644,-1.66 -9.145,-3.717 -13.906,-5.037 -0.957,-0.265 -4.669,-1.403 -4.896,0.321 -0.443,3.371 2.414,5.798 5.293,6.641 5.383,1.575 11.672,-0.32 17.041,-1.132 C 1.094,-3.179 1.908,-0.288 0,0"
         id="path11048"
         style="fill:#d9374f;fill-opacity:1;fill-rule:nonzero;stroke:none" />
    </g>
    <g
       transform="matrix(1.25,0,0,-1.25,482.40872,-1428.9982)"
       id="g11050">
      <path
         d="M 0,0 C 4.874,2.813 10.596,4.526 15.978,6.041 20.324,7.263 31.352,10.74 34.583,5.784 39.688,-2.047 20.318,2.34 17.871,2.741 11.047,3.861 3.06,5.53 -3.514,2.59 -5.277,1.802 -3.75,-0.783 -2,0 2.708,2.105 8.712,1.07 13.626,0.382 18.761,-0.337 23.843,-1.412 29.007,-1.922 35.085,-2.523 40.594,0.367 37.173,7.299 34.238,13.247 23.727,10.904 18.882,9.859 12.04,8.385 4.593,6.114 -1.514,2.59 -3.188,1.624 -1.679,-0.969 0,0"
         id="path11052"
         style="fill:#d9374f;fill-opacity:1;fill-rule:nonzero;stroke:none" />
    </g>
  </g>
</svg>
