<?xml version="1.0" encoding="UTF-8" standalone="no"?>
<!-- Created with Inkscape (http://www.inkscape.org/) -->

<svg
   xmlns:dc="http://purl.org/dc/elements/1.1/"
   xmlns:cc="http://creativecommons.org/ns#"
   xmlns:rdf="http://www.w3.org/1999/02/22-rdf-syntax-ns#"
   xmlns:svg="http://www.w3.org/2000/svg"
   xmlns="http://www.w3.org/2000/svg"
   version="1.1"
   width="390.86865"
   height="87.480789"
   id="svg19544">
  <defs
     id="defs19546" />
  <metadata
     id="metadata19549">
    <rdf:RDF>
      <cc:Work
         rdf:about="">
        <dc:format>image/svg+xml</dc:format>
        <dc:type
           rdf:resource="http://purl.org/dc/dcmitype/StillImage" />
        <dc:title></dc:title>
      </cc:Work>
    </rdf:RDF>
  </metadata>
  <g
     transform="translate(-181.70858,-240.05036)"
     id="layer1">
    <g
       transform="matrix(1.25,0,0,-1.25,519.6733,242.1032)"
       id="g11006">
      <path
         d="m 0,0 c 6.151,0.586 9.988,0.744 11.515,0.471 2.627,-0.482 5.278,-1.726 7.915,-3.719 1.216,-0.973 3.39,-2.685 6.541,-5.135 5.424,-4.197 9.64,-8.037 12.627,-11.525 0.73,-0.926 1.437,-1.858 2.09,-2.785 0.314,-0.673 0.815,-2.338 1.501,-4.976 0.489,-4.374 -0.361,-10.317 -2.517,-17.851 -0.52,-1.946 -1.514,-5.415 -2.989,-10.404 -1.454,-4.985 -3.398,-8.084 -5.815,-9.304 -0.261,-0.222 -0.7,-0.514 -1.297,-0.891 -1.086,-0.328 -1.893,-0.504 -2.437,-0.533 -0.214,-0.006 -0.381,-0.013 -0.524,-0.022 -0.065,-0.01 -0.231,-0.085 -0.495,-0.236 -0.281,-0.148 -0.504,-0.224 -0.711,-0.241 l -10.068,-0.497 c -0.617,-0.03 -1.514,-0.072 -2.68,-0.136 -0.622,0.031 -1.948,-0.029 -4.011,-0.193 -0.071,-0.012 -0.135,-0.006 -0.205,-0.024 -0.207,-0.075 -0.61,-0.094 -1.229,-0.051 -0.07,0 -0.201,-0.009 -0.413,-0.024 -2.339,0.024 -4.986,0.033 -7.94,0.011 -0.615,-0.098 -1.535,-0.152 -2.777,-0.134 -0.678,-0.035 -0.977,-0.058 -0.925,-0.054 l -0.814,-0.028 c -0.484,-0.03 -0.822,-0.054 -1.026,-0.061 -0.14,-0.005 -0.342,0.042 -0.628,0.129 -0.281,0.108 -0.486,0.152 -0.629,0.137 -1.514,0.075 -2.577,0.057 -3.192,-0.047 l -0.322,0.316 c -0.962,0.023 -2.135,0.117 -3.516,0.259 -8.38,2.706 -21.615,0.315 -30.303,0.433 -24.8,0.334 18.927,0.673 -5.874,1.007 -30.993,0.42 -61.989,0.821 -92.986,1.235 -59.181,0.789 -49.841,2.165 -109.03,2.165 -0.139,0 -0.309,0.018 -0.522,0.078 -0.207,0.051 -0.343,0.08 -0.413,0.08 -2.668,-0.134 -4.933,0.374 -6.765,1.525 -3.759,2.359 -6.225,6.287 -7.396,11.811 -1.927,9.08 -1.899,18.379 -2.102,27.618 -0.084,4.263 0.374,7.62 1.342,10.081 1.841,4.673 10.233,5.117 14.339,6.098 0.134,0.075 0.367,0.191 0.691,0.343 14.978,7.029 32.51,7.011 48.717,6.541 41.643,-1.206 14.75,-1.674 56.411,-2.105 60.659,-0.626 52.788,-1.35 113.451,-1.705 6.934,-0.043 14.722,-1.048 21.613,0.009 l 0.917,0.143 C -6.96,-0.996 -2.661,-0.266 0,0"
         id="path11008"
         style="fill:#55d8d5;fill-opacity:1;fill-rule:nonzero;stroke:none" />
    </g>
  </g>
</svg>
