<?xml version="1.0" encoding="UTF-8" standalone="no"?>
<!-- Created with Inkscape (http://www.inkscape.org/) -->

<svg
   xmlns:dc="http://purl.org/dc/elements/1.1/"
   xmlns:cc="http://creativecommons.org/ns#"
   xmlns:rdf="http://www.w3.org/1999/02/22-rdf-syntax-ns#"
   xmlns:svg="http://www.w3.org/2000/svg"
   xmlns="http://www.w3.org/2000/svg"
   version="1.1"
   width="442.07999"
   height="609.2912"
   id="svg3452"
   viewBox="0 0 442.07999 609.2912">
  <defs
     id="defs3454">
    <clipPath
       id="clipPath3966">
      <path
         d="M -313.14286,0 768,0 l 0,650 -1081.14286,0 0,-650 z"
         id="path3968" />
    </clipPath>
  </defs>
  <metadata
     id="metadata3457">
    <rdf:RDF>
      <cc:Work
         rdf:about="">
        <dc:format>image/svg+xml</dc:format>
        <dc:type
           rdf:resource="http://purl.org/dc/dcmitype/StillImage" />
        <dc:title></dc:title>
      </cc:Work>
    </rdf:RDF>
  </metadata>
  <g
     transform="translate(304.04922,280.99334)"
     id="layer1">
    <g
       transform="matrix(1.25,0,0,-1.25,138.03075,308.19537)"
       id="g42">
      <path
         d="m 0,0 c 0,-8.88 -62.357,-16.082 -139.304,-16.082 -76.93,0 -139.3,7.202 -139.3,16.082 0,8.874 62.37,16.082 139.3,16.082 C -62.357,16.082 0,8.874 0,0"
         id="path44"
         style="fill:#0b928e;fill-opacity:1;fill-rule:nonzero;stroke:none" />
    </g>
    <g
       transform="matrix(1.25,0,0,-1.25,135.09738,73.314983)"
       id="g46">
      <path
         d="m 0,0 c -0.366,1.609 -0.792,3.222 -1.28,4.834 -6.816,22.502 -23.299,40.242 -31.97,61.908 -2.73,6.829 -12.094,38.708 -22.129,38.079 17.465,1.136 12.034,28.904 -11.76,42.462 18.23,0 -1.673,28.062 -38.958,41.065 -43.541,15.195 -80.776,10.895 -127.528,-4.098 -101.571,-32.568 -115.282,-155.076 -70.009,-115.08 -20.342,-36.277 -28.895,-103.983 20.596,-45.119 -23.786,-37.129 -26.846,-104.944 2.028,-48.086 -15.085,-55.596 -5.433,-71.711 9.618,-42.038 -1.085,-11.06 16.555,-48.035 47.524,-59.087 -10.41,-35.622 -76.547,-70 -2.535,-65.19 63.33,4.127 76.088,22.875 90.007,33.051 18.831,-22.138 52.009,-37.147 121.844,-29.208 31.793,3.594 -21.939,34.583 -41.703,61.157 18.248,13.696 30.434,34.302 41.28,53.959 C -2.847,-49.416 5.669,-24.89 0,0"
         id="path48"
         style="fill:#603090;fill-opacity:1;fill-rule:nonzero;stroke:none" />
    </g>
    <g
       transform="matrix(1.25,0,0,-1.25,-82.723752,-168.731)"
       id="g50">
      <path
         d="m 0,0 c 1.747,-0.107 76.637,3.047 96.412,11.984 19.776,8.958 -4.687,33.863 -94.281,23.433 24.363,17.434 40.14,37.577 44.09,47.841 3.921,10.257 -64.95,17.678 -101.068,-52.257 -20.187,4.506 -66.508,9.688 -92.299,-1.236 -25.79,-10.9 -26.623,-43.13 27.803,-34.943 -30.005,-11.634 -78.237,-57.191 -48.262,-53.275 29.974,3.921 38.121,14.866 88.7,29.501 C -25.947,-13.637 -9.47,0.582 0,0"
         id="path52"
         style="fill:#603090;fill-opacity:1;fill-rule:nonzero;stroke:none" />
    </g>
    <g
       transform="matrix(1.25,0,0,-1.25,-104.12012,-172.90513)"
       id="g54">
      <path
         d="m 0,0 c 1.125,-0.058 46.296,8.101 59.104,13.889 12.817,5.804 -15.809,20.274 -67.54,5.648 15.79,11.283 32.635,25.267 35.19,31.904 2.541,6.645 -42.231,2.939 -65.63,-42.372 -13.076,2.911 -42.964,14.784 -59.669,7.718 -16.716,-7.075 -2.985,-23.226 32.275,-17.929 -33.054,-6.25 -62.023,-33.141 -43.501,-32.588 0,0 25.227,5.644 57.997,15.113 C -17.467,-8.69 -6.146,0.388 0,0"
         id="path56"
         style="fill:#ebe74d;fill-opacity:1;fill-rule:nonzero;stroke:none" />
    </g>
    <g
       transform="matrix(1.25,0,0,-1.25,-209.94537,-132.46876)"
       id="g58">
      <path
         d="m 0,0 c 0,0 -1.149,-14.351 7.272,-18.613 4.848,-2.449 73.703,38.789 127.938,36.29 -0.009,6.638 -4.86,22.138 -12.553,21.747 C 114.96,39.019 36.839,34.18 0,0"
         id="path60"
         style="fill:#ed3d57;fill-opacity:1;fill-rule:nonzero;stroke:none" />
    </g>
    <g
       transform="matrix(1.25,0,0,-1.25,-25.823122,218.34174)"
       id="g62">
      <path
         d="m 0,0 c 0,0 -1.771,-0.251 -4.868,-0.689 -0.776,-0.105 -1.633,-0.221 -2.567,-0.348 -0.941,-0.08 -1.959,-0.167 -3.044,-0.26 -2.177,-0.17 -4.636,-0.446 -7.325,-0.437 -1.344,-0.03 -2.745,-0.059 -4.195,-0.09 -1.449,-0.019 -2.947,0.074 -4.488,0.108 -0.771,0.025 -1.552,0.049 -2.343,0.073 -0.396,0.013 -0.794,0.026 -1.194,0.039 -0.399,0.033 -0.8,0.067 -1.204,0.101 -1.613,0.149 -3.261,0.3 -4.937,0.454 -0.84,0.064 -1.682,0.175 -2.525,0.313 -0.846,0.127 -1.698,0.255 -2.555,0.382 -1.713,0.261 -3.454,0.484 -5.179,0.883 -1.732,0.359 -3.478,0.72 -5.231,1.083 -1.73,0.46 -3.467,0.923 -5.204,1.385 -1.747,0.431 -3.431,1.071 -5.131,1.632 -1.695,0.58 -3.398,1.111 -5.023,1.819 -1.638,0.666 -3.263,1.328 -4.87,1.982 -1.565,0.747 -3.111,1.484 -4.632,2.211 -1.538,0.69 -2.975,1.518 -4.384,2.32 -0.705,0.4 -1.403,0.796 -2.092,1.186 -0.692,0.386 -1.372,0.772 -2.009,1.21 -2.575,1.705 -5.07,3.219 -7.181,4.899 -1.075,0.807 -2.106,1.581 -3.087,2.317 -0.948,0.777 -1.808,1.562 -2.637,2.273 -0.823,0.717 -1.593,1.388 -2.305,2.009 -0.726,0.604 -1.301,1.262 -1.868,1.8 -2.204,2.223 -3.464,3.492 -3.464,3.492 0,0 1.332,-1.192 3.661,-3.278 0.591,-0.51 1.192,-1.136 1.943,-1.704 0.738,-0.584 1.536,-1.215 2.388,-1.89 0.857,-0.668 1.746,-1.406 2.723,-2.132 0.996,-0.7 2.044,-1.436 3.137,-2.204 2.137,-1.604 4.658,-3.035 7.252,-4.648 0.642,-0.415 1.327,-0.777 2.023,-1.14 0.692,-0.367 1.394,-0.738 2.102,-1.114 1.423,-0.738 2.835,-1.573 4.369,-2.232 1.509,-0.703 3.045,-1.418 4.598,-2.142 1.595,-0.631 3.208,-1.269 4.834,-1.913 1.611,-0.685 3.301,-1.193 4.981,-1.751 1.684,-0.539 3.354,-1.151 5.084,-1.567 1.712,-0.473 3.425,-0.947 5.131,-1.418 1.729,-0.375 3.453,-0.749 5.163,-1.119 1.702,-0.412 3.424,-0.649 5.117,-0.922 0.847,-0.135 1.688,-0.27 2.524,-0.403 0.835,-0.145 1.667,-0.263 2.498,-0.334 1.659,-0.177 3.289,-0.351 4.885,-0.522 0.4,-0.046 0.796,-0.091 1.191,-0.136 0.396,-0.023 0.79,-0.047 1.181,-0.07 0.783,-0.048 1.557,-0.094 2.32,-0.14 1.528,-0.077 3.013,-0.213 4.453,-0.235 1.44,-0.01 2.832,-0.02 4.168,-0.029 2.676,-0.068 5.118,0.086 7.292,0.151 1.086,0.041 2.103,0.08 3.044,0.116 0.938,0.083 1.801,0.158 2.58,0.228 C -1.782,-0.146 0,0 0,0"
         id="path64"
         style="fill:#402667;fill-opacity:1;fill-rule:nonzero;stroke:none" />
    </g>
    <g
       transform="matrix(1.25,0,0,-1.25,-209.79162,123.07574)"
       id="g66">
      <path
         d="m 0,0 c -0.787,-2.503 -0.224,-49.857 1.652,-62.988 3.521,-24.648 18.272,-30.346 19.599,-16.401 7.239,-11.254 17.422,-11.343 25.423,-13.212 10.191,-2.365 13.448,3.632 7.107,5.389 19.063,-2.967 28.1,-0.491 35.112,2.11 7.029,2.602 12.656,10.006 -2,11.986 29.959,7.036 70.524,53.97 71.242,61.833 0.717,7.866 -20.753,-10.728 -23.123,-14.338 7.217,11.48 18.324,29.813 19.828,36.45 1.489,6.622 -22.751,-18.163 -28.679,-26.462 5.362,13.794 10.755,27.052 9.382,33.24 C 134.166,23.778 119.634,6.539 116.241,-1.839 107.46,-23.507 93.445,-60.61 56.465,-60.61 6.604,-60.61 8.648,-10.551 11.695,6.084 10.359,21.087 4.336,13.682 0,0"
         id="path68"
         style="fill:#402667;fill-opacity:1;fill-rule:nonzero;stroke:none" />
    </g>
    <g
       transform="matrix(1.25,0,0,-1.25,-76.893622,152.47512)"
       id="g70">
      <path
         d="M 0,0 C 0,0 21.128,26.129 20.576,11.449 19.975,-4.741 12.258,-6.913 8.41,-11.889"
         id="path72"
         style="fill:#0ea8a8;fill-opacity:1;fill-rule:nonzero;stroke:none" />
    </g>
    <g
       transform="matrix(1.25,0,0,-1.25,-139.27149,-123.07975)"
       id="g74">
      <path
         d="m 0,0 c 3.727,-0.672 7.467,-1.262 11.22,-1.736 3.754,-0.458 7.516,-0.862 11.286,-1.008 1.885,-0.072 3.77,-0.084 5.642,0.027 1.866,0.122 3.747,0.342 5.471,0.928 0.85,0.298 1.676,0.707 2.22,1.331 0.56,0.611 0.71,1.442 0.521,2.278 -0.172,0.838 -0.623,1.647 -1.119,2.407 -0.514,0.758 -1.111,1.47 -1.729,2.163 L 32.61,7.401 33.937,7.149 C 38.08,6.363 42.177,5.453 46.298,4.667 50.41,3.85 54.54,3.114 58.695,2.666 c 1.038,-0.104 2.078,-0.208 3.118,-0.259 1.041,-0.068 2.082,-0.094 3.119,-0.08 1.036,0.012 2.073,0.062 3.09,0.203 0.513,0.056 1.017,0.142 1.511,0.264 0.508,0.086 0.976,0.271 1.458,0.419 0.915,0.374 1.834,0.831 2.426,1.593 0.596,0.75 0.86,1.704 0.872,2.694 -0.06,0.991 -0.273,1.991 -0.643,2.95 -0.344,0.97 -0.833,1.886 -1.309,2.808 l -0.365,0.708 0.728,-0.282 c 1.527,-0.59 3.113,-1.028 4.73,-1.312 1.613,-0.282 3.261,-0.435 4.896,-0.331 0.817,0.053 1.632,0.167 2.407,0.411 0.386,0.123 0.763,0.278 1.095,0.501 0.338,0.211 0.633,0.499 0.787,0.858 0.162,0.356 0.164,0.767 0.069,1.156 -0.122,0.381 -0.289,0.759 -0.535,1.09 -0.227,0.34 -0.494,0.66 -0.783,0.953 -0.278,0.307 -0.595,0.575 -0.898,0.857 0.315,-0.268 0.642,-0.524 0.934,-0.82 0.303,-0.283 0.586,-0.593 0.831,-0.93 0.263,-0.327 0.455,-0.708 0.6,-1.108 0.116,-0.409 0.13,-0.866 -0.039,-1.274 -0.163,-0.411 -0.481,-0.737 -0.835,-0.974 -0.35,-0.25 -0.741,-0.425 -1.139,-0.566 -0.799,-0.278 -1.632,-0.421 -2.466,-0.501 -1.67,-0.158 -3.351,-0.056 -5.005,0.184 -1.654,0.258 -3.283,0.674 -4.86,1.25 l 0.364,0.426 c 0.505,-0.935 1.025,-1.865 1.405,-2.873 0.404,-0.994 0.661,-2.06 0.744,-3.165 C 75.018,6.404 74.729,5.242 74.022,4.324 73.316,3.393 72.287,2.864 71.288,2.434 70.771,2.26 70.256,2.064 69.726,1.968 69.199,1.835 68.67,1.742 68.137,1.68 67.074,1.526 66.008,1.468 64.945,1.45 63.883,1.428 62.82,1.449 61.765,1.511 60.706,1.557 59.653,1.655 58.602,1.753 54.396,2.18 50.239,2.895 46.106,3.689 41.978,4.504 37.875,5.442 33.767,6.248 l 0.424,0.759 C 34.828,6.284 35.446,5.539 35.99,4.725 36.518,3.903 37.014,3.025 37.225,2 c 0.11,-0.508 0.12,-1.056 0.013,-1.593 -0.117,-0.54 -0.399,-1.033 -0.75,-1.436 -0.722,-0.805 -1.669,-1.238 -2.592,-1.56 -1.875,-0.623 -3.803,-0.783 -5.709,-0.879 -1.91,-0.077 -3.814,-0.03 -5.712,0.079 -3.794,0.226 -7.566,0.671 -11.31,1.267 C 7.422,-1.527 3.693,-0.843 0,0"
         id="path76"
         style="fill:#402667;fill-opacity:1;fill-rule:nonzero;stroke:none" />
    </g>
    <g
       transform="matrix(1.25,0,0,-1.25,84.320998,90.364493)"
       id="g78">
      <path
         d="m 0,0 c -5.133,-1.271 -15.779,-3.252 -16.22,-10.261 -0.228,-3.603 3.747,-7.503 3.854,-11.556 0.117,-4.455 -1.854,-8.576 -4.725,-11.889 -4.344,-5.012 -10.723,-5.175 -16.676,-2.705 -6.866,2.85 -8.031,9.658 -7.085,16.307 1.331,9.326 24.667,19.295 28.195,20.203 C -8.592,1.145 -2.584,-0.64 0,0"
         id="path80"
         style="fill:#402667;fill-opacity:1;fill-rule:nonzero;stroke:none" />
    </g>
    <g
       transform="matrix(1.25,0,0,-1.25,-27.705372,-50.551007)"
       id="g82">
      <path
         d="m 0,0 c 0,0 0.073,-0.138 0.228,-0.401 0.13,-0.252 0.32,-0.618 0.584,-1.093 0.483,-0.938 1.161,-2.31 1.953,-4.075 0.798,-1.761 1.71,-3.933 2.63,-6.478 0.893,-2.536 1.826,-5.464 2.549,-8.764 0.685,-3.299 1.25,-6.997 1.091,-11.052 -0.069,-2.025 -0.337,-4.14 -0.933,-6.283 -0.564,-2.143 -1.501,-4.299 -2.83,-6.28 -0.668,-0.982 -1.427,-1.92 -2.276,-2.784 -0.837,-0.849 -1.773,-1.628 -2.748,-2.326 -0.99,-0.686 -2.021,-1.295 -3.081,-1.815 -0.679,-0.323 -0.93,-0.441 -1.571,-0.71 l -0.881,-0.336 -0.839,-0.301 c -4.519,-1.485 -9.272,-1.64 -13.744,-1.123 -4.502,0.531 -8.793,1.724 -12.827,3.235 -4.037,1.484 -7.837,3.299 -11.368,5.239 -7.08,3.909 -13.151,8.341 -18.023,12.465 -4.874,4.137 -8.519,8.004 -10.847,10.899 -1.16,1.436 -1.995,2.619 -2.543,3.446 -0.276,0.414 -0.479,0.73 -0.614,0.945 -0.138,0.215 -0.202,0.325 -0.202,0.325 0,0 0.073,-0.097 0.228,-0.308 0.149,-0.208 0.376,-0.516 0.677,-0.908 0.605,-0.776 1.517,-1.889 2.781,-3.236 2.5,-2.676 6.388,-6.256 11.494,-9.973 5.078,-3.726 11.357,-7.636 18.472,-10.911 3.561,-1.639 7.327,-3.118 11.24,-4.246 3.901,-1.14 7.944,-1.952 11.942,-2.13 3.99,-0.179 7.931,0.3 11.295,1.692 l 0.621,0.267 0.561,0.264 c 0.324,0.151 0.982,0.507 1.229,0.666 0.759,0.454 1.458,0.954 2.118,1.486 0.634,0.544 1.224,1.125 1.746,1.741 0.508,0.625 0.953,1.28 1.336,1.957 1.526,2.722 1.969,5.941 1.834,9.063 -0.136,3.142 -0.832,6.191 -1.668,8.958 -0.851,2.781 -1.879,5.297 -2.865,7.489 -0.994,2.197 -1.978,4.067 -2.817,5.594 -0.828,1.526 -1.538,2.691 -2.026,3.453 -0.234,0.378 -0.427,0.678 -0.544,0.866 -0.113,0.17 -0.166,0.259 -0.166,0.259 0,0 -1.72,4.258 2.18,6.649 C -2.573,3.917 0,0 0,0"
         id="path84"
         style="fill:#240742;fill-opacity:1;fill-rule:nonzero;stroke:none" />
    </g>
    <g
       transform="matrix(1.25,0,0,-1.25,10.119378,-49.708767)"
       id="g86">
      <path
         d="m 0,0 c 0,0 0.012,-0.036 0.044,-0.13 0.025,-0.097 0.082,-0.251 0.155,-0.446 0.138,-0.414 0.386,-1.023 0.706,-1.815 0.638,-1.571 1.627,-3.811 3.028,-6.384 1.385,-2.557 3.19,-5.472 5.493,-8.143 2.293,-2.666 5.15,-5.105 8.418,-6.116 0.795,-0.247 1.631,-0.403 2.463,-0.463 0.852,-0.057 1.717,-0.029 2.516,0.113 1.393,0.208 2.887,1.019 3.983,2.257 1.132,1.218 1.984,2.765 2.622,4.327 0.625,1.563 1.055,3.15 1.344,4.627 0.592,2.996 0.682,5.581 0.657,7.392 -0.013,0.901 -0.053,1.606 -0.093,2.098 -0.044,0.491 -0.065,0.746 -0.065,0.746 0,0 0.065,-0.251 0.195,-0.729 0.121,-0.464 0.301,-1.165 0.474,-2.071 0.333,-1.793 0.714,-4.408 0.661,-7.61 -0.024,-1.607 -0.178,-3.357 -0.56,-5.204 -0.396,-1.859 -1.026,-3.845 -2.239,-5.752 -1.198,-1.92 -3.114,-3.706 -5.733,-4.635 -1.197,-0.446 -2.438,-0.653 -3.688,-0.731 -1.259,-0.089 -2.537,-0.027 -3.792,0.179 -2.504,0.402 -4.842,1.344 -6.907,2.51 -2.076,1.155 -3.893,2.543 -5.526,3.972 -3.238,2.862 -5.743,5.922 -7.723,8.594 -1.981,2.702 -3.439,5.06 -4.42,6.745 -0.488,0.853 -0.857,1.526 -1.117,2.001 -0.264,0.52 -0.406,0.784 -0.406,0.784 0,0 -2.772,4.968 2.285,6.335 C -3.733,3.39 0,0 0,0"
         id="path88"
         style="fill:#240742;fill-opacity:1;fill-rule:nonzero;stroke:none" />
    </g>
  </g>
</svg>
