<?xml version="1.0" encoding="UTF-8" standalone="no"?>
<!-- Created with Inkscape (http://www.inkscape.org/) -->

<svg
   xmlns:dc="http://purl.org/dc/elements/1.1/"
   xmlns:cc="http://creativecommons.org/ns#"
   xmlns:rdf="http://www.w3.org/1999/02/22-rdf-syntax-ns#"
   xmlns:svg="http://www.w3.org/2000/svg"
   xmlns="http://www.w3.org/2000/svg"
   version="1.1"
   width="542.10919"
   height="400.23862"
   id="svg16285"
   viewBox="0 0 542.10919 400.23862">
  <defs
     id="defs16287" />
  <metadata
     id="metadata16290">
    <rdf:RDF>
      <cc:Work
         rdf:about="">
        <dc:format>image/svg+xml</dc:format>
        <dc:type
           rdf:resource="http://purl.org/dc/dcmitype/StillImage" />
        <dc:title></dc:title>
      </cc:Work>
    </rdf:RDF>
  </metadata>
  <g
     transform="translate(-137.51684,-212.24287)"
     id="layer1">
    <g
       transform="matrix(1.25,0,0,-1.25,679.62603,411.05134)"
       id="g1464">
      <path
         d="m 0,0 c 0,-77.78 -64.149,-140.834 -143.282,-140.834 -79.133,0 -143.283,63.054 -143.283,140.834 0,77.781 64.15,140.835 143.283,140.835 C -64.149,140.835 0,77.781 0,0"
         id="path1466"
         style="fill:#bcb01b;fill-opacity:1;fill-rule:nonzero;stroke:none" />
    </g>
    <g
       transform="matrix(1.25,0,0,-1.25,656.76103,419.61944)"
       id="g1468">
      <path
         d="m 0,0 c -3.503,-70.536 -60.368,-125.036 -127.011,-121.727 -66.645,3.31 -117.83,63.172 -114.329,133.709 3.502,70.536 60.368,125.035 127.01,121.726 C -47.686,130.398 3.501,70.536 0,0"
         id="path1470"
         style="fill:#d1c930;fill-opacity:1;fill-rule:nonzero;stroke:none" />
    </g>
    <g
       transform="matrix(1.25,0,0,-1.25,517.44276,278.20834)"
       id="g1472">
      <path
         d="m 0,0 c 0,-5.011 -4.062,-9.072 -9.072,-9.072 -5.01,0 -9.072,4.061 -9.072,9.072 0,5.011 4.062,9.071 9.072,9.071 C -4.062,9.071 0,5.011 0,0"
         id="path1474"
         style="fill:#e8dc6b;fill-opacity:1;fill-rule:nonzero;stroke:none" />
    </g>
    <g
       transform="matrix(1.25,0,0,-1.25,645.96513,409.96974)"
       id="g1476">
      <path
         d="m 0,0 c 0,-5.011 -4.062,-9.073 -9.072,-9.073 -5.011,0 -9.072,4.062 -9.072,9.073 0,5.01 4.061,9.071 9.072,9.071 C -4.062,9.071 0,5.01 0,0"
         id="path1478"
         style="fill:#e8dc6b;fill-opacity:1;fill-rule:nonzero;stroke:none" />
    </g>
    <g
       transform="matrix(1.25,0,0,-1.25,519.60351,551.45414)"
       id="g1480">
      <path
         d="m 0,0 c 0,-5.01 -4.062,-9.071 -9.072,-9.071 -5.011,0 -9.073,4.061 -9.073,9.071 0,5.011 4.062,9.073 9.073,9.073 C -4.062,9.073 0,5.011 0,0"
         id="path1482"
         style="fill:#e8dc6b;fill-opacity:1;fill-rule:nonzero;stroke:none" />
    </g>
    <g
       transform="matrix(1.25,0,0,-1.25,554.16401,289.00914)"
       id="g1484">
      <path
         d="m 0,0 c 0,-2.624 -2.128,-4.752 -4.752,-4.752 -2.624,0 -4.752,2.128 -4.752,4.752 0,2.624 2.128,4.752 4.752,4.752 C -2.128,4.752 0,2.624 0,0"
         id="path1486"
         style="fill:#754d9e;fill-opacity:1;fill-rule:nonzero;stroke:none" />
    </g>
    <g
       transform="matrix(1.25,0,0,-1.25,586.56393,308.44874)"
       id="g1488">
      <path
         d="m 0,0 c 0,-2.624 -2.128,-4.752 -4.752,-4.752 -2.624,0 -4.752,2.128 -4.752,4.752 0,2.624 2.128,4.753 4.752,4.753 C -2.128,4.753 0,2.624 0,0"
         id="path1490"
         style="fill:#e8dc6b;fill-opacity:1;fill-rule:nonzero;stroke:none" />
    </g>
    <g
       transform="matrix(1.25,0,0,-1.25,613.56463,338.68924)"
       id="g1492">
      <path
         d="m 0,0 c 0,-2.624 -2.128,-4.752 -4.752,-4.752 -2.624,0 -4.752,2.128 -4.752,4.752 0,2.625 2.128,4.753 4.752,4.753 C -2.128,4.753 0,2.625 0,0"
         id="path1494"
         style="fill:#e8dc6b;fill-opacity:1;fill-rule:nonzero;stroke:none" />
    </g>
    <g
       transform="matrix(1.25,0,0,-1.25,630.84553,372.17074)"
       id="g1496">
      <path
         d="m 0,0 c 0,-2.624 -2.128,-4.752 -4.752,-4.752 -2.625,0 -4.753,2.128 -4.753,4.752 0,2.625 2.128,4.753 4.753,4.753 C -2.128,4.753 0,2.625 0,0"
         id="path1498"
         style="fill:#e8dc6b;fill-opacity:1;fill-rule:nonzero;stroke:none" />
    </g>
    <g
       transform="matrix(1.25,0,0,-1.25,624.26713,459.05064)"
       id="g1500">
      <path
         d="m 0,0 c -2.615,-0.214 -4.911,1.732 -5.126,4.348 -0.215,2.615 1.731,4.91 4.345,5.125 C 1.836,9.688 4.13,7.742 4.346,5.127 4.56,2.511 2.615,0.216 0,0"
         id="path1502"
         style="fill:#e8dc6b;fill-opacity:1;fill-rule:nonzero;stroke:none" />
    </g>
    <g
       transform="matrix(1.25,0,0,-1.25,607.55023,492.93604)"
       id="g1504">
      <path
         d="M 0,0 C -2.615,-0.215 -4.91,1.731 -5.126,4.347 -5.341,6.961 -3.395,9.257 -0.78,9.472 1.835,9.688 4.131,7.741 4.346,5.126 4.562,2.511 2.616,0.215 0,0"
         id="path1506"
         style="fill:#e8dc6b;fill-opacity:1;fill-rule:nonzero;stroke:none" />
    </g>
    <g
       transform="matrix(1.25,0,0,-1.25,579.62603,522.32574)"
       id="g1508">
      <path
         d="m 0,0 c -2.615,-0.216 -4.911,1.73 -5.125,4.346 -0.216,2.615 1.73,4.911 4.346,5.126 C 1.835,9.687 4.131,7.74 4.346,5.126 4.562,2.511 2.615,0.216 0,0"
         id="path1510"
         style="fill:#e8dc6b;fill-opacity:1;fill-rule:nonzero;stroke:none" />
    </g>
    <g
       transform="matrix(1.25,0,0,-1.25,547.67539,542.29394)"
       id="g1512">
      <path
         d="m 0,0 c -2.615,-0.216 -4.91,1.731 -5.125,4.346 -0.216,2.615 1.73,4.91 4.345,5.126 C 1.836,9.687 4.131,7.74 4.347,5.126 4.561,2.512 2.616,0.216 0,0"
         id="path1514"
         style="fill:#e8dc6b;fill-opacity:1;fill-rule:nonzero;stroke:none" />
    </g>
    <g
       transform="matrix(1.25,0,0,-1.25,462.92564,550.67044)"
       id="g1516">
      <path
         d="M 0,0 C 2.62,-0.124 4.846,1.901 4.969,4.524 5.095,7.145 3.068,9.369 0.449,9.494 -2.174,9.619 -4.399,7.594 -4.525,4.974 -4.647,2.351 -2.623,0.125 0,0"
         id="path1518"
         style="fill:#e8dc6b;fill-opacity:1;fill-rule:nonzero;stroke:none" />
    </g>
    <g
       transform="matrix(1.25,0,0,-1.25,509.34289,409.61084)"
       id="g1520">
      <path
         d="m 0,0 c 0,-5.09 -4.125,-9.217 -9.215,-9.217 -5.091,0 -9.217,4.127 -9.217,9.217 0,5.09 4.126,9.216 9.217,9.216 C -4.125,9.216 0,5.09 0,0"
         id="path1522"
         style="fill:#a5960a;fill-opacity:1;fill-rule:nonzero;stroke:none" />
    </g>
    <g
       transform="matrix(1.25,0,0,-1.25,497.96401,408.59414)"
       id="g1524">
      <path
         d="M 0,0 26.892,110.59 48.021,135.192 48.664,99.794 0,0 z"
         id="path1526"
         style="fill:#a5960a;fill-opacity:1;fill-rule:nonzero;stroke:none" />
    </g>
    <g
       transform="matrix(1.25,0,0,-1.25,499.34651,417.34164)"
       id="g1528">
      <path
         d="M 0,0 46.762,-53.975 54.558,-87.135 25.933,-66.303 0,0 z"
         id="path1530"
         style="fill:#a5960a;fill-opacity:1;fill-rule:nonzero;stroke:none" />
    </g>
    <g
       transform="matrix(1.25,0,0,-1.25,471.00301,279.28864)"
       id="g1532">
      <path
         d="m 0,0 c 0,-2.624 -2.128,-4.752 -4.752,-4.752 -2.624,0 -4.752,2.128 -4.752,4.752 0,2.624 2.128,4.752 4.752,4.752 C -2.128,4.752 0,2.624 0,0"
         id="path1534"
         style="fill:#e8dc6b;fill-opacity:1;fill-rule:nonzero;stroke:none" />
    </g>
    <g
       transform="matrix(1.25,0,0,-1.25,645.42443,602.08774)"
       id="g1572">
      <path
         d="m 0,0 c 0,-4.59 -74.607,-8.315 -166.642,-8.315 -92.013,0 -166.621,3.725 -166.621,8.315 0,4.592 74.608,8.312 166.621,8.312 C -74.607,8.312 0,4.592 0,0"
         id="path1574"
         style="fill:#d1c930;fill-opacity:1;fill-rule:nonzero;stroke:none" />
    </g>
    <g
       id="monstruo">
      <g
         transform="matrix(1.25,0,0,-1.25,434.28176,296.57014)"
         id="g1536">
        <path
           d="m 0,0 c 0,-2.623 -2.128,-4.75 -4.752,-4.75 -2.624,0 -4.752,2.127 -4.752,4.75 0,2.625 2.128,4.753 4.752,4.753 C -2.128,4.753 0,2.625 0,0"
           id="path1538"
           style="fill:#e8dc6b;fill-opacity:1;fill-rule:nonzero;stroke:none" />
      </g>
      <g
         transform="matrix(1.25,0,0,-1.25,409.44114,322.48814)"
         id="g1540">
        <path
           d="m 0,0 c 0,-2.625 -2.128,-4.753 -4.752,-4.753 -2.624,0 -4.752,2.128 -4.752,4.753 0,2.623 2.128,4.751 4.752,4.751 C -2.128,4.751 0,2.623 0,0"
           id="path1542"
           style="fill:#e8dc6b;fill-opacity:1;fill-rule:nonzero;stroke:none" />
      </g>
      <g
         transform="matrix(1.25,0,0,-1.25,387.84077,354.88924)"
         id="g1544">
        <path
           d="m 0,0 c 0,-2.625 -2.128,-4.753 -4.752,-4.753 -2.624,0 -4.752,2.128 -4.752,4.753 0,2.624 2.128,4.752 4.752,4.752 C -2.128,4.752 0,2.624 0,0"
           id="path1546"
           style="fill:#e8dc6b;fill-opacity:1;fill-rule:nonzero;stroke:none" />
      </g>
      <g
         transform="matrix(1.25,0,0,-1.25,397.45377,484.43764)"
         id="g1548">
        <path
           d="M 0,0 C 0,0 16.841,-32.453 42.569,-24.738 68.298,-17.019 62.761,7.257 55.994,17.794 49.226,28.336 40.939,43.882 54.824,40.354 68.704,36.825 79.836,19.952 82.475,5.006 85.107,-9.946 80.521,-35.794 58.798,-45.413 38.165,-54.552 16.403,-44.646 -4.393,-9.936 -0.396,-1.351 0,0 0,0"
           id="path1550"
           style="fill:#ee3d57;fill-opacity:1;fill-rule:nonzero;stroke:none" />
      </g>
      <g
         transform="matrix(1.25,0,0,-1.25,497.67051,487.94714)"
         id="g1552">
        <path
           d="m 0,0 c -0.812,1.268 -5.72,2.77 -6.744,-0.148 -1.021,-2.917 0.908,-2.961 2.606,-3.289 1.697,-0.323 3.759,-2.667 3.869,-5.028 C -0.154,-10.94 3.476,-5.421 0,0"
           id="path1554"
           style="fill:#602f91;fill-opacity:1;fill-rule:nonzero;stroke:none" />
      </g>
      <g
         transform="matrix(1.25,0,0,-1.25,383.47739,470.14564)"
         id="g1556">
        <path
           d="M 0,0 C 2.622,-0.123 4.848,1.901 4.971,4.522 5.096,7.144 3.07,9.37 0.45,9.494 -2.173,9.618 -4.398,7.593 -4.521,4.972 -4.646,2.35 -2.621,0.124 0,0"
           id="path1558"
           style="fill:#754d9e;fill-opacity:1;fill-rule:nonzero;stroke:none" />
      </g>
      <g
         transform="matrix(1.25,0,0,-1.25,401.36677,503.42794)"
         id="g1560">
        <path
           d="M 0,0 C 2.621,-0.125 4.847,1.901 4.97,4.521 5.095,7.143 3.069,9.369 0.449,9.492 -2.174,9.617 -4.399,7.592 -4.523,4.97 -4.647,2.352 -2.623,0.123 0,0"
           id="path1562"
           style="fill:#754d9e;fill-opacity:1;fill-rule:nonzero;stroke:none" />
      </g>
      <g
         transform="matrix(1.25,0,0,-1.25,430.29739,531.82644)"
         id="g1564">
        <path
           d="M 0,0 C 2.62,-0.125 4.848,1.901 4.971,4.521 5.095,7.141 3.07,9.368 0.449,9.492 -2.172,9.617 -4.399,7.592 -4.523,4.971 -4.647,2.349 -2.621,0.124 0,0"
           id="path1566"
           style="fill:#754d9e;fill-opacity:1;fill-rule:nonzero;stroke:none" />
      </g>
      <g
         transform="matrix(1.25,0,0,-1.25,425.64352,363.83934)"
         id="g1568">
        <path
           d="m 0,0 c 0,0 -42.098,-52.048 -30.27,-67.507 7.207,-9.422 66.851,9.165 44.128,-14.202 -25.163,-34.134 -119.244,-64.528 -150.502,1.819 -31.268,66.352 -15.669,98.259 -3.709,110.968 C -128.391,43.788 -107.484,-27.114 0,0"
           id="path1570"
           style="fill:#c42d4b;fill-opacity:1;fill-rule:nonzero;stroke:none" />
      </g>
      <g
         transform="matrix(1.25,0,0,-1.25,341.28926,489.65234)"
         id="g1576">
        <path
           d="m 0,0 c -60.652,0.138 -70.904,31.813 -76.607,52.285 -7.525,26.984 -2.54,59.563 5.909,62.813 7.985,3.07 18.718,-34.27 41.063,-37.322 20.041,-2.732 68.172,-4.842 79.74,1.944 11.565,6.781 19.485,19.647 22.969,28.665 13.478,34.917 1.186,75.209 -23.164,98.748 -24.343,23.543 -74.036,20.718 -115.437,-21.052 -14.879,-15.014 -39.211,-48.627 -30.666,-114.955 6.936,-53.769 47.109,-78.57 49.052,-109.21 0.844,-13.345 -6.932,-35.52 -36.137,-27.492 -32.825,9.011 -28.857,-5.908 -12.527,-14.749 9.189,-4.975 46.032,-12.476 85.054,-1.884 66.671,18.105 91.455,58.969 96.808,98.555 0.624,4.622 0.688,8.575 0.313,11.939 C 78.036,14.145 55.541,-0.122 0,0"
           id="path1578"
           style="fill:#ee3d57;fill-opacity:1;fill-rule:nonzero;stroke:none" />
      </g>
      <g
         transform="matrix(1.25,0,0,-1.25,414.67176,473.19124)"
         id="g1580">
        <path
           d="M 0,0 C 0,0 11.605,0.089 18.901,11.076 18.955,26.533 -0.055,53.884 -7.876,45.561 -14.365,38.66 -11.948,6.133 0,0"
           id="path1582"
           style="fill:#fffad5;fill-opacity:1;fill-rule:nonzero;stroke:none" />
      </g>
      <g
         transform="matrix(1.25,0,0,-1.25,277.02714,383.04344)"
         id="g1584">
        <path
           d="M 0,0 C 0,0 8.514,-10.648 21.25,-11.35 25.131,-27.084 11.812,-58.489 1.784,-51.944 -6.534,-46.519 -10.651,-9.213 0,0"
           id="path1586"
           style="fill:#fffad5;fill-opacity:1;fill-rule:nonzero;stroke:none" />
      </g>
      <g
         transform="matrix(1.25,0,0,-1.25,299.13226,479.46074)"
         id="g1588">
        <path
           d="M 0,0 C 0,0 -7.966,1.869 -12.818,6.511 -14.646,16.057 5.244,30.412 8.35,28.137 12.098,25.394 7.519,2.897 0,0"
           id="path1590"
           style="fill:#fffad5;fill-opacity:1;fill-rule:nonzero;stroke:none" />
      </g>
      <g
         transform="matrix(1.25,0,0,-1.25,400.24427,396.58234)"
         id="g1592">
        <path
           d="m 0,0 c 0,0 -7.044,-1.561 -13.68,-1.389 -3.152,-8.09 -0.451,-23.686 3.157,-24.289 C -5.189,-26.562 1.213,-7.224 0,0"
           id="path1594"
           style="fill:#fffad5;fill-opacity:1;fill-rule:nonzero;stroke:none" />
      </g>
      <g
         transform="matrix(1.25,0,0,-1.25,240.78139,327.73094)"
         id="g1596">
        <path
           d="M 0,0 C 0,0 0.312,0.411 0.892,1.089 1.183,1.422 1.636,1.771 2.151,2.19 2.413,2.396 2.724,2.541 3.042,2.736 3.363,2.928 3.711,3.112 4.107,3.227 4.498,3.348 4.903,3.531 5.345,3.611 5.787,3.688 6.252,3.739 6.734,3.803 7.215,3.788 7.71,3.773 8.216,3.759 8.723,3.729 9.214,3.58 9.731,3.484 c 0.53,-0.076 0.992,-0.321 1.5,-0.491 0.514,-0.167 0.985,-0.41 1.451,-0.675 0.978,-0.468 1.813,-1.139 2.689,-1.76 0.78,-0.714 1.625,-1.375 2.289,-2.163 0.352,-0.377 0.695,-0.756 1.028,-1.135 0.304,-0.398 0.605,-0.791 0.9,-1.178 0.608,-0.762 1.092,-1.564 1.553,-2.318 0.23,-0.378 0.466,-0.736 0.669,-1.098 0.187,-0.37 0.368,-0.728 0.542,-1.071 0.719,-1.356 1.178,-2.553 1.482,-3.396 0.311,-0.839 0.457,-1.33 0.457,-1.33 0,0 -0.359,0.376 -0.934,1.054 -0.285,0.34 -0.637,0.747 -1.012,1.229 -0.393,0.466 -0.837,0.993 -1.321,1.566 -0.469,0.581 -0.994,1.192 -1.554,1.826 -0.552,0.643 -1.136,1.312 -1.771,1.966 -0.308,0.335 -0.622,0.675 -0.939,1.018 -0.34,0.319 -0.677,0.645 -1.012,0.978 -0.655,0.688 -1.408,1.257 -2.112,1.892 -0.755,0.545 -1.483,1.15 -2.271,1.581 C 10.98,0.22 10.6,0.459 10.199,0.623 9.801,0.787 9.423,1.04 9.022,1.14 8.625,1.259 8.236,1.421 7.848,1.515 7.453,1.593 7.066,1.668 6.69,1.742 6.311,1.752 5.939,1.754 5.571,1.78 5.204,1.8 4.859,1.718 4.513,1.695 4.162,1.685 3.848,1.58 3.537,1.5 3.231,1.415 2.912,1.368 2.649,1.261 2.136,1.021 1.628,0.886 1.239,0.664 0.463,0.226 0,0 0,0"
           id="path1598"
           style="fill:#c42d4b;fill-opacity:1;fill-rule:nonzero;stroke:none" />
      </g>
      <g
         transform="matrix(1.25,0,0,-1.25,323.16852,316.14044)"
         id="g1600">
        <path
           d="M 0,0 C -8.412,-18.535 18.912,-48.002 31.282,-46.644 43.65,-45.28 64.301,-21.834 65.396,-7.346 66.495,7.145 35.176,27.538 26.103,24.308 17.027,21.084 3.982,8.747 0,0"
           id="path1602"
           style="fill:#fffad5;fill-opacity:1;fill-rule:nonzero;stroke:none" />
      </g>
      <g
         transform="matrix(1.25,0,0,-1.25,373.38089,349.92224)"
         id="g1604">
        <path
           d="m 0,0 c -9.029,-6.731 -25.058,5.763 -25.779,12.614 -0.719,6.852 6.403,19.574 14.105,21.877 C -3.968,36.79 10.743,22.262 10.068,16.979 9.393,11.689 4.264,3.183 0,0"
           id="path1606"
           style="fill:#602f91;fill-opacity:1;fill-rule:nonzero;stroke:none" />
      </g>
      <g
         transform="matrix(1.25,0,0,-1.25,385.04164,328.50734)"
         id="g1608">
        <path
           d="m 0,0 c -3.679,-4.57 -10.369,-5.289 -14.942,-1.611 -4.574,3.684 -5.295,10.38 -1.614,14.951 3.689,4.567 10.378,5.29 14.947,1.606 C 2.96,11.262 3.686,4.573 0,0"
           id="path1610"
           style="fill:#fffbdf;fill-opacity:1;fill-rule:nonzero;stroke:none" />
      </g>
      <g
         transform="matrix(1.25,0,0,-1.25,393.27901,287.01444)"
         id="g1612">
        <path
           d="m 0,0 c 0,0 0.215,-0.1 0.619,-0.286 0.399,-0.197 0.997,-0.458 1.73,-0.844 1.483,-0.749 3.58,-1.855 5.987,-3.407 1.203,-0.779 2.497,-1.651 3.783,-2.709 1.298,-1.035 2.635,-2.207 3.85,-3.613 1.217,-1.395 2.404,-2.962 3.283,-4.761 0.894,-1.788 1.533,-3.757 1.864,-5.765 0.31,-2.014 0.289,-4.046 0.08,-5.988 -0.189,-1.948 -0.638,-3.812 -1.16,-5.556 -0.49,-1.759 -1.161,-3.381 -1.805,-4.9 -0.655,-1.515 -1.352,-2.905 -2.039,-4.159 -0.663,-1.268 -1.351,-2.382 -1.955,-3.369 -0.618,-0.98 -1.167,-1.826 -1.643,-2.506 -0.952,-1.361 -1.527,-2.116 -1.527,-2.116 0,0 0.332,0.895 0.967,2.418 0.307,0.764 0.681,1.692 1.11,2.756 0.412,1.068 0.885,2.266 1.374,3.576 0.49,1.31 0.975,2.74 1.478,4.245 0.471,1.513 0.932,3.115 1.315,4.774 0.414,1.656 0.641,3.39 0.809,5.126 0.154,1.739 0.128,3.504 -0.165,5.207 -0.248,1.71 -0.749,3.369 -1.48,4.909 -0.737,1.534 -1.625,2.995 -2.664,4.309 -1.037,1.311 -2.139,2.536 -3.271,3.632 C 9.414,-7.928 8.295,-6.919 7.241,-6.003 5.117,-4.191 3.286,-2.704 2.006,-1.662 0.723,-0.619 0,0 0,0"
           id="path1614"
           style="fill:#c42d4b;fill-opacity:1;fill-rule:nonzero;stroke:none" />
      </g>
      <g
         transform="matrix(1.25,0,0,-1.25,312.46476,309.12874)"
         id="g1616">
        <path
           d="m 0,0 c 0,0 -0.22,-0.504 -0.655,-1.347 -0.22,-0.419 -0.479,-0.934 -0.807,-1.501 -0.294,-0.583 -0.597,-1.242 -0.968,-1.926 -0.383,-0.677 -0.682,-1.473 -1.063,-2.266 -0.414,-0.785 -0.651,-1.667 -1.016,-2.526 -0.232,-0.887 -0.578,-1.784 -0.672,-2.703 -0.08,-0.457 -0.166,-0.917 -0.155,-1.376 0.001,-0.458 -0.083,-0.92 0.005,-1.376 0.041,-0.917 0.247,-1.823 0.492,-2.721 0.163,-0.444 0.29,-0.892 0.453,-1.333 0.188,-0.439 0.373,-0.872 0.556,-1.299 0.423,-0.846 0.806,-1.685 1.252,-2.465 0.43,-0.796 0.836,-1.548 1.211,-2.241 0.775,-1.392 1.398,-2.592 1.813,-3.445 0.418,-0.852 0.626,-1.361 0.626,-1.361 0,0 -0.432,0.342 -1.135,0.978 -0.701,0.638 -1.694,1.554 -2.792,2.75 -0.556,0.594 -1.153,1.244 -1.734,1.991 -0.602,0.721 -1.168,1.565 -1.741,2.448 -0.259,0.468 -0.523,0.945 -0.79,1.426 -0.246,0.5 -0.45,1.039 -0.666,1.573 -0.386,1.096 -0.66,2.277 -0.737,3.491 -0.089,0.602 0.005,1.206 0.024,1.806 0.001,0.609 0.152,1.181 0.277,1.751 l 0.191,0.851 c 0.075,0.278 0.193,0.534 0.286,0.799 0.205,0.52 0.38,1.049 0.617,1.53 0.517,0.929 0.956,1.869 1.541,2.624 0.556,0.779 1.069,1.514 1.643,2.12 0.542,0.626 1.057,1.182 1.522,1.651 0.473,0.453 0.913,0.827 1.269,1.141 C -0.438,-0.333 0,0 0,0"
           id="path1618"
           style="fill:#c42d4b;fill-opacity:1;fill-rule:nonzero;stroke:none" />
      </g>
      <g
         transform="matrix(1.25,0,0,-1.25,279.36301,267.58574)"
         id="g1620">
        <path
           d="M 0,0 C -1.2,-1.713 -1.023,-4.416 1.179,-3.954 3.383,-3.502 6.507,-1.168 4.796,0.528 3.086,2.229 1.604,2.29 0,0"
           id="path1622"
           style="fill:#602f91;fill-opacity:1;fill-rule:nonzero;stroke:none" />
      </g>
      <g
         transform="matrix(1.25,0,0,-1.25,369.91777,222.30014)"
         id="g1624">
        <path
           d="m 0,0 c 3.146,0.647 9.607,-7.48 9.932,-0.965 -18.459,7.018 -42.768,4.558 -67.598,-8.843 7.319,1.714 15.226,1.369 16.015,-0.722 3.598,-9.609 -21.127,-18.481 -17.068,-27.411 5.891,-12.984 21.942,3.777 22.754,11.634 1.674,16.184 6.635,25.406 16.097,23.741 7.287,-1.277 -8.031,-8.848 -2.467,-15.587 5.034,-6.091 11.92,-2.321 9.329,3.812 -0.957,2.273 -2.452,3.784 1.009,5.866 3.451,2.069 7.807,-4.078 12.297,-9.911 4.538,-5.883 8.117,-9.452 13.26,-7.921 9.304,2.778 0.361,13.498 -11.974,17.596 C -6.535,-6.01 -5.882,-1.213 0,0"
           id="path1626"
           style="fill:#602f91;fill-opacity:1;fill-rule:nonzero;stroke:none" />
      </g>
      <g
         transform="matrix(1.25,0,0,-1.25,395.96701,236.45534)"
         id="g1628">
        <path
           d="m 0,0 c -1.583,-0.471 2.699,-2.448 3.857,-6.377 1.232,-4.197 0.456,-11.199 5.272,-11.054 5.549,0.165 2.946,5.413 0.105,9.503 C 6.402,-3.847 1.336,0.393 0,0"
           id="path1630"
           style="fill:#602f91;fill-opacity:1;fill-rule:nonzero;stroke:none" />
      </g>
      <g
         transform="matrix(1.25,0,0,-1.25,291.92401,250.26524)"
         id="g1632">
        <path
           d="m 0,0 c -1.482,-1.658 -2.425,-2.762 -1.787,-5.118 0.638,-2.358 -6.862,-2.678 -8.016,3.222 -1.154,5.905 5.321,6.817 7.222,6.053 C -0.684,3.403 1.3,1.446 0,0"
           id="path1634"
           style="fill:#602f91;fill-opacity:1;fill-rule:nonzero;stroke:none" />
      </g>
      <g
         transform="matrix(1.25,0,0,-1.25,422.30851,526.81914)"
         id="g1636">
        <path
           d="m 0,0 c -0.678,-2.846 -1.732,-5.629 -4.764,-6.105 -6.458,-1.026 -9.299,2.856 -9.927,6.062 -1.31,6.693 2.625,6.539 4.851,9.006 2.221,2.471 -0.688,8.74 -7.798,6.755 -7.11,-1.99 -5.69,-10.397 -3.78,-15.803 1.92,-5.408 -4.072,-11.97 -14.313,-11.147 -10.233,0.82 -26.886,-0.807 -22.942,-11.239 3.944,-10.436 25.157,-1.187 30.849,4.629 5.695,5.813 9.575,4.866 12.056,1.468 1.538,-2.114 0.921,-4.595 -0.606,-6.948 0.287,0.175 0.556,0.353 0.834,0.54 C -4.742,-13.309 2.326,-3.605 5.652,1.971 4.278,7.953 0.954,3.977 0,0"
           id="path1638"
           style="fill:#602f91;fill-opacity:1;fill-rule:nonzero;stroke:none" />
      </g>
      <g
         transform="matrix(1.25,0,0,-1.25,373.33451,519.23374)"
         id="g1640">
        <path
           d="M 0,0 C -4.819,1.593 -10.962,-0.697 -8.372,-5.495 -5.787,-10.282 1.792,-15.892 4.541,-10.747 7.292,-5.596 6.397,-2.117 0,0"
           id="path1642"
           style="fill:#602f91;fill-opacity:1;fill-rule:nonzero;stroke:none" />
      </g>
      <g
         transform="matrix(1.25,0,0,-1.25,421.23739,500.27244)"
         id="g1644">
        <path
           d="m 0,0 c 1.168,-2.632 -5.486,-9.28 -3.183,-11.405 2.293,-2.122 8.487,-1.236 9.548,3.539 C 7.424,-3.092 7.25,2.743 3.005,4.514 -1.241,6.284 -7.25,2.733 -6.014,0 -4.774,-2.735 -1.062,2.383 0,0"
           id="path1646"
           style="fill:#602f91;fill-opacity:1;fill-rule:nonzero;stroke:none" />
      </g>
      <g
         transform="matrix(1.25,0,0,-1.25,366.06764,513.86134)"
         id="g1648">
        <path
           d="M 0,0 C 1.186,-0.216 1.937,1.076 2.585,1.506 3.233,1.941 -0.324,4.092 -1.082,2.693 -1.829,1.289 -1.187,0.218 0,0"
           id="path1650"
           style="fill:#602f91;fill-opacity:1;fill-rule:nonzero;stroke:none" />
      </g>
      <g
         transform="matrix(1.25,0,0,-1.25,226.62189,571.65184)"
         id="g1652">
        <path
           d="m 0,0 c -2.019,-0.644 -3.542,-2.94 -1.481,-3.925 2.06,-0.99 6.015,-1.025 5.672,1.4 C 3.858,-0.104 2.7,0.861 0,0"
           id="path1654"
           style="fill:#602f91;fill-opacity:1;fill-rule:nonzero;stroke:none" />
      </g>
      <g
         transform="matrix(1.25,0,0,-1.25,217.02289,569.63044)"
         id="g1656">
        <path
           d="M 0,0 C -1.253,-0.395 -2.188,-1.81 -0.921,-2.419 0.356,-3.032 2.791,-3.055 2.586,-1.552 2.376,-0.055 1.661,0.534 0,0"
           id="path1658"
           style="fill:#602f91;fill-opacity:1;fill-rule:nonzero;stroke:none" />
      </g>
      <g
         transform="matrix(1.25,0,0,-1.25,352.21577,504.33134)"
         id="g1660">
        <path
           d="m 0,0 c 0,0 -0.853,-0.271 -2.354,-0.702 -1.511,-0.403 -3.697,-0.935 -6.355,-1.351 -1.331,-0.197 -2.776,-0.424 -4.318,-0.532 -1.539,-0.166 -3.171,-0.224 -4.861,-0.276 -1.688,0.033 -3.442,-0.031 -5.214,0.141 -1.777,0.091 -3.569,0.341 -5.365,0.552 -0.893,0.147 -1.78,0.331 -2.666,0.494 -0.888,0.153 -1.763,0.351 -2.626,0.575 -0.866,0.212 -1.724,0.419 -2.562,0.665 -0.829,0.271 -1.649,0.538 -2.455,0.802 -0.809,0.252 -1.598,0.521 -2.345,0.855 -0.753,0.311 -1.489,0.616 -2.206,0.913 -1.421,0.62 -2.713,1.323 -3.916,1.926 -1.183,0.652 -2.226,1.324 -3.158,1.893 -0.948,0.54 -1.684,1.166 -2.325,1.614 -1.259,0.935 -1.957,1.487 -1.957,1.487 0,0 0.828,-0.357 2.238,-1.012 0.711,-0.315 1.536,-0.764 2.544,-1.154 0.991,-0.412 2.11,-0.877 3.33,-1.385 1.237,-0.446 2.577,-0.93 3.994,-1.442 0.718,-0.222 1.455,-0.452 2.209,-0.685 0.377,-0.114 0.756,-0.236 1.136,-0.365 0.388,-0.104 0.78,-0.208 1.175,-0.314 0.79,-0.21 1.593,-0.424 2.405,-0.64 0.821,-0.182 1.652,-0.365 2.489,-0.549 0.833,-0.202 1.679,-0.377 2.538,-0.507 0.855,-0.144 1.713,-0.288 2.572,-0.433 1.726,-0.232 3.449,-0.508 5.163,-0.625 1.709,-0.178 3.399,-0.268 5.036,-0.373 1.639,-0.012 3.227,-0.128 4.735,-0.097 1.51,-0.013 2.938,0.025 4.261,0.049 1.324,0.054 2.538,0.103 3.613,0.146 1.079,0.064 2.019,0.121 2.794,0.167 C -0.894,-0.043 0,0 0,0"
           id="path1662"
           style="fill:#c42d4b;fill-opacity:1;fill-rule:nonzero;stroke:none" />
      </g>
      <g
         transform="matrix(1.25,0,0,-1.25,239.05051,434.28134)"
         id="g1664">
        <path
           d="m 0,0 c 0,0 -30.217,-20.586 -49.21,-1.596 -18.991,18.997 -2.604,37.744 8.35,43.813 10.956,6.073 25.624,15.83 11.726,19.308 C -43.027,65 -60.83,55.423 -70.241,43.514 -79.647,31.599 -87.865,6.667 -73.302,-12.102 c 13.833,-17.83 37.691,-19.427 72.459,1.271 C -0.291,-1.378 0,0 0,0"
           id="path1666"
           style="fill:#ee3d57;fill-opacity:1;fill-rule:nonzero;stroke:none" />
      </g>
      <g
         transform="matrix(1.25,0,0,-1.25,149.15302,389.85014)"
         id="g1668">
        <path
           d="M 0,0 C 1.316,0.73 6.349,-0.274 5.865,-3.328 5.382,-6.382 3.663,-5.506 2.013,-4.987 0.366,-4.468 -2.562,-5.555 -3.778,-7.581 -5.053,-9.706 -5.63,-3.126 0,0"
           id="path1670"
           style="fill:#602f91;fill-opacity:1;fill-rule:nonzero;stroke:none" />
      </g>
    </g>
  </g>
</svg>
