<?xml version="1.0" encoding="UTF-8" standalone="no"?>
<!-- Created with Inkscape (http://www.inkscape.org/) -->

<svg
   xmlns:dc="http://purl.org/dc/elements/1.1/"
   xmlns:cc="http://creativecommons.org/ns#"
   xmlns:rdf="http://www.w3.org/1999/02/22-rdf-syntax-ns#"
   xmlns:svg="http://www.w3.org/2000/svg"
   xmlns="http://www.w3.org/2000/svg"
   version="1.1"
   width="40"
   height="40"
   id="svg19081"
   viewBox="0 0 40 40">
  <defs
     id="defs19083" />
  <metadata
     id="metadata19086">
    <rdf:RDF>
      <cc:Work
         rdf:about="">
        <dc:format>image/svg+xml</dc:format>
        <dc:type
           rdf:resource="http://purl.org/dc/dcmitype/StillImage" />
        <dc:title></dc:title>
      </cc:Work>
    </rdf:RDF>
  </metadata>
  <g
     transform="translate(-461.32029,721.47639)"
     id="layer1">
    <g
       transform="matrix(0.83918006,0,0,-0.83918006,463.81915,-703.92107)"
       id="g4316">
      <path
         d="m 0,0 -1.774,-0.484 c 0.218,0.059 0.559,-0.561 0.755,-1.28 0.149,-0.545 0.17,-0.979 0.111,-1.306 0.218,-0.253 0.43,-0.672 0.579,-1.218 0.183,-0.666 0.197,-1.256 0.07,-1.551 0.26,-0.188 0.549,-0.714 0.731,-1.381 0.183,-0.667 0.202,-1.269 0.073,-1.564 0.261,-0.187 0.552,-0.72 0.733,-1.387 0.184,-0.667 0.202,-1.274 0.076,-1.567 0.258,-0.189 0.551,-0.723 0.733,-1.389 0.149,-0.546 0.189,-1.05 0.129,-1.377 0.219,-0.252 0.439,-0.706 0.59,-1.252 0.204,-0.752 0.203,-1.424 0.017,-1.661 L 4.624,-16.924 0,0 z"
         id="path4318"
         style="fill:#ffffff;fill-opacity:1;fill-rule:nonzero;stroke:none" />
    </g>
    <g
       transform="matrix(0.83918006,0,0,-0.83918006,498.94747,-698.25748)"
       id="g4320">
      <path
         d="M 0,0 1.648,0.451 C 1.375,0.592 1.051,1.151 0.854,1.871 0.705,2.417 0.665,2.921 0.725,3.249 0.507,3.501 0.285,3.956 0.135,4.5 -0.047,5.168 -0.066,5.776 0.059,6.069 -0.199,6.258 -0.49,6.792 -0.672,7.46 c -0.183,0.666 -0.203,1.274 -0.076,1.568 -0.26,0.188 -0.551,0.722 -0.733,1.389 -0.182,0.667 -0.203,1.274 -0.076,1.569 -0.258,0.189 -0.55,0.723 -0.732,1.39 -0.149,0.544 -0.19,1.05 -0.131,1.378 -0.217,0.251 -0.4,0.564 -0.549,1.109 -0.206,0.751 -0.213,1.456 0.02,1.52 L -4.626,16.925 0,0 z"
         id="path4322"
         style="fill:#ffffff;fill-opacity:1;fill-rule:nonzero;stroke:none" />
    </g>
    <g
       transform="matrix(0.83918006,0,0,-0.83918006,487.70792,-705.86991)"
       id="g4324">
      <path
         d="M 0,0 -0.231,0.847 4,2.004 4.231,1.157 2.54,0.694 4.62,-6.922 2.929,-7.385 0.847,0.232 0,0 z m -0.152,-2.77 0.231,-0.846 -1.691,-0.462 0.924,-3.385 2.539,0.693 0.231,-0.846 -4.231,-1.155 -2.313,8.462 3.386,0.925 0.231,-0.846 -1.693,-0.462 0.693,-2.539 1.693,0.461 z m -6.579,-1.796 0.562,3.791 1.295,0.353 -0.572,-4.418 3.071,-3.993 -1.392,-0.38 -2.732,3.8 -0.191,-0.052 1.156,-4.232 -0.847,-0.231 -2.311,8.462 0.845,0.233 0.925,-3.386 0.191,0.053 z m -4.339,1.212 c -0.169,0.207 -0.353,0.282 -0.552,0.227 -0.121,-0.033 -0.22,-0.085 -0.297,-0.156 -0.077,-0.071 -0.131,-0.171 -0.161,-0.301 -0.029,-0.129 0.211,-0.222 0.228,-0.416 0.019,-0.192 0.312,-0.358 0.387,-0.634 l 1.069,-3.917 c 0.075,-0.268 -0.097,-0.553 -0.023,-0.725 0.072,-0.17 0.03,-0.335 0.115,-0.428 0.087,-0.091 0.121,-0.163 0.225,-0.183 0.104,-0.02 0.191,-0.02 0.322,0.016 0.085,0.022 0.145,0.058 0.211,0.118 0.065,0.06 0.11,0.137 0.147,0.234 0.037,0.098 0.041,0.212 0.042,0.347 10e-4,0.135 -0.037,0.283 -0.083,0.455 l -0.172,0.634 0.845,0.231 0.161,-0.587 c 0.189,-0.692 0.353,-1.194 0.127,-1.607 -0.226,-0.415 -0.542,-0.68 -1.128,-0.844 -0.134,-0.036 -0.238,-0.053 -0.399,-0.073 -0.162,-0.021 -0.307,-0.011 -0.481,0.016 -0.177,0.028 -0.342,0.09 -0.519,0.179 -0.178,0.09 -0.345,0.228 -0.512,0.411 -0.166,0.179 -0.237,0.44 -0.387,0.731 -0.151,0.292 -0.199,0.676 -0.317,1.105 l -0.83,3.039 c -0.118,0.431 -0.269,0.788 -0.284,1.112 -0.017,0.325 -0.04,0.597 0.013,0.835 0.053,0.24 0.114,0.436 0.224,0.598 0.112,0.166 0.224,0.297 0.36,0.404 0.136,0.107 0.273,0.191 0.42,0.252 0.147,0.062 0.283,0.109 0.413,0.145 0.341,0.093 0.639,0.125 0.893,0.092 0.257,-0.033 0.475,-0.113 0.66,-0.242 0.184,-0.127 0.336,-0.294 0.456,-0.498 0.119,-0.205 0.21,-0.433 0.279,-0.68 0.05,-0.184 0.072,-0.302 0.097,-0.463 0.024,-0.16 0.079,-0.471 0.042,-0.481 l -1.059,-0.289 -0.09,0.326 c -0.129,0.472 -0.274,0.812 -0.442,1.017 m -2.927,-8.655 -2.313,8.463 0.846,0.23 2.314,-8.461 -0.847,-0.232 z m -7.158,6.228 -0.232,0.846 4.232,1.158 0.231,-0.847 -1.693,-0.463 2.082,-7.616 -0.847,-0.232 -2.082,7.617 -1.691,-0.463 z m -6.466,3.69 4.625,-16.925 35.543,9.713 -4.626,16.925 -35.542,-9.713 z"
         id="path4326"
         style="fill:#ffffff;fill-opacity:1;fill-rule:nonzero;stroke:none" />
    </g>
  </g>
</svg>
