<?xml version="1.0" encoding="UTF-8" standalone="no"?>
<!-- Created with Inkscape (http://www.inkscape.org/) -->

<svg
   xmlns:dc="http://purl.org/dc/elements/1.1/"
   xmlns:cc="http://creativecommons.org/ns#"
   xmlns:rdf="http://www.w3.org/1999/02/22-rdf-syntax-ns#"
   xmlns:svg="http://www.w3.org/2000/svg"
   xmlns="http://www.w3.org/2000/svg"
   version="1.1"
   width="40"
   height="40"
   id="svg29174"
   viewBox="0 0 40 40">
  <defs
     id="defs29176" />
  <metadata
     id="metadata29179">
    <rdf:RDF>
      <cc:Work
         rdf:about="">
        <dc:format>image/svg+xml</dc:format>
        <dc:type
           rdf:resource="http://purl.org/dc/dcmitype/StillImage" />
        <dc:title></dc:title>
      </cc:Work>
    </rdf:RDF>
  </metadata>
  <g
     transform="translate(-511.85729,-187.97504)"
     id="layer1">
    <g
       transform="matrix(1.25,0,0,-1.25,541.20504,203.35718)"
       id="g5466">
      <path
         d="m 0,0 c -0.006,4.07 -3.313,7.377 -7.385,7.381 -4.084,0.004 -7.398,-3.311 -7.394,-7.397 0.004,-4.07 3.31,-7.377 7.383,-7.38 C -3.316,-7.4 0.003,-4.082 0,0 m -7.736,-18.48 c -0.679,0.181 -1.116,0.681 -1.56,1.173 -2.472,2.735 -4.69,5.653 -6.492,8.873 -1.116,1.997 -2.018,4.077 -2.478,6.332 -1.043,5.108 1.848,10.446 6.714,12.368 C -5.721,12.568 0.69,9.779 2.963,3.938 3.89,1.557 3.895,-0.865 3.199,-3.307 2.547,-5.6 1.491,-7.707 0.252,-9.727 c -1.749,-2.855 -3.801,-5.48 -6.068,-7.941 -0.343,-0.375 -0.739,-0.662 -1.227,-0.812 l -0.693,0 z"
         id="path5468"
         style="fill:#ffffff;fill-opacity:1;fill-rule:evenodd;stroke:none" />
    </g>
    <g
       transform="matrix(1.25,0,0,-1.25,530.9488,207.87138)"
       id="g5470">
      <path
         d="M 0,0 C -1.982,0.445 -3.234,2.424 -2.79,4.41 -2.344,6.406 -0.355,7.66 1.645,7.203 3.622,6.754 4.866,4.77 4.416,2.781 3.968,0.801 1.991,-0.447 0,0"
         id="path5472"
         style="fill:#ffffff;fill-opacity:1;fill-rule:evenodd;stroke:none" />
    </g>
  </g>
</svg>
