<?xml version="1.0" encoding="UTF-8" standalone="no"?>
<!-- Created with Inkscape (http://www.inkscape.org/) -->

<svg
   xmlns:dc="http://purl.org/dc/elements/1.1/"
   xmlns:cc="http://creativecommons.org/ns#"
   xmlns:rdf="http://www.w3.org/1999/02/22-rdf-syntax-ns#"
   xmlns:svg="http://www.w3.org/2000/svg"
   xmlns="http://www.w3.org/2000/svg"
   version="1.1"
   width="40"
   height="40"
   id="svg19853"
   viewBox="0 0 40 40">
  <defs
     id="defs19855">
    <clipPath
       id="clipPath10262">
      <path
         d="m 0,6615.635 990,0 L 990,0 0,0 0,6615.635 z"
         id="path10264" />
    </clipPath>
  </defs>
  <metadata
     id="metadata19858">
    <rdf:RDF>
      <cc:Work
         rdf:about="">
        <dc:format>image/svg+xml</dc:format>
        <dc:type
           rdf:resource="http://purl.org/dc/dcmitype/StillImage" />
        <dc:title></dc:title>
      </cc:Work>
    </rdf:RDF>
  </metadata>
  <g
     transform="translate(-429.61201,-433.77193)"
     id="layer1">
    <g
       transform="matrix(1.25,0,0,-1.25,-101.81316,3327.5567)"
       id="g10258">
      <g
         clip-path="url(#clipPath10262)"
         id="g10260">
        <g
           transform="translate(444.8379,2297.3135)"
           id="g10266">
          <path
             d="m 0,0 c -1.791,1.522 -4.384,3.486 -6.205,5.033 0.116,0.125 0.219,0.245 0.328,0.367 1.706,1.054 2.847,2.935 2.847,5.087 0,3.304 -2.678,5.983 -5.982,5.983 -3.303,0 -5.981,-2.679 -5.981,-5.983 0,-2.263 1.258,-4.233 3.114,-5.249 0.116,-0.11 0.227,-0.22 0.35,-0.331 -1.237,-0.82 -2.429,-1.417 -3.382,-2.279 -3.097,-2.803 -4.743,-6.496 -3.676,-10.451 0.923,-3.424 4.424,-4.498 7.71,-5.153 2.574,-0.511 5.007,-0.146 7.274,1.209 C -5.307,-7.698 -4.972,-4.894 0,0"
             id="path10268"
             style="fill:#ffffff;fill-opacity:1;fill-rule:evenodd;stroke:none" />
        </g>
        <g
           transform="translate(450.8472,2297.4668)"
           id="g10270">
          <path
             d="m 0,0 c 1.665,0.648 2.847,2.264 2.847,4.158 0,2.467 -2,4.467 -4.467,4.467 -2.467,0 -4.467,-2 -4.467,-4.467 0,-1.804 1.073,-3.357 2.615,-4.06 -4.308,-2.934 -6.231,-6.278 -5.481,-9.397 0.453,-1.885 3.749,-3.842 6.832,-4.056 2.653,-0.186 6.987,1.728 7.342,3.602 C 6.082,-5.212 4.008,-2.027 0,0"
             id="path10272"
             style="fill:#ffffff;fill-opacity:1;fill-rule:evenodd;stroke:none" />
        </g>
      </g>
    </g>
  </g>
</svg>
