<?xml version="1.0" encoding="UTF-8" standalone="no"?>
<!-- Created with Inkscape (http://www.inkscape.org/) -->

<svg
   xmlns:dc="http://purl.org/dc/elements/1.1/"
   xmlns:cc="http://creativecommons.org/ns#"
   xmlns:rdf="http://www.w3.org/1999/02/22-rdf-syntax-ns#"
   xmlns:svg="http://www.w3.org/2000/svg"
   xmlns="http://www.w3.org/2000/svg"
   version="1.1"
   width="40"
   height="40"
   id="svg22491"
   viewBox="0 0 40 40">
  <defs
     id="defs22493" />
  <metadata
     id="metadata22496">
    <rdf:RDF>
      <cc:Work
         rdf:about="">
        <dc:format>image/svg+xml</dc:format>
        <dc:type
           rdf:resource="http://purl.org/dc/dcmitype/StillImage" />
        <dc:title></dc:title>
      </cc:Work>
    </rdf:RDF>
  </metadata>
  <g
     transform="translate(36.725357,-240.51674)"
     id="layer1">
    <path
       d="m -11.520178,259.57585 c -0.82875,1.47 -1.755,2.63 -3.005,3.48125 l 0,3.9925 -5,0 0,-5.4275 c 1.25,-0.39875 0.97875,-0.8475 1.50625,-1.35 0.5275,-0.49875 0.9425,-1.05 1.4025,-1.65375 0.46125,-0.60125 0.785,-1.25875 1.055,-1.9725 0.27,-0.71125 0.38625,-1.41875 0.38625,-2.11875 0,-0.61 -0.15625,-1.07125 -0.44125,-1.38125 -0.28875,-0.31125 -0.7075,-0.465 -1.2475,-0.465 -0.49625,0 -0.8725,0.2025 -1.12625,0.60375 -0.24875,0.405 -0.37875,0.905 -0.37875,1.50875 0,0.54875 0.08375,1.09875 0.2525,1.6475 l -4.17125,0.79625 c -0.2575,-0.9825 -0.3875,-1.9125 -0.3875,-2.79 0,-1.7 0.48375,-3.07 1.4475,-4.1125 0.9675,-1.03875 2.42,-1.56 4.35875,-1.56 1.9575,0 3.47125,0.52125 4.5425,1.56 1.0725,1.0425 1.82875,2.5275 1.82875,4.45875 0,1.71875 -0.195,3.3125 -1.0225,4.7825 m -3.005,14.97375 -5,0 0,-5 5,0 0,5 z m -2.17125,-33.55625 c -10.815,0 -19.5825,8.7675 -19.5825,19.58375 0,10.815 8.7675,19.5825 19.5825,19.5825 10.8162495,0 19.5824995,-8.7675 19.5824995,-19.5825 0,-10.81625 -8.76625,-19.58375 -19.5824995,-19.58375"
       id="path4574"
       style="fill:#ffffff;fill-opacity:1;fill-rule:nonzero;stroke:none" />
  </g>
</svg>
