<?xml version="1.0" encoding="UTF-8" standalone="no"?>
<!-- Created with Inkscape (http://www.inkscape.org/) -->

<svg
   xmlns:dc="http://purl.org/dc/elements/1.1/"
   xmlns:cc="http://creativecommons.org/ns#"
   xmlns:rdf="http://www.w3.org/1999/02/22-rdf-syntax-ns#"
   xmlns:svg="http://www.w3.org/2000/svg"
   xmlns="http://www.w3.org/2000/svg"
   version="1.1"
   width="40"
   height="40"
   id="svg22491"
   viewBox="0 0 40 40">
  <defs
     id="defs22493" />
  <metadata
     id="metadata22496">
    <rdf:RDF>
      <cc:Work
         rdf:about="">
        <dc:format>image/svg+xml</dc:format>
        <dc:type
           rdf:resource="http://purl.org/dc/dcmitype/StillImage" />
        <dc:title></dc:title>
      </cc:Work>
    </rdf:RDF>
  </metadata>
  <g
     transform="translate(36.725357,-240.51674)"
     id="layer1">
    <g
       transform="matrix(1.1771037,0,0,-1.1645218,-0.71931333,251.75843)"
       id="g4526">
      <path
         d="m 0,0 c -1.679,1.643 -3.41,3.338 -5.098,4.99 0,-1.062 -0.033,-2.234 0.01,-3.406 C -5.06,0.787 -4.406,0.062 -3.602,0.018 -2.355,-0.051 -1.105,0 0,0 m -6.631,5.301 -0.601,0 c -6.302,0 -12.603,0 -18.905,-0.001 -1.08,0 -1.392,-0.314 -1.393,-1.391 l 0,-22.518 c 0,-1.111 0.306,-1.412 1.432,-1.412 l 25,0 c 1.128,0 1.432,0.301 1.432,1.414 0.001,5.476 0.001,10.955 0.001,16.431 l 0,0.66 c -1.279,0 -2.46,-0.003 -3.641,0 -2.11,0.004 -3.321,1.187 -3.325,3.243 -0.002,1.171 0,2.342 0,3.574 m 8.956,-5.358 0,-19.599 c -0.648,-1.795 -1.992,-2.348 -3.866,-2.335 -8.229,0.052 -16.459,0.02 -24.689,0.023 -2.067,0 -3.287,1.195 -3.288,3.217 -0.004,7.587 -0.003,15.175 0,22.763 0.001,2.053 1.218,3.235 3.331,3.235 6.737,0.002 13.475,-0.005 20.21,0.009 0.803,0.002 1.434,-0.254 1.994,-0.81 C -2.284,4.754 -0.548,3.094 1.149,1.398 1.588,0.959 1.935,0.432 2.325,-0.057"
         id="path4528"
         style="fill:#ffffff;fill-opacity:1;fill-rule:nonzero;stroke:none" />
    </g>
    <path
       d="m -22.633566,251.31419 -5.766632,0 0,4.44848 5.766632,0 0,-4.44848 z m -2.949822,6.74725 c -1.244199,0 -2.488398,0.0116 -3.733773,0 -1.038206,-0.0117 -1.457255,-0.41807 -1.461963,-1.4312 -0.0082,-2.07984 -0.0082,-4.15852 0,-6.23952 0.0059,-0.97004 0.433174,-1.39277 1.424295,-1.39626 2.563732,-0.0117 5.123933,-0.0117 7.686488,0 0.993475,0 1.420764,0.42622 1.425472,1.3951 0.0094,2.07983 0.0082,4.15851 0,6.23835 -0.0024,1.01546 -0.42258,1.42537 -1.458431,1.43353 -1.293637,0.0116 -2.587274,0 -3.882088,0"
       id="path4530"
       style="fill:#ffffff;fill-opacity:1;fill-rule:evenodd;stroke:none" />
    <g
       transform="matrix(1.1771037,0,0,-1.1645218,-3.5079851,262.03222)"
       id="g4532">
      <path
         d="m 0,0 c 0,-0.459 0.285,-0.832 -0.186,-0.832 l -21.799,0 C -22.456,-0.832 -23,-0.459 -23,0 l 0,0.336 c 0,0.459 0.544,0.832 1.015,0.832 l 21.799,0 C 0.285,1.168 0,0.795 0,0.336 L 0,0 z"
         id="path4534"
         style="fill:#ffffff;fill-opacity:1;fill-rule:nonzero;stroke:none" />
    </g>
    <g
       transform="matrix(1.1771037,0,0,-1.1645218,-3.5079851,266.69031)"
       id="g4536">
      <path
         d="m 0,0 c 0,-0.459 0.285,-0.832 -0.186,-0.832 l -21.799,0 C -22.456,-0.832 -23,-0.459 -23,0 l 0,0.336 c 0,0.459 0.544,0.832 1.015,0.832 l 21.799,0 C 0.285,1.168 0,0.795 0,0.336 L 0,0 z"
         id="path4538"
         style="fill:#ffffff;fill-opacity:1;fill-rule:nonzero;stroke:none" />
    </g>
    <g
       transform="matrix(1.1771037,0,0,-1.1645218,-3.5079851,270.18276)"
       id="g4540">
      <path
         d="m 0,0 c 0,-0.46 0.285,-0.833 -0.186,-0.833 l -21.799,0 C -22.456,-0.833 -23,-0.46 -23,0 l 0,0.334 c 0,0.46 0.544,0.833 1.015,0.833 l 21.799,0 C 0.285,1.167 0,0.794 0,0.334 L 0,0 z"
         id="path4542"
         style="fill:#ffffff;fill-opacity:1;fill-rule:nonzero;stroke:none" />
    </g>
    <g
       transform="matrix(1.1771037,0,0,-1.1645218,-2.3308814,256.2085)"
       id="g4544">
      <path
         d="m 0,0 c 0,-0.46 0.308,-0.833 -0.163,-0.833 l -12.605,0 C -13.237,-0.833 -14,-0.46 -14,0 l 0,0.334 c 0,0.46 0.763,0.833 1.232,0.833 l 12.605,0 C 0.308,1.167 0,0.794 0,0.334 L 0,0 z"
         id="path4546"
         style="fill:#ffffff;fill-opacity:1;fill-rule:nonzero;stroke:none" />
    </g>
    <g
       transform="matrix(1.1771037,0,0,-1.1645218,-9.3935037,252.71493)"
       id="g4548">
      <path
         d="m 0,0 c 0,-0.46 0.177,-0.833 -0.293,-0.833 l -6.475,0 C -7.237,-0.833 -8,-0.46 -8,0 l 0,0.334 c 0,0.46 0.763,0.833 1.232,0.833 l 6.475,0 C 0.177,1.167 0,0.794 0,0.334 L 0,0 z"
         id="path4550"
         style="fill:#ffffff;fill-opacity:1;fill-rule:nonzero;stroke:none" />
    </g>
  </g>
</svg>
