<?xml version="1.0" encoding="UTF-8" standalone="no"?>
<!-- Created with Inkscape (http://www.inkscape.org/) -->

<svg
   xmlns:dc="http://purl.org/dc/elements/1.1/"
   xmlns:cc="http://creativecommons.org/ns#"
   xmlns:rdf="http://www.w3.org/1999/02/22-rdf-syntax-ns#"
   xmlns:svg="http://www.w3.org/2000/svg"
   xmlns="http://www.w3.org/2000/svg"
   version="1.1"
   width="40"
   height="40"
   id="svg16609"
   viewBox="0 0 40 40">
  <defs
     id="defs16611">
    <clipPath
       id="clipPath1778">
      <path
         d="m 0,6615.635 990,0 L 990,0 0,0 0,6615.635 z"
         id="path1780" />
    </clipPath>
  </defs>
  <metadata
     id="metadata16614">
    <rdf:RDF>
      <cc:Work
         rdf:about="">
        <dc:format>image/svg+xml</dc:format>
        <dc:type
           rdf:resource="http://purl.org/dc/dcmitype/StillImage" />
        <dc:title></dc:title>
      </cc:Work>
    </rdf:RDF>
  </metadata>
  <g
     transform="translate(-833.72502,-337.94438)"
     id="layer1">
    <g
       transform="matrix(1.2689127,0,0,-1.3057682,326.10768,6617.0136)"
       id="g1774">
      <g
         clip-path="url(#clipPath1778)"
         id="g1776">
        <g
           transform="translate(406.7041,4780.7988)"
           id="g1782">
          <path
             d="m 0,0 c 0.369,2.164 0.684,4.484 1.187,6.763 0.288,1.289 0.108,2.172 -0.951,3.068 -1.664,1.416 -3.183,3.009 -4.718,4.569 -0.321,0.325 -0.688,0.911 -0.588,1.248 0.09,0.314 0.752,0.58 1.195,0.652 2.539,0.416 5.092,0.749 7.633,1.165 0.326,0.055 0.73,0.362 0.885,0.662 1.14,2.206 2.224,4.439 3.332,6.662 0.144,0.29 0.293,0.584 0.486,0.843 0.393,0.529 0.85,0.542 1.221,-0.003 0.314,-0.461 0.556,-0.973 0.808,-1.475 1.002,-2.009 1.979,-4.034 3.016,-6.027 0.154,-0.3 0.555,-0.607 0.885,-0.662 2.566,-0.422 5.148,-0.763 7.716,-1.184 0.416,-0.067 1.026,-0.331 1.116,-0.632 0.093,-0.318 -0.239,-0.877 -0.539,-1.177 -1.815,-1.827 -3.69,-3.596 -5.5,-5.427 -0.256,-0.259 -0.426,-0.779 -0.372,-1.137 0.391,-2.512 0.874,-5.011 1.266,-7.523 0.068,-0.45 0.02,-1.129 -0.26,-1.364 -0.24,-0.201 -0.943,-0.034 -1.341,0.168 C 14.205,0.334 11.957,1.523 9.719,2.731 9.246,2.988 8.883,2.979 8.416,2.725 6.1,1.477 3.77,0.25 1.432,-0.956 0.471,-1.452 -0.041,-1.141 0,0"
             id="path1784"
             style="fill:#ffffff;fill-opacity:1;fill-rule:evenodd;stroke:none" />
        </g>
      </g>
    </g>
  </g>
</svg>
