<?xml version="1.0" encoding="UTF-8" standalone="no"?>
<!-- Created with Inkscape (http://www.inkscape.org/) -->

<svg
   xmlns:dc="http://purl.org/dc/elements/1.1/"
   xmlns:cc="http://creativecommons.org/ns#"
   xmlns:rdf="http://www.w3.org/1999/02/22-rdf-syntax-ns#"
   xmlns:svg="http://www.w3.org/2000/svg"
   xmlns="http://www.w3.org/2000/svg"
   version="1.1"
   width="11.798138"
   height="17.583904"
   id="svg4895">
  <defs
     id="defs4897" />
  <metadata
     id="metadata4900">
    <rdf:RDF>
      <cc:Work
         rdf:about="">
        <dc:format>image/svg+xml</dc:format>
        <dc:type
           rdf:resource="http://purl.org/dc/dcmitype/StillImage" />
        <dc:title></dc:title>
      </cc:Work>
    </rdf:RDF>
  </metadata>
  <g
     transform="translate(-582.67236,-243.57024)"
     id="layer1">
    <g
       transform="matrix(1.25,0,0,-1.25,594.36624,253.91054)"
       id="g1184">
      <path
         d="M 0,0 C 0.081,-0.843 0.103,-1.368 0.066,-1.577 0,-1.937 -0.171,-2.3 -0.444,-2.661 c -0.133,-0.166 -0.368,-0.464 -0.703,-0.896 -0.575,-0.742 -1.1,-1.319 -1.579,-1.729 -0.126,-0.1 -0.253,-0.195 -0.38,-0.285 -0.092,-0.043 -0.32,-0.112 -0.682,-0.205 -0.599,-0.068 -1.411,0.048 -2.443,0.343 -0.266,0.073 -0.743,0.208 -1.424,0.411 -0.683,0.199 -1.106,0.464 -1.274,0.795 -0.031,0.036 -0.071,0.095 -0.122,0.177 -0.045,0.149 -0.07,0.26 -0.073,0.334 -10e-4,0.029 -0.002,0.053 -0.004,0.072 -10e-4,0.008 -0.011,0.032 -0.031,0.069 -0.021,0.038 -0.031,0.068 -0.033,0.096 l -0.069,1.378 c -0.004,0.085 -0.01,0.209 -0.018,0.368 0.004,0.086 -0.004,0.266 -0.027,0.548 -0.002,0.01 0,0.02 -0.003,0.029 -0.011,0.028 -0.013,0.083 -0.008,0.169 0,0.008 0,0.027 -0.003,0.055 0.003,0.321 0.006,0.683 0.003,1.087 -0.014,0.084 -0.021,0.211 -0.018,0.381 -0.006,0.093 -0.009,0.134 -0.009,0.134 l -0.004,0.104 c -0.004,0.066 -0.006,0.113 -0.007,0.141 -10e-4,0.018 0.005,0.045 0.017,0.086 0.015,0.037 0.021,0.066 0.018,0.086 0.011,0.207 0.008,0.351 -0.005,0.436 l 0.042,0.044 c 0.004,0.132 0.015,0.293 0.036,0.481 0.01,0.02 0.017,0.273 0.022,0.764 0.016,0.046 0.033,0.128 0.045,0.242 -10e-4,0.027 -0.004,0.122 -0.014,0.281 0.004,-0.057 0.002,-0.019 -0.007,0.113 0.009,0.226 0,0.39 -0.024,0.493 0.027,0.057 0.037,0.138 0.031,0.241 l -0.007,0.111 c -0.029,0.046 -0.045,0.089 -0.046,0.126 -0.031,0.619 -0.018,1.117 0.038,1.497 0,0.019 0.003,0.042 0.011,0.071 0.007,0.029 0.01,0.047 0.01,0.057 -0.018,0.365 0.051,0.675 0.209,0.927 0.323,0.514 0.862,0.852 1.62,1.012 0.138,0.036 0.423,0.096 0.852,0.184 0.131,0.023 0.386,0.039 0.764,0.039 0.007,0 0.033,-0.008 0.07,-0.026 0.04,-0.017 0.069,-0.025 0.087,-0.023 0.048,10e-4 0.122,0.015 0.226,0.039 0.101,0.024 0.18,0.037 0.238,0.04 l 1.541,0.035 c 0.584,0.011 1.044,-0.051 1.38,-0.185 0.222,-0.093 0.406,-0.382 0.555,-0.86 0.022,-0.047 0.046,-0.111 0.078,-0.195 0.04,-0.206 0.106,-0.508 0.201,-0.907 0.012,-0.02 0.028,-0.051 0.049,-0.096 0.061,-0.289 0.192,-0.834 0.39,-1.631 0.071,-0.251 0.206,-0.723 0.412,-1.419 0.042,-0.28 0.107,-0.643 0.196,-1.09 L -0.301,1.763 C -0.136,0.952 -0.035,0.364 0,0"
         id="path1186"
         style="fill:#ffffff;fill-opacity:1;fill-rule:nonzero;stroke:none" />
    </g>
  </g>
</svg>
