<?xml version="1.0" encoding="UTF-8" standalone="no"?>
<!-- Created with Inkscape (http://www.inkscape.org/) -->

<svg
   xmlns:dc="http://purl.org/dc/elements/1.1/"
   xmlns:cc="http://creativecommons.org/ns#"
   xmlns:rdf="http://www.w3.org/1999/02/22-rdf-syntax-ns#"
   xmlns:svg="http://www.w3.org/2000/svg"
   xmlns="http://www.w3.org/2000/svg"
   version="1.1"
   width="103.814"
   height="109.45262"
   id="svg4362">
  <defs
     id="defs4364">
    <clipPath
       id="clipPath1232">
      <path
         d="m 0,1896.979 164,0 0,141 -164,0 0,-141 z"
         id="path1234" />
    </clipPath>
    <clipPath
       id="clipPath1244">
      <path
         d="m 0,2037.979 992,0 L 992,0 0,0 0,2037.979 z"
         id="path1246" />
    </clipPath>
  </defs>
  <metadata
     id="metadata4367">
    <rdf:RDF>
      <cc:Work
         rdf:about="">
        <dc:format>image/svg+xml</dc:format>
        <dc:type
           rdf:resource="http://purl.org/dc/dcmitype/StillImage" />
        <dc:title></dc:title>
      </cc:Work>
    </rdf:RDF>
  </metadata>
  <g
     transform="translate(-322.72565,-385.65675)"
     id="layer1">
    <g
       transform="matrix(1.25,0,0,-1.25,283.13515,2918.323)"
       id="g1240">
      <g
         clip-path="url(#clipPath1244)"
         id="g1242">
        <g
           transform="translate(47.5244,1996.7881)"
           id="g1248">
          <path
             d="m 0,0 c 0.03,-0.308 0.046,-0.561 0.061,-0.758 0.056,-1.041 -0.012,-2.057 -0.209,-3.063 -0.069,-0.326 -0.546,-0.628 -1.456,-0.914 -0.584,-0.159 -1.185,-0.32 -1.806,-0.486 -0.279,-0.081 -0.913,-0.26 -1.917,-0.54 -1.12,-0.156 -2.308,-0.368 -3.562,-0.633 l -2.133,-0.189 c -1.042,-0.088 -1.777,-0.096 -2.184,-0.02 -0.785,0.142 -1.308,0.573 -1.557,1.289 -0.107,0.164 -0.214,0.407 -0.329,0.724 -0.13,0.913 -0.226,1.991 -0.292,3.228 -0.142,2.492 -0.295,5.804 -0.468,9.931 0.051,0.225 0.08,0.514 0.097,0.865 -0.01,1.254 0.009,3.135 0.061,5.635 0.019,0.343 0.073,0.998 0.148,1.972 0.025,0.206 0.208,0.335 0.538,0.392 0.053,0.015 0.209,-0.034 0.453,-0.153 0.256,0.35 0.739,0.428 1.441,0.241 0.566,-0.164 1.392,-0.382 2.453,-0.645 0.28,-0.052 0.441,-0.084 0.493,-0.098 0.906,-0.265 1.491,-0.602 1.777,-1.006 0.215,-0.3 0.524,-1.563 0.935,-3.772 l 0.352,-1.864 c 0,-0.044 0.167,-0.795 0.5,-2.251 C -6.564,7.706 -6.498,7.369 -6.396,6.88 -6.294,6.389 -6.143,5.583 -5.933,4.464 -5.904,4.125 -5.816,3.476 -5.679,2.516 -5.657,2.427 -5.6,2.38 -5.498,2.371 L -5.325,2.353 -5.498,2.348 c 0.059,-0.035 0.175,-0.058 0.345,-0.071 0.226,-0.02 0.538,-0.04 0.923,-0.056 0.327,-0.013 0.839,-0.055 1.512,-0.126 0.132,-0.01 0.326,-0.011 0.582,-0.007 0.252,0.007 0.442,0.005 0.572,-0.004 0.037,-0.006 0.092,10e-4 0.175,0.013 0.08,0.015 0.143,0.022 0.178,0.018 0.295,-0.027 0.574,-0.165 0.83,-0.411 0.152,-0.146 0.233,-0.26 0.252,-0.341 L 0,0 z"
             id="path1250"
             style="fill:#ffffff;fill-opacity:1;fill-rule:nonzero;stroke:none" />
        </g>
        <g
           transform="translate(56.7891,2007.0068)"
           id="g1252">
          <path
             d="M 0,0 C -0.041,0.318 -0.135,0.839 -0.277,1.561 -0.329,1.649 -0.512,1.76 -0.838,1.884 -0.929,1.911 -1.077,2.014 -1.28,2.185 -1.459,1.21 -1.564,0.092 -1.602,-1.168 L -1.68,-4.854 c -0.026,-0.183 -0.073,-0.632 -0.137,-1.345 -0.01,-0.109 -0.015,-0.51 -0.008,-1.204 0,-0.487 0.021,-0.783 0.054,-0.888 0.069,-0.256 0.272,-0.433 0.607,-0.527 0.889,-0.242 1.354,-0.348 1.399,-0.315 0.149,0.11 0.377,0.527 0.688,1.25 0.098,0.231 0.137,0.583 0.123,1.051 -0.028,0.863 -0.174,2.003 -0.43,3.418 L 0,0 z m 7.139,-6.789 c 0.107,-1.36 0.13,-2.207 0.064,-2.543 -0.117,-0.581 -0.401,-1.161 -0.854,-1.734 -0.219,-0.268 -0.602,-0.743 -1.156,-1.428 -0.948,-1.182 -1.812,-2.098 -2.591,-2.745 -0.207,-0.163 -0.417,-0.312 -0.624,-0.454 -0.15,-0.067 -0.515,-0.171 -1.103,-0.312 -0.963,-0.09 -2.277,0.114 -3.932,0.62 -0.428,0.122 -1.189,0.354 -2.289,0.697 -1.094,0.341 -1.771,0.781 -2.031,1.318 -0.047,0.063 -0.111,0.157 -0.194,0.291 -0.068,0.241 -0.104,0.42 -0.106,0.541 0,0.048 -0.005,0.084 -0.005,0.115 0,0.013 -0.02,0.053 -0.051,0.112 -0.03,0.061 -0.049,0.111 -0.052,0.156 l -0.07,2.226 c -0.007,0.139 -0.012,0.335 -0.021,0.593 0.011,0.137 0,0.433 -0.03,0.886 l 0,0.047 c -0.021,0.042 -0.021,0.134 -0.011,0.27 0,0.012 -0.002,0.048 -0.002,0.09 0.013,0.518 0.023,1.101 0.033,1.753 -0.02,0.135 -0.027,0.339 -0.02,0.616 -0.006,0.151 -0.011,0.216 -0.011,0.202 l -0.006,0.181 c 0,0.106 -0.004,0.183 -0.006,0.229 0,0.029 0.01,0.074 0.033,0.137 0.02,0.06 0.031,0.108 0.031,0.137 0.02,0.335 0.02,0.57 0,0.705 l 0.071,0.072 c 0.009,0.212 0.031,0.471 0.071,0.774 0.015,0.03 0.036,0.441 0.056,1.232 0.028,0.075 0.052,0.203 0.079,0.388 -0.002,0.045 -0.008,0.196 -0.018,0.456 0.005,-0.092 0.005,-0.03 -0.004,0.179 0.02,0.365 0.009,0.629 -0.026,0.795 0.04,0.094 0.061,0.223 0.056,0.391 l -0.005,0.181 c -0.051,0.074 -0.076,0.142 -0.076,0.203 -0.036,0.997 0,1.802 0.101,2.414 0,0.029 0.004,0.065 0.021,0.113 0.009,0.046 0.02,0.076 0.018,0.091 -0.018,0.591 0.098,1.089 0.358,1.49 0.536,0.823 1.418,1.353 2.642,1.59 0.223,0.051 0.686,0.146 1.382,0.276 0.21,0.037 0.622,0.05 1.23,0.039 0.014,0 0.054,-0.012 0.114,-0.042 0.063,-0.028 0.11,-0.041 0.14,-0.039 0.076,0 0.196,0.022 0.364,0.057 0.163,0.035 0.293,0.057 0.386,0.06 L 1.582,6.652 C 2.521,6.652 3.264,6.539 3.805,6.316 4.161,6.159 4.449,5.693 4.671,4.908 4.704,4.836 4.744,4.732 4.796,4.598 4.854,4.264 4.954,3.776 5.097,3.129 5.11,3.097 5.138,3.046 5.173,2.97 5.265,2.505 5.456,1.623 5.764,0.33 c 0.1,-0.405 0.309,-1.171 0.62,-2.298 0.063,-0.453 0.158,-1.043 0.289,-1.766 l 0.031,-0.202 c 0.239,-1.312 0.382,-2.263 0.435,-2.853"
             id="path1254"
             style="fill:#ffffff;fill-opacity:1;fill-rule:nonzero;stroke:none" />
        </g>
        <g
           transform="translate(80.918,1999.3843)"
           id="g1256">
          <path
             d="m 0,0 c 0.01,-0.346 0.021,-0.638 0.021,-0.864 -0.011,-1.18 -0.175,-2.34 -0.5,-3.476 -0.107,-0.363 -0.722,-0.685 -1.848,-0.966 -0.696,-0.149 -1.403,-0.297 -2.116,-0.444 -0.319,-0.074 -1.024,-0.227 -2.119,-0.465 -1.164,-0.1 -2.354,-0.244 -3.565,-0.435 l -1.955,-0.058 c -0.913,-0.024 -1.534,0.008 -1.867,0.1 -0.636,0.174 -1.033,0.583 -1.196,1.236 -0.077,0.153 -0.15,0.373 -0.223,0.661 -0.057,0.817 -0.082,1.782 -0.077,2.887 0.01,2.228 0.049,5.189 0.116,8.888 0.047,0.209 0.088,0.476 0.117,0.796 0.057,1.135 0.163,2.845 0.327,5.134 0.03,0.319 0.102,0.929 0.214,1.84 0.029,0.197 0.182,0.362 0.456,0.497 0.047,0.029 0.168,0.021 0.362,-0.025 0.232,0.393 0.643,0.595 1.234,0.608 0.482,-0.002 1.204,0.014 2.155,0.056 0.261,0.029 0.414,0.042 0.459,0.042 0.849,-0.003 1.4,-0.174 1.658,-0.506 0.194,-0.246 0.429,-1.452 0.703,-3.619 L -7.4,10.043 C -7.401,9.999 -7.278,9.254 -7.028,7.812 -6.997,7.633 -6.946,7.294 -6.876,6.8 -6.8,6.309 -6.692,5.491 -6.546,4.354 c 0.012,-0.35 0.063,-1.016 0.147,-2 0.015,-0.091 0.077,-0.137 0.182,-0.137 l 0.182,0 -0.182,-0.023 c 0.059,-0.031 0.182,-0.046 0.364,-0.048 0.241,0 0.577,0.005 1,0.017 0.365,0.014 0.929,0.011 1.704,-0.01 0.151,0 0.38,0.014 0.679,0.041 0.307,0.03 0.536,0.045 0.684,0.045 0.045,0 0.119,0.009 0.219,0.032 0.097,0.021 0.172,0.035 0.213,0.035 0.365,-0.003 0.697,-0.136 1.001,-0.394 0.18,-0.154 0.278,-0.274 0.292,-0.367 L 0,0 z"
             id="path1258"
             style="fill:#ffffff;fill-opacity:1;fill-rule:nonzero;stroke:none" />
        </g>
        <g
           transform="translate(97.8955,2001.0742)"
           id="g1260">
          <path
             d="M 0,0 C 0.054,-0.345 0.096,-0.628 0.121,-0.856 0.258,-2.03 0.236,-3.2 0.049,-4.366 -0.018,-4.738 -0.587,-5.131 -1.666,-5.549 -2.342,-5.779 -3.023,-6.011 -3.717,-6.243 -4.021,-6.354 -4.702,-6.595 -5.76,-6.96 -6.906,-7.199 -8.07,-7.488 -9.254,-7.823 l -1.933,-0.293 c -0.898,-0.134 -1.518,-0.177 -1.864,-0.124 -0.649,0.092 -1.098,0.455 -1.337,1.08 -0.091,0.142 -0.191,0.351 -0.3,0.629 -0.152,0.806 -0.294,1.76 -0.422,2.858 -0.254,2.213 -0.577,5.157 -0.957,8.837 0.026,0.216 0.031,0.483 0.026,0.802 -0.088,1.135 -0.188,2.847 -0.304,5.136 -0.003,0.321 -0.008,0.939 -0.008,1.854 0.012,0.199 0.138,0.383 0.398,0.548 0.041,0.038 0.158,0.043 0.361,0.021 0.178,0.416 0.565,0.669 1.15,0.751 0.482,0.054 1.191,0.16 2.137,0.315 0.25,0.062 0.403,0.094 0.446,0.098 0.842,0.098 1.413,-0.004 1.705,-0.304 0.222,-0.221 0.603,-1.387 1.14,-3.509 L -8.557,9.078 C -8.552,9.033 -8.343,8.309 -7.915,6.909 -7.866,6.732 -7.773,6.403 -7.642,5.922 -7.508,5.441 -7.305,4.646 -7.02,3.534 -6.967,3.188 -6.835,2.532 -6.635,1.565 -6.608,1.476 -6.544,1.437 -6.436,1.449 l 0.18,0.021 -0.179,-0.04 c 0.066,-0.027 0.185,-0.025 0.369,-0.006 0.237,0.029 0.569,0.076 0.99,0.138 0.357,0.061 0.922,0.125 1.693,0.196 0.151,0.018 0.374,0.06 0.667,0.126 0.303,0.062 0.526,0.104 0.676,0.121 0.043,0.007 0.115,0.025 0.214,0.061 0.094,0.034 0.16,0.053 0.209,0.059 0.358,0.042 0.705,-0.049 1.035,-0.271 0.199,-0.127 0.311,-0.238 0.336,-0.326 L 0,0 z"
             id="path1262"
             style="fill:#ffffff;fill-opacity:1;fill-rule:nonzero;stroke:none" />
        </g>
        <g
           transform="translate(106.8623,1995.4805)"
           id="g1264">
          <path
             d="M 0,0 C -0.007,-0.062 -0.088,-0.157 -0.236,-0.282 -0.633,-0.615 -0.963,-0.84 -1.229,-0.967 -1.396,-1.003 -1.619,-1.077 -1.9,-1.184 -2.717,-1.5 -3.482,-1.717 -4.186,-1.841 -4.459,-1.929 -5.081,-2.029 -6.048,-2.145 l -0.624,0.098 c -0.351,0.053 -0.56,0.151 -0.623,0.295 -0.212,0.505 -0.283,1.377 -0.208,2.611 0.026,0.377 0.128,1.653 0.322,3.837 -0.011,0.035 -0.029,0.079 -0.051,0.133 0.031,0.108 0.055,0.49 0.075,1.142 0.002,0.249 0.014,0.499 0.042,0.758 0.133,1.372 0.237,2.338 0.322,2.9 l 0.227,1.442 c 0.15,0.991 0.233,1.646 0.246,1.952 -0.026,0.041 -0.077,0.128 -0.153,0.273 -0.006,0.05 0.05,0.171 0.178,0.363 0.106,0.048 0.417,0.09 0.93,0.127 1.359,0.106 2.245,0.124 2.662,0.06 L -1.58,13.67 c 0.51,-0.093 0.841,-0.348 0.991,-0.765 0.068,-0.191 0.12,-0.643 0.154,-1.354 0.035,-0.102 0.07,-0.255 0.107,-0.456 0.011,-0.349 0.037,-0.869 0.076,-1.563 0.067,-0.304 0.107,-0.573 0.124,-0.805 0.151,-2.09 0.183,-4.498 0.096,-7.221 -0.006,-0.131 0,-0.385 0.025,-0.766 C 0.023,0.422 0.029,0.177 0,0 M 0.67,19.832 C 0.707,19.631 0.641,19.245 0.469,18.672 0.298,18.101 0.151,17.718 0.023,17.526 0.014,17.463 -0.012,17.375 -0.043,17.265 -0.168,16.974 -0.393,16.542 -0.709,15.97 -0.78,15.505 -1.114,15.048 -1.707,14.6 c -0.071,-0.054 -0.259,-0.093 -0.554,-0.111 -0.188,-0.052 -0.575,0.048 -1.158,0.301 -0.171,0.074 -0.561,0.322 -1.187,0.747 -0.144,0.121 -0.443,0.323 -0.885,0.604 -0.124,0.068 -0.307,0.219 -0.551,0.451 -0.326,0.313 -0.528,0.549 -0.6,0.708 -0.096,0.229 -0.091,0.53 0.017,0.905 0.022,0.047 0.084,0.175 0.181,0.39 0.028,0.175 0.465,1.035 1.307,2.575 0.072,0.151 0.21,0.4 0.408,0.747 0.077,0.07 0.254,0.096 0.529,0.077 0.276,-0.018 0.442,0.001 0.501,0.06 0.285,-0.046 0.548,-0.101 0.781,-0.172 1.018,-0.303 1.955,-0.7 2.812,-1.195 0.465,-0.264 0.724,-0.552 0.776,-0.855"
             id="path1266"
             style="fill:#ffffff;fill-opacity:1;fill-rule:nonzero;stroke:none" />
        </g>
        <g
           transform="translate(48.5322,1979.8745)"
           id="g1268">
          <path
             d="m 0,0 c -0.265,0.855 -1.135,1.336 -2.614,1.439 -0.296,0 -0.841,0.024 -1.63,0.078 0.086,-0.332 0.228,-0.996 0.431,-1.992 0.159,-0.835 0.311,-1.493 0.459,-1.981 0.271,-0.882 0.834,-2.152 1.673,-3.814 0.286,0.249 0.516,0.528 0.687,0.849 C 0.111,-3.27 0.441,-1.463 0,0 M 7.489,6.113 C 7.903,4.368 8.182,2.524 8.32,0.583 8.345,0.391 8.366,0.007 8.385,-0.562 8.385,-0.763 8.279,-1.688 8.073,-3.343 L 7.933,-3.977 C 7.822,-4.931 7.204,-6.137 6.071,-7.596 5.638,-8.155 4.299,-9.682 2.056,-12.171 c -0.393,-0.423 -0.632,-0.873 -0.708,-1.344 -0.023,-0.128 0.041,-0.374 0.183,-0.738 l 1.365,-3.481 c 0.567,-1.458 0.889,-2.34 0.967,-2.645 0.206,-0.822 0.233,-1.449 0.076,-1.874 -0.154,-0.428 -0.578,-0.904 -1.268,-1.429 -0.212,-0.152 -0.625,-0.443 -1.241,-0.874 -0.214,-0.156 -0.572,-0.418 -1.071,-0.795 -1.002,-0.702 -1.972,-1.172 -2.909,-1.408 -1.198,-0.304 -2.098,-0.09 -2.708,0.632 -0.068,0.082 -0.106,0.172 -0.103,0.272 -0.063,0.061 -0.109,0.072 -0.125,0.043 l -0.037,0.141 c -0.212,0.347 -0.536,0.84 -0.971,1.481 l -0.237,0.504 c -0.044,0.164 -0.15,0.335 -0.324,0.519 -0.406,0.925 -0.997,2.324 -1.767,4.204 0.024,0.005 0.034,0.019 0.027,0.045 l -1.972,5.578 c -0.143,0.566 -0.386,1.291 -0.735,2.179 -0.03,0.117 -0.061,0.296 -0.096,0.536 l -0.082,0.317 c -0.035,0.143 -0.099,0.357 -0.189,0.646 -0.095,0.291 -0.156,0.505 -0.194,0.648 -0.24,0.938 -0.447,1.66 -0.636,2.165 l -0.035,0.141 -0.055,0.211 c -0.356,1.91 -0.99,4.926 -1.902,9.048 -0.164,0.756 -0.393,1.902 -0.678,3.429 0.01,0.052 0.228,0.272 0.656,0.654 0.489,0.645 1.039,1.099 1.649,1.353 L -9.19,8.96 c 1.092,0.127 3.084,0.315 5.963,0.566 C -0.949,9.724 1.084,9.624 2.881,9.228 3.038,9.217 3.241,9.193 3.501,9.159 3.9,9.059 4.48,8.893 5.239,8.661 5.489,8.546 6.014,8.205 6.807,7.63 7.19,6.901 7.419,6.394 7.489,6.113"
             id="path1270"
             style="fill:#ffffff;fill-opacity:1;fill-rule:nonzero;stroke:none" />
        </g>
        <g
           transform="translate(71.9854,1980.0313)"
           id="g1272">
          <path
             d="M 0,0 C -0.075,0.506 -0.237,1.334 -0.488,2.488 -0.569,2.626 -0.868,2.796 -1.387,2.986 -1.535,3.029 -1.771,3.184 -2.1,3.46 -2.36,1.896 -2.506,0.106 -2.523,-1.908 l -0.036,-5.895 c -0.035,-0.296 -0.09,-1.01 -0.183,-2.157 -0.016,-0.169 -0.006,-0.811 0.023,-1.926 0.013,-0.776 0.048,-1.243 0.11,-1.414 0.117,-0.404 0.442,-0.68 0.986,-0.822 1.425,-0.364 2.171,-0.523 2.242,-0.47 0.233,0.182 0.588,0.853 1.061,2.018 0.153,0.368 0.212,0.931 0.172,1.682 -0.065,1.378 -0.33,3.195 -0.783,5.454 L 0,0 z m 11.588,-10.66 c 0.209,-2.177 0.26,-3.528 0.168,-4.069 -0.173,-0.928 -0.61,-1.861 -1.312,-2.792 -0.346,-0.43 -0.951,-1.199 -1.816,-2.308 -1.482,-1.921 -2.836,-3.405 -4.066,-4.461 -0.328,-0.257 -0.659,-0.507 -0.982,-0.737 -0.24,-0.111 -0.825,-0.287 -1.76,-0.527 -1.544,-0.175 -3.644,0.123 -6.302,0.886 -0.687,0.183 -1.912,0.533 -3.669,1.054 -1.761,0.517 -2.857,1.202 -3.287,2.054 -0.078,0.09 -0.184,0.244 -0.317,0.457 -0.111,0.382 -0.178,0.67 -0.186,0.862 0,0.076 -0.005,0.134 -0.005,0.183 -0.006,0.021 -0.033,0.082 -0.085,0.175 -0.053,0.098 -0.08,0.181 -0.086,0.254 l -0.176,3.553 c -0.011,0.219 -0.027,0.533 -0.046,0.942 0.01,0.222 -0.011,0.692 -0.071,1.419 -0.006,0.026 0,0.047 -0.006,0.073 -0.026,0.072 -0.035,0.214 -0.02,0.434 -0.002,0.023 -0.002,0.074 -0.01,0.144 0.01,0.828 0.012,1.761 0.004,2.804 -0.029,0.216 -0.051,0.543 -0.045,0.979 -0.012,0.24 -0.019,0.348 -0.019,0.327 l -0.012,0.289 c -0.01,0.169 -0.016,0.289 -0.019,0.363 -0.002,0.048 0.015,0.122 0.044,0.223 0.037,0.097 0.055,0.171 0.051,0.219 0.026,0.535 0.018,0.911 -0.02,1.127 l 0.112,0.114 c 0.011,0.34 0.04,0.753 0.091,1.242 0.027,0.05 0.048,0.705 0.057,1.968 0.047,0.123 0.083,0.329 0.118,0.622 -0.006,0.075 -0.018,0.316 -0.037,0.726 0.004,-0.146 0.004,-0.047 -0.015,0.292 0.019,0.585 0,1.006 -0.061,1.269 0.064,0.148 0.093,0.356 0.076,0.62 l -0.015,0.291 c -0.075,0.117 -0.117,0.228 -0.124,0.323 -0.079,1.598 -0.05,2.883 0.1,3.861 0,0.049 0.005,0.109 0.027,0.183 0.016,0.075 0.029,0.123 0.029,0.148 -0.047,0.942 0.129,1.74 0.538,2.392 0.832,1.326 2.224,2.195 4.172,2.609 0.361,0.088 1.095,0.248 2.205,0.472 0.335,0.064 0.992,0.1 1.963,0.1 0.025,10e-4 0.087,-0.021 0.185,-0.066 0.101,-0.041 0.177,-0.06 0.228,-0.06 0.117,0.006 0.309,0.04 0.575,0.103 0.263,0.059 0.468,0.095 0.615,0.104 l 3.975,0.089 C 3.858,10.695 5.044,10.535 5.914,10.191 6.486,9.954 6.961,9.211 7.34,7.969 7.395,7.849 7.461,7.688 7.549,7.47 7.645,6.94 7.817,6.161 8.062,5.132 8.09,5.086 8.134,5.001 8.185,4.884 8.347,4.14 8.682,2.738 9.196,0.678 9.38,0.034 9.729,-1.184 10.255,-2.979 c 0.112,-0.722 0.28,-1.659 0.51,-2.813 l 0.049,-0.324 c 0.42,-2.091 0.68,-3.604 0.774,-4.544"
             id="path1274"
             style="fill:#ffffff;fill-opacity:1;fill-rule:nonzero;stroke:none" />
        </g>
        <g
           transform="translate(100.541,1980.5005)"
           id="g1276">
          <path
             d="M 0,0 C 0.061,0.894 -0.582,1.657 -1.919,2.284 -2.199,2.389 -2.698,2.608 -3.412,2.939 -3.453,2.602 -3.558,1.934 -3.731,0.928 -3.881,0.092 -3.975,-0.581 -4.01,-1.086 c -0.061,-0.921 0,-2.308 0.189,-4.159 0.355,0.124 0.67,0.306 0.943,0.542 C -1.07,-3.09 -0.112,-1.527 0,0 M 9.188,3.011 C 8.946,1.234 8.543,-0.586 7.973,-2.446 7.927,-2.635 7.808,-3 7.623,-3.539 7.552,-3.724 7.118,-4.552 6.335,-6.021 L 5.974,-6.563 C 5.532,-7.413 4.518,-8.316 2.936,-9.272 2.333,-9.637 0.532,-10.58 -2.459,-12.095 c -0.517,-0.257 -0.901,-0.589 -1.145,-0.999 -0.06,-0.115 -0.091,-0.367 -0.091,-0.759 l 0.022,-3.739 c 0.002,-1.561 -0.014,-2.5 -0.054,-2.816 -0.096,-0.84 -0.3,-1.433 -0.596,-1.774 -0.299,-0.343 -0.862,-0.635 -1.698,-0.877 -0.252,-0.066 -0.743,-0.186 -1.471,-0.37 -0.256,-0.069 -0.684,-0.184 -1.29,-0.357 -1.182,-0.294 -2.25,-0.385 -3.213,-0.269 -1.227,0.148 -1.994,0.672 -2.301,1.562 -0.039,0.104 -0.035,0.201 0,0.294 -0.041,0.078 -0.076,0.106 -0.101,0.085 l 0.015,0.143 c -0.071,0.402 -0.2,0.981 -0.373,1.734 l -0.044,0.552 c 0.019,0.17 -0.016,0.371 -0.107,0.602 -0.052,1.008 -0.096,2.527 -0.141,4.559 0.024,-0.003 0.034,0.007 0.038,0.033 l 0.168,5.913 c 0.072,0.579 0.103,1.345 0.098,2.296 0.016,0.124 0.047,0.3 0.101,0.537 l 0.038,0.326 c 0.022,0.144 0.037,0.367 0.054,0.67 0.018,0.306 0.036,0.528 0.055,0.671 0.116,0.963 0.178,1.713 0.183,2.252 l 0.016,0.142 0.027,0.218 c 0.355,1.91 0.846,4.953 1.473,9.128 0.118,0.764 0.321,1.917 0.606,3.442 0.027,0.047 0.313,0.168 0.849,0.373 0.684,0.428 1.361,0.653 2.023,0.672 l 3.964,-0.484 C -4.291,11.364 -2.369,10.829 0.417,10.049 2.631,9.389 4.492,8.564 6.009,7.574 6.146,7.51 6.33,7.411 6.558,7.288 6.896,7.049 7.376,6.687 8.002,6.196 8.197,6 8.558,5.495 9.099,4.672 9.192,3.854 9.221,3.302 9.188,3.011"
             id="path1278"
             style="fill:#ffffff;fill-opacity:1;fill-rule:nonzero;stroke:none" />
        </g>
        <g
           transform="translate(60.9258,1949.1567)"
           id="g1280">
          <path
             d="m 0,0 -1.344,0.174 -0.282,-2.166 -0.052,-0.024 -0.025,-0.183 0.066,-0.209 -0.105,-0.125 0.06,-0.227 -0.157,-0.118 0.132,-0.066 -0.042,-0.194 1.405,-0.184 0.411,3.126 L 0,0 z m 0.084,-8.097 0.071,1.37 0.229,1.725 -1.342,0.055 -1.008,0.131 -0.083,-0.271 -0.356,-2.685 0.332,-0.088 1.343,-0.177 0.814,-0.06 z m -4.308,-1.017 0.905,6.895 -0.241,0.281 0.071,0.176 0.129,0.993 0.299,1.203 0.173,1.326 0.01,0.324 L -1.757,1.86 1.904,1.378 1.271,-3.458 2.405,-3.56 2.467,-3.661 1.652,-9.888 -4.224,-9.114 z"
             id="path1282"
             style="fill:#ffffff;fill-opacity:1;fill-rule:nonzero;stroke:none" />
        </g>
        <g
           transform="translate(68.5186,1940.4019)"
           id="g1284">
          <path
             d="M 0,0 0.323,4.978 0.354,7.829 0.257,8.017 -2.095,8.169 -2.092,5.564 -2.194,5.433 -2.115,5.211 -2.246,5.082 -2.125,5.025 -2.44,0.159 0,0 z m 1.683,-1.679 -5.9,0.38 0.465,7.138 -0.121,1.026 0.079,1.262 0.088,0.178 0.108,1.658 L -1.914,9.776 2.188,9.515 1.724,2.311 1.683,-1.679 z"
             id="path1286"
             style="fill:#ffffff;fill-opacity:1;fill-rule:nonzero;stroke:none" />
        </g>
        <g
           transform="translate(77.4316,1949.8799)"
           id="g1288">
          <path
             d="m 0,0 0.005,-0.51 -0.209,-2.739 -1.634,-0.012 -0.01,1.537 -1.969,-0.015 -0.199,-0.4 0.057,-7.001 0.142,-0.386 0.259,-0.059 0.862,0.008 0.127,-0.199 0.335,0.202 0.108,-0.06 0.247,0 0.093,0.048 -0.024,2.875 -1.275,-0.009 -0.019,2.049 3.002,0.023 0.052,-6.618 -5.566,-0.043 L -5.71,-0.044 0,0 z"
             id="path1290"
             style="fill:#ffffff;fill-opacity:1;fill-rule:nonzero;stroke:none" />
        </g>
        <g
           transform="translate(83.3506,1940.7422)"
           id="g1292">
          <path
             d="M 0,0 -0.45,4.966 -0.858,7.787 -0.983,7.962 -3.325,7.75 -2.929,5.174 -3.004,5.029 -2.892,4.821 -3.004,4.672 -2.876,4.639 -2.439,-0.222 0,0 z m 1.918,-1.405 -5.886,-0.529 -0.642,7.127 -0.276,0.993 -0.111,1.256 0.06,0.192 -0.153,1.657 1.695,0.074 4.091,0.37 0.647,-7.189 0.575,-3.951 z"
             id="path1294"
             style="fill:#ffffff;fill-opacity:1;fill-rule:nonzero;stroke:none" />
        </g>
        <g
           transform="translate(91.2607,1950.0186)"
           id="g1296">
          <path
             d="m 0,0 -0.16,-0.233 -0.737,0.017 -0.861,-0.161 -0.265,-0.097 0.55,-2.933 0.159,-0.518 0.696,-3.707 0.086,-0.218 0.158,-0.845 0.116,-0.12 -0.086,-0.05 0.028,-0.133 -0.038,-0.212 0.067,-0.363 0.12,-0.212 -0.155,-0.186 -1.467,-0.275 -0.116,0.12 -1.737,9.269 -2.544,-0.475 0.004,0.329 -0.263,1.392 -0.167,0.234 -0.017,0.089 0.045,0.074 1.438,0.112 1.862,0.35 0.172,0.064 0.438,0.019 0.673,0.158 0.117,-0.043 0.03,0.087 0.116,0.067 0.228,0.027 0.199,-0.072 0.835,0.156 0.132,-0.288 0.24,-1.286 L 0,0 z"
             id="path1298"
             style="fill:#ffffff;fill-opacity:1;fill-rule:nonzero;stroke:none" />
        </g>
        <g
           transform="translate(95.7666,1945.2295)"
           id="g1300">
          <path
             d="M 0,0 -2.309,4.372 -2.02,3.319 -1.734,-0.48 0,0 z M 1.857,-3.571 0.8,-1.664 -1.649,-2.34 l 0.209,-2.067 -1.379,-0.384 -1.129,8.28 0.066,0.049 -0.102,1.058 0.01,1.04 -0.164,0.882 1.427,0.393 0.594,0.214 0.194,-0.297 0.076,-0.33 L -1.738,6.45 -1.123,5.438 -0.266,3.84 1.766,-0.31 3.103,-3.227 1.857,-3.571 z"
             id="path1302"
             style="fill:#ffffff;fill-opacity:1;fill-rule:nonzero;stroke:none" />
        </g>
        <g
           transform="translate(57.1924,2023.3667)"
           id="g1304">
          <path
             d="m 0,0 -2.527,0.299 -0.209,-1.76 0.198,-0.096 0.479,-0.058 1.062,-0.041 -0.065,-0.562 -0.016,-0.769 -0.107,-0.177 -1.76,0.208 -0.103,-0.877 0.056,-0.331 -0.345,-1.787 -0.108,0.013 -0.381,0.148 -0.548,0.025 0.06,0.953 0.559,4.728 0.308,1.821 L 0.155,1.313 0,0 z"
             id="path1306"
             style="fill:#ffffff;fill-opacity:1;fill-rule:nonzero;stroke:none" />
        </g>
        <g
           transform="translate(61.7373,2017.4819)"
           id="g1308">
          <path
             d="m 0,0 0.01,-0.461 -3.643,0.168 -0.007,3.452 0.119,2.545 -0.127,0.226 0.086,0.1 0.056,1.162 L 0.138,7.025 0.174,6.898 0.152,6.406 0.114,6.303 0.214,5.75 -0.519,5.786 -2.322,5.774 -2.409,5.726 -2.428,5.538 -2.55,5.481 -2.483,4.133 -1.831,4.147 -1.457,4.087 -0.763,3.907 -0.783,3.478 -0.87,3.188 -0.804,3.038 -0.814,2.818 -2.543,2.803 -2.594,2.7 -2.662,2.337 -2.674,2.043 -2.629,1.937 -2.668,1.025 -2.543,0.958 -0.84,0.877 -0.585,0.94 0.176,1.031 0,0 z"
             id="path1310"
             style="fill:#ffffff;fill-opacity:1;fill-rule:nonzero;stroke:none" />
        </g>
        <g
           transform="translate(67.3047,2018.8462)"
           id="g1312">
          <path
             d="m 0,0 0.041,-2.032 -4.087,-0.084 -0.067,0.101 -10e-4,0.119 0.049,0.197 -0.059,2.864 0.042,0.041 0.347,-0.034 0.701,0.014 0.045,-2.148 0.073,-0.062 0.602,0.012 0.071,0.066 0.029,-0.042 1.125,0.024 -0.071,0.365 -0.031,1.372 -1.858,1.116 -1.002,0.691 -0.071,0 -0.077,0.198 -0.009,0.387 -0.09,0.87 -0.033,1.559 2.84,0.061 1.236,0.067 L -0.198,3.068 -0.282,3.037 -0.893,3.055 -1.205,3.019 -1.268,3.079 -1.302,4.59 -1.436,4.668 -1.755,4.725 -1.935,4.722 -2.016,4.627 -3.176,4.603 -3.165,4.068 -3.089,3.367 -0.845,1.968 -0.041,1.511 -0.012,0.042 0,0 z"
             id="path1314"
             style="fill:#ffffff;fill-opacity:1;fill-rule:nonzero;stroke:none" />
        </g>
        <g
           transform="translate(72.6328,2023.6494)"
           id="g1316">
          <path
             d="m 0,0 -0.127,-0.142 -0.499,0.079 -0.599,-0.033 -0.186,-0.041 0.109,-2.03 0.061,-0.366 0.135,-2.564 0.038,-0.155 0.033,-0.587 0.069,-0.092 -0.061,-0.023 0.003,-0.093 -0.044,-0.14 0.011,-0.251 0.059,-0.155 -0.117,-0.112 -1.017,-0.052 -0.066,0.091 -0.342,6.417 -1.756,-0.094 0.028,0.225 -0.049,0.961 -0.095,0.174 0,0.065 0.036,0.042 0.982,-0.052 1.287,0.066 0.124,0.03 0.296,-0.028 0.47,0.046 0.072,-0.037 0.03,0.053 0.083,0.035 0.16,0 0.129,-0.069 0.575,0.031 0.061,-0.205 0.049,-0.89 L 0,0 z"
             id="path1318"
             style="fill:#ffffff;fill-opacity:1;fill-rule:nonzero;stroke:none" />
        </g>
        <g
           transform="translate(75.1191,2024.9414)"
           id="g1320">
          <path
             d="m 0,0 0.451,-6.703 -0.021,-1.114 -1.279,0.08 -0.498,7.511 -0.096,0.025 0.188,0.118 L 0,0 z"
             id="path1322"
             style="fill:#ffffff;fill-opacity:1;fill-rule:nonzero;stroke:none" />
        </g>
        <g
           transform="translate(80.582,2025.417)"
           id="g1324">
          <path
             d="m 0,0 -0.215,-4.155 -0.055,-0.087 -0.204,-1.356 0.03,-0.341 -0.247,-1.935 -1.621,-0.137 -0.054,0.396 -0.201,0.784 -0.145,0.376 0.044,0.077 -0.718,2.644 0.004,0.117 -0.356,1.369 -0.006,0.305 -0.289,0.975 -0.101,0.569 0.897,0.077 1.645,-6.345 0.183,2.625 0.363,3.46 L -1.08,-0.174 0,0 z"
             id="path1326"
             style="fill:#ffffff;fill-opacity:1;fill-rule:nonzero;stroke:none" />
        </g>
        <g
           transform="translate(83.9756,2020.5796)"
           id="g1328">
          <path
             d="M 0,0 -1.06,3.199 -0.983,2.46 -1.22,-0.125 0,0 z m 0.84,-2.613 -0.495,1.405 -1.718,-0.178 -0.096,-1.412 -0.969,-0.1 0.177,5.688 0.052,0.025 0.05,0.723 0.129,0.7 -0.012,0.608 0.999,0.104 0.426,0.074 L -0.519,4.805 -0.508,4.573 -0.437,4.529 -0.141,3.781 0.255,2.609 1.15,-0.408 1.718,-2.521 0.84,-2.613 z"
             id="path1330"
             style="fill:#ffffff;fill-opacity:1;fill-rule:nonzero;stroke:none" />
        </g>
        <g
           transform="translate(90.6172,2018.939)"
           id="g1332">
          <path
             d="M 0,0 -3.706,-0.535 -4.772,6.909 -4.87,7.022 -3.668,7.194 -3.188,4.722 -2.882,2.593 -2.717,0.934 -2.622,0.873 -0.206,1.441 0,0 z"
             id="path1334"
             style="fill:#ffffff;fill-opacity:1;fill-rule:nonzero;stroke:none" />
        </g>
        <g
           transform="translate(101.3975,1956.4014)"
           id="g1336">
          <path
             d="M 0,0 -0.426,1.728 0.937,3.468 1.943,5.319 1.494,6.686 1.054,8.479 0.739,8.658 -0.453,8.366 -0.63,8.222 -0.512,7.513 -0.321,6.737 0.178,5.454 0.25,5.159 0.25,4.874 0.341,4.741 0.53,3.964 0.303,3.908 -0.251,3.673 -0.929,3.309 l -1.104,3.746 -0.288,1.177 -0.136,0.322 0.067,0.073 0.312,1.042 0.618,0.082 1.151,0.282 0.225,0.126 1.126,0.207 0.137,0.09 0.112,0 L 1.734,10.208 2.229,9.875 2.607,8.336 2.596,8.149 2.626,8.03 2.807,7.988 2.781,7.797 3.236,5.949 3.661,4.507 3.3,4.077 2.406,3.148 2.302,3.107 2.101,2.775 1.564,2.119 1.621,2.005 1.703,1.967 4.18,2.577 4.455,1.451 4.711,1.159 0,0 z"
             id="path1338"
             style="fill:#ffffff;fill-opacity:1;fill-rule:nonzero;stroke:none" />
        </g>
        <g
           transform="translate(110.5752,1959.8945)"
           id="g1340">
          <path
             d="M 0,0 -0.805,2.641 -0.926,2.781 -1.284,3.956 -2.008,6.902 -3.415,6.557 -4.378,6.262 -4.227,5.873 -3.893,4.521 -3.541,3.316 -2.697,-0.11 -2.464,-0.549 -2.463,-0.607 0,0 z m 0.793,-1.383 -3.426,-0.842 -0.305,0.435 0,-0.126 L -3.39,-1.63 -3.613,-1.528 -4.69,2.85 -5.656,5.977 -5.787,6.498 -5.448,7.149 -5.354,7.457 -5.382,7.578 -1.9,8.432 -0.762,7.604 0.814,1.193 1.34,-0.141 0.793,-1.383 z"
             id="path1342"
             style="fill:#ffffff;fill-opacity:1;fill-rule:nonzero;stroke:none" />
        </g>
        <g
           transform="translate(106.2422,1952.2798)"
           id="g1344">
          <path
             d="M 0,0 -0.122,-0.078 0.088,-0.527 0.089,-0.902 0.342,-1.904 0.816,-3.411 1.554,-6.325 1.737,-7.422 0.929,-7.564 0.353,-7.71 0.192,-7.813 l -1.485,5.873 -0.171,0.112 0.055,0.157 -0.21,0.274 0.058,0.016 0.054,0.092 -0.146,0.023 -0.064,0.252 -0.012,0.231 -0.166,0.35 -0.059,-0.015 -0.506,-0.472 -0.254,-0.049 -0.19,-0.236 -0.683,2.693 0.714,1.199 -0.023,0.276 0.35,0.166 0.678,0.171 0.827,0.132 0.564,-2.223 0.12,0.016 L -0.305,1.019 -0.418,0.911 -0.215,0.352 -0.263,0.292 0,0 z"
             id="path1346"
             style="fill:#ffffff;fill-opacity:1;fill-rule:nonzero;stroke:none" />
        </g>
        <g
           transform="translate(114.7236,1947.8486)"
           id="g1348">
          <path
             d="m 0,0 -0.435,-1.441 -3.589,-0.909 -1.163,0.756 -0.513,1.405 -0.382,1.265 -0.131,0.827 0.795,0.14 0.559,0.141 0.26,0.208 0.666,-2.634 0.32,-0.203 1.367,0.347 0.253,0.173 0.143,0.177 -0.045,0.177 -0.19,0.078 L -3.091,4.48 -3.385,4.655 -5.079,4.227 -5.193,4.12 -6.724,3.858 -6.815,3.788 -8.13,7.871 l 0.292,-0.037 0.101,0.214 0.595,0.119 0.167,0.153 0.309,0.078 0.27,-0.01 0.076,0.066 1.207,0.305 0.143,-0.073 0.496,0.267 1.751,0.443 L -2.566,9.34 -2.504,9.09 -2.573,8.869 -2.249,7.59 -2.573,7.569 -3.629,7.35 -4.486,7.085 -5.723,6.773 -5.957,6.588 -5.88,6.28 l 0.204,-0.497 0.21,-0.15 0.279,0.07 0.044,0.137 0.099,-0.023 1.9,0.48 0.607,0.327 0.063,-0.25 L -1.582,5.942 -1.6,5.766 -1.518,5.441 -1.347,5.015 -1.225,4.402 -1.334,4.22 -1.279,4.187 -1.074,4.253 0,0 z"
             id="path1350"
             style="fill:#ffffff;fill-opacity:1;fill-rule:nonzero;stroke:none" />
        </g>
      </g>
    </g>
  </g>
</svg>
