<?xml version="1.0" encoding="UTF-8" standalone="no"?>
<!-- Created with Inkscape (http://www.inkscape.org/) -->

<svg
   xmlns:dc="http://purl.org/dc/elements/1.1/"
   xmlns:cc="http://creativecommons.org/ns#"
   xmlns:rdf="http://www.w3.org/1999/02/22-rdf-syntax-ns#"
   xmlns:svg="http://www.w3.org/2000/svg"
   xmlns="http://www.w3.org/2000/svg"
   version="1.1"
   width="354.52252"
   height="354.52374"
   id="svg30501"
   viewBox="0 0 354.52252 354.52374">
  <defs
     id="defs30503">
    <clipPath
       id="clipPath11070">
      <path
         d="m 0,6615.635 990,0 L 990,0 0,0 0,6615.635 z"
         id="path11072" />
    </clipPath>
  </defs>
  <metadata
     id="metadata30506">
    <rdf:RDF>
      <cc:Work
         rdf:about="">
        <dc:format>image/svg+xml</dc:format>
        <dc:type
           rdf:resource="http://purl.org/dc/dcmitype/StillImage" />
        <dc:title></dc:title>
      </cc:Work>
    </rdf:RDF>
  </metadata>
  <g
     transform="translate(1140.1184,459.18541)"
     id="layer1">
    <path
       d="m -785.59589,-281.92291 c 0,97.8975 -79.36375,177.26125 -177.2625,177.26125 -97.89621,0 -177.26001,-79.36375 -177.26001,-177.26125 0,-97.8975 79.3638,-177.2625 177.26001,-177.2625 97.89875,0 177.2625,79.365 177.2625,177.2625"
       id="path11056"
       style="fill:#ffffff;fill-opacity:1;fill-rule:nonzero;stroke:none" />
    <g
       transform="matrix(1.25,0,0,1.25,-983.78689,-266.42609)"
       id="text11058">
      <path
         d="m 10.111699,-33.295843 0,14.076087 6.373131,0 c 2.358541,1.9e-5 4.181823,-0.610529 5.469852,-1.831648 1.287985,-1.221076 1.931988,-2.960721 1.932012,-5.218941 -2.4e-5,-2.24144 -0.644027,-3.972722 -1.932012,-5.193851 -1.288029,-1.221065 -3.111311,-1.831614 -5.469852,-1.831647 l -6.373131,0 m -5.0683949,-4.165117 11.4415259,0 c 4.198551,3.7e-5 7.368385,0.953497 9.509513,2.860381 2.157804,1.890227 3.236719,4.666968 3.236748,8.330234 -2.9e-5,3.696773 -1.078944,6.490242 -3.236748,8.380416 -2.141128,1.890209 -5.310962,2.835305 -9.509513,2.83529 l -6.373131,0 0,15.054639 -5.0683949,0 0,-37.46096"
         id="path30444"
         style="font-size:51.38650131px;font-variant:normal;font-weight:normal;font-stretch:normal;writing-mode:lr-tb;fill:#6d2c90;fill-opacity:1;fill-rule:nonzero;stroke:none;font-family:BubbleGum;-inkscape-font-specification:BubbleGum" />
      <path
         d="m 33.871132,-37.46096 5.068395,0 0,33.1954789 18.241204,0 0,4.2654811 -23.309599,0 0,-37.46096"
         id="path30446"
         style="font-size:51.38650131px;font-variant:normal;font-weight:normal;font-stretch:normal;writing-mode:lr-tb;fill:#6d2c90;fill-opacity:1;fill-rule:nonzero;stroke:none;font-family:BubbleGum;-inkscape-font-specification:BubbleGum" />
      <path
         d="m 70.286295,-32.467838 -6.874952,18.642661 13.774995,0 -6.900043,-18.642661 m -2.860381,-4.993122 5.745853,0 L 87.448584,0 82.17946,0 l -3.412385,-9.6098779 -16.886287,0 L 58.468403,0 53.124006,0 67.425914,-37.46096"
         id="path30448"
         style="font-size:51.38650131px;font-variant:normal;font-weight:normal;font-stretch:normal;writing-mode:lr-tb;fill:#6d2c90;fill-opacity:1;fill-rule:nonzero;stroke:none;font-family:BubbleGum;-inkscape-font-specification:BubbleGum" />
      <path
         d="m 85.663704,-37.46096 5.444761,0 10.387705,15.405914 10.31242,-15.405914 5.44477,0 -13.24809,19.621213 0,17.839747 -5.093483,0 0,-17.839747 -13.248083,-19.621213"
         id="path30450"
         style="font-size:51.38650131px;font-variant:normal;font-weight:normal;font-stretch:normal;writing-mode:lr-tb;fill:#6d2c90;fill-opacity:1;fill-rule:nonzero;stroke:none;font-family:BubbleGum;-inkscape-font-specification:BubbleGum" />
    </g>
    <g
       transform="matrix(1.25,0,0,1.25,-988.97114,-223.62829)"
       id="text11062">
      <path
         d="m 3.8080961,-28.286007 5.7026713,0 7.2183316,19.2488834 7.256223,-19.2488834 5.702671,0 0,28.286007 -3.732313,0 0,-24.83788 -7.294115,19.4004493 -3.845987,0 -7.2941146,-19.4004493 0,24.83788 -3.7133673,0 0,-28.286007"
         id="path30431"
         style="font-size:38.80089951px;font-variant:normal;font-weight:normal;font-stretch:normal;writing-mode:lr-tb;fill:#6d2c90;fill-opacity:1;fill-rule:nonzero;stroke:none;font-family:BubbleGum;-inkscape-font-specification:BubbleGum" />
      <path
         d="m 43.313322,-24.515803 -5.191136,14.076694 10.401218,0 -5.210082,-14.076694 m -2.159815,-3.770204 4.338577,0 L 56.272217,0 l -3.978608,0 -2.576622,-7.2562229 -12.750491,0 L 34.389873,0 30.354428,0 41.153507,-28.286007"
         id="path30433"
         style="font-size:38.80089951px;font-variant:normal;font-weight:normal;font-stretch:normal;writing-mode:lr-tb;fill:#6d2c90;fill-opacity:1;fill-rule:nonzero;stroke:none;font-family:BubbleGum;-inkscape-font-specification:BubbleGum" />
      <path
         d="m 72.221963,-13.262026 c 0.820964,0.277884 1.616685,0.871517 2.387165,1.7809 0.78307,0.909407 1.566161,2.1598255 2.349273,3.7512593 L 80.84228,0 76.731052,0 73.112413,-7.2562229 c -0.934674,-1.894566 -1.844069,-3.1513001 -2.728188,-3.7702041 -0.871519,-0.618883 -2.0651,-0.92833 -3.580747,-0.928342 l -4.168065,0 0,11.954769 -3.827042,0 0,-28.286007 8.639263,0 c 3.233392,2.8e-5 5.645815,0.675759 7.237277,2.027195 1.591422,1.351489 2.387142,3.391313 2.387164,6.119478 -2.2e-5,1.780919 -0.416828,3.258686 -1.250419,4.433306 -0.821003,1.174651 -2.020899,1.989317 -3.599693,2.444002 m -9.58655,-11.878987 0,10.041249 4.812221,0 c 1.844038,1.5e-5 3.233392,-0.423106 4.168065,-1.269365 0.94727,-0.858857 1.420913,-2.115591 1.420931,-3.770205 -1.8e-5,-1.654574 -0.473661,-2.898677 -1.420931,-3.732313 -0.934673,-0.846219 -2.324027,-1.26934 -4.168065,-1.269366 l -4.812221,0"
         id="path30435"
         style="font-size:38.80089951px;font-variant:normal;font-weight:normal;font-stretch:normal;writing-mode:lr-tb;fill:#6d2c90;fill-opacity:1;fill-rule:nonzero;stroke:none;font-family:BubbleGum;-inkscape-font-specification:BubbleGum" />
      <path
         d="m 82.942534,-28.286007 3.827042,0 0,11.954769 12.693653,-11.954769 4.925891,0 L 90.350323,-15.099764 105.39325,0 l -5.03957,0 -13.584104,-13.621995 0,13.621995 -3.827042,0 0,-28.286007"
         id="path30437"
         style="font-size:38.80089951px;font-variant:normal;font-weight:normal;font-stretch:normal;writing-mode:lr-tb;fill:#6d2c90;fill-opacity:1;fill-rule:nonzero;stroke:none;font-family:BubbleGum;-inkscape-font-specification:BubbleGum" />
      <path
         d="m 107.58111,-28.286007 17.88479,0 0,3.220777 -14.05775,0 0,8.374023 13.47043,0 0,3.220778 -13.47043,0 0,10.2496512 14.39877,0 0,3.2207778 -18.22581,0 0,-28.286007"
         id="path30439"
         style="font-size:38.80089951px;font-variant:normal;font-weight:normal;font-stretch:normal;writing-mode:lr-tb;fill:#6d2c90;fill-opacity:1;fill-rule:nonzero;stroke:none;font-family:BubbleGum;-inkscape-font-specification:BubbleGum" />
      <path
         d="m 123.17618,-28.286007 23.92849,0 0,3.220777 -10.04125,0 0,25.06523 -3.84599,0 0,-25.06523 -10.04125,0 0,-3.220777"
         id="path30441"
         style="font-size:38.80089951px;font-variant:normal;font-weight:normal;font-stretch:normal;writing-mode:lr-tb;fill:#6d2c90;fill-opacity:1;fill-rule:nonzero;stroke:none;font-family:BubbleGum;-inkscape-font-specification:BubbleGum" />
    </g>
    <g
       transform="matrix(1.25,0,0,-1.25,-1942.6186,203.19672)"
       id="g11066">
      <g
         clip-path="url(#clipPath11070)"
         id="g11068">
        <g
           transform="translate(740.1621,421.3145)"
           id="g11074">
          <path
             d="m 0,0 c -0.668,-0.975 -1.189,-2.172 -1.583,-3.688 -0.671,-2.585 -1.346,-11.119 -5.969,-5.515 -3.206,3.887 -0.851,10.633 1.361,14.164 2.732,4.361 6.805,7.82 10.958,10.805 4.929,3.543 14.031,5.097 12.271,-3.995 C 16.1,6.932 10.555,5.301 6.421,4.012 3.49,3.098 1.413,2.053 0,0"
             id="path11076"
             style="fill:#7dc14c;fill-opacity:1;fill-rule:nonzero;stroke:none" />
        </g>
        <g
           transform="translate(709.7227,420.5703)"
           id="g11078">
          <path
             d="m 0,0 c 0.197,7.488 -0.282,16.414 -4.626,22.846 -2.869,4.252 -5.756,6.144 -8.935,1.644 -2.163,-3.068 -3.06,-5.357 -1.64,-8.935 3.799,-9.584 9.395,-18.498 6.556,-29.321 -0.279,-1.074 -1.019,-2.859 -0.568,-4.005 1.556,-3.946 5.329,0.279 6.165,2.222 C -1.26,-11.4 -0.119,-4.521 0,0"
             id="path11080"
             style="fill:#f9cd17;fill-opacity:1;fill-rule:nonzero;stroke:none" />
        </g>
        <g
           transform="translate(674.1641,444.0371)"
           id="g11082">
          <path
             d="m 0,0 c -5.307,0.404 -11.53,-6.305 -5.731,-10.396 2.861,-2.018 6.083,-0.858 9.026,-2.024 4.714,-1.863 6.554,-6.812 8.598,-11.125 0.881,-1.863 2.202,-5.434 4.216,-6.385 5.393,-2.543 3.024,7.756 2.293,9.764 C 15.736,-12.838 9.052,-1.992 0.826,-0.123 0.555,-0.062 0.278,-0.021 0,0"
             id="path11084"
             style="fill:#f16a22;fill-opacity:1;fill-rule:nonzero;stroke:none" />
        </g>
        <g
           transform="translate(730.0527,403.459)"
           id="g11086">
          <path
             d="m 0,0 c 0.289,-0.74 0.3,-1.455 -0.196,-2.076 -2.725,-3.408 -9.935,2.144 -11.427,4.334 -6.023,8.836 -4.62,23.912 -0.659,33.299 2.34,5.547 7.343,11.884 13.969,12.529 C 10.912,48.982 6.295,38.164 3.834,34.49 0.098,28.918 -5.288,20.594 -6.028,13.932 -6.416,10.465 -5.729,7.627 -3.754,4.77 -3.013,3.699 -0.697,1.781 0,0"
             id="path11088"
             style="fill:#6bcce4;fill-opacity:1;fill-rule:nonzero;stroke:none" />
        </g>
        <g
           transform="translate(669.1299,421.8945)"
           id="g11090">
          <path
             d="m 0,0 c -3.75,0.535 -9.731,-1.574 -10.428,-5.809 -0.927,-5.65 6.324,-5.539 10.021,-5.273 3.063,0.221 6.586,1.494 9.409,-0.123 3.203,-1.838 4.045,-5.455 5.856,-8.363 1.325,-2.125 5.121,-5.065 6.766,-1.493 1.107,2.411 -1.703,6.278 -2.95,8.088 C 14.615,-7.086 7.298,-1.037 0,0"
             id="path11092"
             style="fill:#6bcce4;fill-opacity:1;fill-rule:nonzero;stroke:none" />
        </g>
        <g
           transform="translate(745.2344,382.9707)"
           id="g11094">
          <path
             d="m 0,0 c -4.11,-4.484 -3.097,-12.082 -4.646,-17.619 -1.484,-5.285 -4.326,-10.643 -8.924,-13.813 -5.156,-3.556 -11.651,-3.806 -17.698,-4.031 -3.492,-0.129 -7.009,-0.064 -10.496,0.188 -10.312,0.736 -18.599,3.869 -21.178,9.392 -3.184,6.821 -2.166,13.422 -3.341,20.705 -0.501,3.1 -3.567,4.151 -3.959,6.944 2.898,0.216 6.166,-1.266 9.248,-1.262 3.727,0.006 7.458,0.303 11.167,0.641 8.835,0.8 17.633,1.988 26.418,3.226 4.673,0.658 9.353,1.498 14.052,1.969 C -4.646,6.809 0.634,7.082 5.328,6.752 4.84,5.5 0.962,1.053 0,0 M 14.518,18.041 C 12.468,18.656 3.365,18.709 3.121,17.902 4.349,21.82 7.26,25.48 8.85,29.465 9.769,31.773 11.545,33.711 9.153,34.967 7.014,36.094 5.115,35.545 3.901,33.719 0.732,28.949 1.375,22.158 -2.402,17.668 -4.414,15.271 -7.973,14.248 -10.97,13.965 -24.812,12.654 -38.141,8.201 -52.114,7.885 -54.47,7.832 -65.915,6.965 -67.151,9.688 c -1.881,4.136 -3.873,7.378 -6.784,11.023 -1.277,1.598 -3.066,4.195 -5.396,4.131 -2.043,-0.061 -3.101,-1.483 -2.862,-3.506 0.359,-3.035 3.182,-4.725 4.935,-6.932 1.28,-1.615 2.014,-3.5 3.23,-5.148 -1.716,-0.635 -4.691,-1.006 -5.442,-2.916 -1.759,-4.492 2.763,-7.197 4.511,-10.735 1.004,-2.031 0.583,-4.535 0.798,-6.781 0.298,-3.117 0.526,-6.242 0.722,-9.369 1.473,-23.57 23.572,-25.779 46.038,-24.676 22.464,1.106 25.168,9.108 29.09,16.205 2.871,5.196 4.525,12.067 5.569,17.889 0.962,5.363 1.829,9.982 5.596,14.236 2.955,3.336 6.625,11.051 2.003,14.778 -0.066,0.056 -0.182,0.105 -0.339,0.154"
             id="path11096"
             style="fill:#ee3e58;fill-opacity:1;fill-rule:nonzero;stroke:none" />
        </g>
        <g
           transform="translate(694.8652,366.1836)"
           id="g11098">
          <path
             d="m 0,0 c -0.337,2.914 -0.408,6.482 -1.372,8.869 -0.8,1.981 -2.036,4.285 -3.222,1.438 -1.121,-2.7 -0.506,-6.327 -0.099,-9.19 0.484,-3.422 1.009,-6.535 2.089,-9.695 0.465,-1.363 1.021,-2.207 1.962,-1.19 1.839,1.985 1.207,5.948 0.781,8.725 C 0.086,-0.707 0.042,-0.357 0,0"
             id="path11100"
             style="fill:#ee3e58;fill-opacity:1;fill-rule:nonzero;stroke:none" />
        </g>
        <g
           transform="translate(701.0479,376.3437)"
           id="g11102">
          <path
             d="m 0,0 0.124,0.551 c -0.715,-3.209 -0.893,-22.889 3.545,-20.143 1.48,0.918 1.652,5.467 1.74,7.387 0.17,3.779 -0.041,8.07 -1.069,11.576 C 3.495,2.264 0.385,4.699 0,0"
             id="path11104"
             style="fill:#ee3e58;fill-opacity:1;fill-rule:nonzero;stroke:none" />
        </g>
        <g
           transform="translate(717.2568,373.0215)"
           id="g11106">
          <path
             d="m 0,0 c -0.072,2.35 -0.173,5.557 -1.253,6.844 -1.93,2.304 -3.03,-9.389 -3.171,-10.953 -0.244,-2.717 -0.585,-6.077 0.125,-8.688 1.198,-4.408 3.463,-2.467 4.063,1.342 0.519,3.297 0.489,6.693 0.293,10.053 C 0.031,-1 0.017,-0.52 0,0"
             id="path11108"
             style="fill:#ee3e58;fill-opacity:1;fill-rule:nonzero;stroke:none" />
        </g>
        <g
           transform="translate(724.875,376.0527)"
           id="g11110">
          <path
             d="m 0,0 c -0.963,-2.389 -1.035,-5.953 -1.372,-8.867 -0.043,-0.36 -0.088,-0.711 -0.14,-1.047 -0.426,-2.774 -1.058,-6.738 0.781,-8.723 0.942,-1.015 1.496,-0.172 1.961,1.192 1.082,3.16 1.607,6.269 2.092,9.695 0.404,2.863 1.023,6.49 -0.101,9.187 C 2.037,4.285 0.799,1.98 0,0"
             id="path11112"
             style="fill:#ee3e58;fill-opacity:1;fill-rule:nonzero;stroke:none" />
        </g>
        <g
           transform="translate(893.041,380.0098)"
           id="g11114">
          <path
             d="m 0,0 c -0.628,-1.887 -1.559,-3.371 -3.648,-1.834 -2.041,1.502 -0.926,5.438 -2.395,7.102 -1.285,1.453 -3.971,0.177 -4.646,2.224 -0.92,2.781 3.002,3.287 3.896,5.121 0.88,1.805 -1.086,4.967 0.683,6.561 1.87,1.685 4.182,-1.5 5.754,-1.983 C 1.8,16.527 10.825,20.787 9.036,15.438 8.505,13.85 5.979,13.244 6.252,11.502 6.516,9.822 10.991,8.602 11.323,6.143 11.778,2.816 8.223,3.557 6.117,3.838 1.623,4.439 1.479,4.43 0,0"
             id="path11116"
             style="fill:#f9cd17;fill-opacity:1;fill-rule:nonzero;stroke:none" />
        </g>
      </g>
    </g>
  </g>
</svg>
