<?xml version="1.0" encoding="UTF-8" standalone="no"?>
<!-- Created with Inkscape (http://www.inkscape.org/) -->

<svg
   xmlns:dc="http://purl.org/dc/elements/1.1/"
   xmlns:cc="http://creativecommons.org/ns#"
   xmlns:rdf="http://www.w3.org/1999/02/22-rdf-syntax-ns#"
   xmlns:svg="http://www.w3.org/2000/svg"
   xmlns="http://www.w3.org/2000/svg"
   version="1.1"
   width="312.52011"
   height="370.88281"
   id="svg25159"
   viewBox="0 0 312.52011 370.88281">
  <defs
     id="defs25161" />
  <metadata
     id="metadata25164">
    <rdf:RDF>
      <cc:Work
         rdf:about="">
        <dc:format>image/svg+xml</dc:format>
        <dc:type
           rdf:resource="http://purl.org/dc/dcmitype/StillImage" />
        <dc:title></dc:title>
      </cc:Work>
    </rdf:RDF>
  </metadata>
  <g
     transform="translate(-323.73994,-392.63506)"
     id="layer1">
    <path
       d="m 582.20582,751.76538 c 0,6.49375 -46.025,11.7525 -102.78625,11.7525 -56.76875,0 -102.79375,-5.25875 -102.79375,-11.7525 0,-6.49375 46.025,-11.76 102.79375,-11.76 56.76125,0 102.78625,5.26625 102.78625,11.76"
       id="path4578"
       style="fill:#c63148;fill-opacity:1;fill-rule:nonzero;stroke:none" />
    <path
       d="m 566.88907,536.01963 c -3.81875,-17.26125 -7.5775,-34.46125 -8.5975,-51.945 -1.46,-24.97625 -21.79,-44.52125 -46.215,-46.77 -24.69875,-2.2725 -58.34,7.88 -88.62125,45.5175 -30.2975,37.63875 -7.21875,112.1075 -19.315,140.675 -13.7625,32.525 -65.005,2.30375 -60.70375,-11.3025 4.295,-13.59875 14.0775,-21.755 6.62,-23.5725 -7.45125,-1.8125 -20.10125,3.27 -25.15625,26.3 -6.0125,27.345 12.02125,52.71 38.34125,61.4475 26.95125,8.94625 60.6575,1.40875 64.3925,-0.8525 1.6575,1.675 15.19375,14.74 3.8625,34.47625 -6.3425,11.05375 -22.5575,11.93875 -31.79875,9.00125 -7.60625,-2.4125 -30.1125,-31.21375 -23.0825,0 4.07125,18.0925 19.87625,27.18875 31.93375,28.2275 22.61875,1.94125 44.18875,-7.04625 53.5125,-16.57 7.45625,-1.3575 31.685,-0.91 37.74375,0.44625 0.46625,3.17875 29.2875,21.36875 53.98125,17.2825 24.695,-4.075 40.4475,-23.7325 46.5075,-45.50125 6.06,-21.76625 -17.92125,0.31625 -24.7025,3.63375 -15.35375,7.50375 -30.46,2.2925 -35.2,-14.465 -5.17875,-18.305 12.05875,-40.175 21.4175,-54.83875 7.96125,-12.47375 15.11625,-36.455 13.865,-51.25625 -1.43,-16.9 -5.13375,-33.44375 -8.785,-49.93375"
       id="path4582"
       style="fill:#ebe84d;fill-opacity:1;fill-rule:nonzero;stroke:none" />
    <path
       d="m 329.03682,740.74251 15.4275,-171.17 c 0,0 -13.04875,-1.81125 -13.98125,-8.605 -0.925,-6.805 -2.40375,-42.37375 1.87125,-42.17125 5.31625,0.25 1.8975,33.31875 6.56,33.05125 4.6625,-0.2575 1.27125,-34.3525 6.2675,-33.895 5.4475,0.50875 2.29,34.48375 6.545,34.40625 6.1275,-0.1 2.60875,-33.04875 8.06375,-33.82375 5.08875,-0.7125 0.055,33.89 4.24375,33.61625 4.1975,-0.25875 2.60875,-33.56625 6.795,-33.8525 4.77375,-0.34625 3.46375,35.86375 0.665,42.66875 -2.7975,6.79375 -7.92375,7.69875 -11.64875,9.0675 -0.93125,6.79625 -9.57625,165.05625 -10.3125,170.7075 -0.71125,5.65875 -14.3425,9.205 -20.49625,0"
       id="path4586"
       style="fill:#602f91;fill-opacity:1;fill-rule:nonzero;stroke:none" />
    <path
       d="m 431.49657,732.38063 c 0,0 0.0987,0 0.29,0.0125 0.19375,-0.0187 0.4625,-0.0487 0.8175,-0.1025 0.72,-0.12 1.775,-0.295 3.1175,-0.52 2.685,-0.45125 6.52625,-1.09375 11.15625,-1.7025 2.31375,-0.31125 4.825,-0.635 7.48625,-0.905 2.66125,-0.2775 5.46875,-0.5875 8.3825,-0.78625 2.9125,-0.2125 5.92375,-0.45875 8.99,-0.58125 3.0675,-0.12625 6.18375,-0.23375 9.30375,-0.3 3.12125,-0.02 6.2425,-0.0125 9.3175,0.0613 3.07375,0.0275 6.09875,0.2425 9.02375,0.4175 2.92625,0.17 5.74875,0.47 8.42,0.78125 2.67375,0.30125 5.19125,0.685 7.505,1.09625 2.31375,0.4 4.425,0.8275 6.28,1.29125 1.8625,0.41 3.46,0.89125 4.77375,1.26875 1.31875,0.36 2.3225,0.77375 3.0175,0.99375 0.69125,0.24 1.06,0.36625 1.06,0.36625 0,0 -1.54625,-0.1825 -4.2525,-0.505 -1.35125,-0.14375 -2.98625,-0.315 -4.865,-0.47125 -0.9375,-0.0875 -1.935,-0.16875 -2.99125,-0.225 -1.055,-0.0575 -2.155,-0.175 -3.315,-0.22125 -2.31,-0.1325 -4.815,-0.225 -7.46,-0.33625 -2.64875,-0.06 -5.44125,-0.1225 -8.33125,-0.1875 -2.89,-0.0612 -5.8775,-0.0162 -8.91375,-0.0425 -3.035,-0.02 -6.1225,0.0288 -9.20875,0.0875 -3.0875,0.015 -6.17625,0.07 -9.2175,0.14625 -3.04375,0.0688 -6.03875,0.135 -8.9375,0.2 -2.9025,0.0688 -5.70875,0.13375 -8.36875,0.195 -2.665,0.0538 -5.185,0.105 -7.51125,0.15375 -4.655,0.0913 -8.5475,0.105 -11.2775,0.0675 -1.36375,0 -2.4425,-0.0675 -3.17375,-0.10625 -0.37,-0.0225 -0.66125,-0.055 -0.8425,-0.075 -0.18125,-0.0437 -0.275,-0.0663 -0.275,-0.0663"
       id="path4590"
       style="fill:#bbb83a;fill-opacity:1;fill-rule:nonzero;stroke:none" />
    <path
       d="m 491.43182,674.10676 c 0,0 -1.1975,0.24375 -3.29875,0.58375 -1.05375,0.14875 -2.31625,0.4125 -3.7975,0.53625 -1.47875,0.155 -3.1525,0.3325 -4.9875,0.465 -1.82875,0.0725 -3.8175,0.1775 -5.92375,0.1775 -2.105,-0.0925 -4.34125,-0.0175 -6.64,-0.305 -1.15125,-0.11625 -2.3225,-0.23375 -3.50875,-0.3525 -1.1825,-0.16875 -2.3775,-0.3775 -3.58,-0.59375 -1.20625,-0.18625 -2.41,-0.4725 -3.61,-0.7975 -1.1975,-0.33125 -2.42375,-0.56875 -3.6,-1.0125 -1.18125,-0.4175 -2.3625,-0.835 -3.53875,-1.2525 -1.14,-0.5175 -2.2775,-1.0325 -3.40375,-1.54375 -1.1325,-0.4975 -2.16625,-1.19125 -3.22,-1.78625 -0.51875,-0.31875 -1.05625,-0.5925 -1.545,-0.94 -0.48875,-0.34875 -0.9725,-0.69625 -1.45375,-1.04 -1.9825,-1.28625 -3.6025,-2.92 -5.20375,-4.3475 -1.43875,-1.605 -2.88875,-3.0275 -3.91875,-4.595 -0.545,-0.7525 -1.06625,-1.47375 -1.5625,-2.16 -0.4575,-0.71125 -0.83375,-1.42375 -1.215,-2.06875 -0.76625,-1.29125 -1.38375,-2.435 -1.7875,-3.435 -0.87,-1.96375 -1.31125,-3.09125 -1.31125,-3.09125 0,0 0.7825,0.955 2.055,2.63625 0.59875,0.865 1.46375,1.815 2.41,2.92 0.48,0.5475 0.95875,1.15 1.5175,1.73875 0.57,0.57625 1.1675,1.18125 1.7925,1.8125 0.30875,0.315 0.62375,0.63625 0.945,0.96375 0.32875,0.32 0.70375,0.605 1.06125,0.9175 0.71,0.6225 1.4425,1.2675 2.1975,1.92875 1.6375,1.1675 3.2775,2.48 5.16125,3.57375 0.46,0.28625 0.9225,0.57625 1.39,0.8675 0.465,0.2925 0.9825,0.51 1.475,0.77125 0.49875,0.25 1,0.5025 1.50375,0.7575 0.49875,0.2625 0.9925,0.5375 1.53,0.73875 1.04875,0.445 2.1075,0.89125 3.17,1.34125 1.095,0.375 2.195,0.75125 3.295,1.1275 1.08125,0.4275 2.23625,0.65625 3.35125,0.98125 1.1225,0.3075 2.235,0.6375 3.37625,0.84125 1.13,0.24625 2.2525,0.49 3.36,0.73125 1.125,0.185 2.23625,0.36875 3.32875,0.54875 1.09,0.2075 2.1775,0.3175 3.24125,0.46 1.065,0.14 2.1075,0.2775 3.12125,0.4125 2.04,0.185 3.97625,0.37125 5.76625,0.57125 1.79,0.105 3.43625,0.24625 4.90125,0.3725 1.4625,0.13 2.76125,0.17625 3.82,0.26125 2.12125,0.15 3.33625,0.28375 3.33625,0.28375"
       id="path4594"
       style="fill:#bbb83a;fill-opacity:1;fill-rule:nonzero;stroke:none" />
    <path
       d="m 414.91632,516.57263 c 0,0 0.0725,-0.705 0.28125,-1.90875 0.14,-0.59375 0.315,-1.3475 0.5975,-2.18 0.2975,-0.81875 0.63875,-1.76 1.18125,-2.7125 0.5125,-0.97125 1.16875,-1.99 2.005,-2.97625 0.405,-0.50625 0.905,-0.9525 1.385,-1.44375 0.53,-0.435 1.05125,-0.92125 1.66125,-1.305 1.17,-0.8475 2.54,-1.495 3.96875,-1.9975 1.4325,-0.525 2.96,-0.76375 4.47125,-0.90625 1.51875,-0.1175 3.02875,-0.0362 4.48,0.1725 1.4575,0.18625 2.84375,0.5675 4.14625,1.0025 2.605,0.88375 4.8375,2.14125 6.56,3.4475 0.8775,0.6275 1.6125,1.2975 2.2325,1.91125 0.6275,0.6075 1.11,1.20125 1.49375,1.69125 0.38,0.49625 0.63875,0.91125 0.805,1.19875 0.16375,0.28875 0.25125,0.4425 0.25125,0.4425 0,0 -0.15125,-0.0925 -0.4325,-0.26625 -0.26375,-0.1875 -0.69375,-0.4125 -1.19875,-0.72125 -1.045,-0.585 -2.54625,-1.33875 -4.38625,-2.0675 -3.66875,-1.4225 -8.75875,-2.81375 -13.6275,-2.44625 -1.2075,0.095 -2.4075,0.2625 -3.53375,0.58875 -1.1225,0.3325 -2.2225,0.71125 -3.21125,1.2525 -0.5225,0.225 -0.96,0.57375 -1.45,0.8325 -0.445,0.3225 -0.90125,0.62 -1.31625,0.9575 -0.8275,0.67125 -1.60125,1.36625 -2.26125,2.0775 -0.6625,0.71 -1.235,1.41375 -1.7525,2.04875 -0.4875,0.66125 -0.9125,1.24 -1.26125,1.715 -0.66375,1.025 -1.08875,1.5925 -1.08875,1.5925"
       id="path4598"
       style="fill:#bbb83a;fill-opacity:1;fill-rule:nonzero;stroke:none" />
    <path
       d="m 496.71382,497.13901 c -6.3925,0.36375 -37.7325,5.605 -41.53,10.6475 -0.88125,1.16375 9.49625,-2.395 18.52375,-1.79 -7.9075,1.67375 -14.77,6.01875 -16.0075,7.18125 -2.6025,2.44375 9.1675,-2.44625 13.33375,-2.83125 -2.615,2.63 -10.23875,11.3725 -10.615,13.62625 -0.38375,2.265 17.52375,-11.895 20.08125,-11.84125 -2.5975,2.43 -13.21375,17.64 -12.79625,19.4025 0.4225,1.7625 20.34875,-15.2275 21.97875,-15.8475 -1.85625,2.895 -6.41375,14.10375 -3.8975,12.6075 1.96125,-1.165 9.48625,-9.77875 14.8925,-11.72125 0.965,2.4725 0.965,7.87125 3.98875,8.33 1.66375,0.25875 1.55875,-6.63375 4.255,-9.10125 4.2075,0.8725 13.4175,6.15625 16.33125,7.4 4.535,1.95 -4.005,-9.915 -6.21875,-11.455 7.23375,0.48 14.305,6.9975 17.71625,8.2725 3.4275,1.2725 -4.26,-8.68625 -8.87125,-9.87 7.01,0.8375 19.1175,4.87625 22.10125,4.575 2.98625,-0.3025 -10.25375,-6.70125 -15.7575,-8.745 8.07375,-0.0163 11.52375,1.04 17.4125,1.185 3.96125,0.095 0.2325,-4.18375 -16.03125,-5.6725 -3.57375,-0.32375 19.8325,-1.8975 15.5975,-3.27125 -12.7975,-4.1675 -47.7,-1.46375 -54.4875,-1.08125"
       id="path4602"
       style="fill:#bbb83a;fill-opacity:1;fill-rule:nonzero;stroke:none" />
    <path
       d="m 354.30232,509.16776 c 8.5075,0.645 82.12125,-1.785 154.49375,-8.5525 79.97875,-7.49125 121.01,-22.13875 126.0425,-23.97625 10.5775,-3.8725 -41.18625,-2.10625 -46.06375,-2.015 9.48375,-4.12 20.39375,-5.14125 30.3825,-9.77125 9.98125,-4.63 -65.14875,-3.00875 -67.5225,-2.44 -5.58125,-15.0325 -29.14875,-67.9075 -35.92,-69.71 -6.76375,-1.79875 -15.265,32.875 -26.4125,29.20375 -8.13625,-7.97625 -21.87,-28.46 -29.805,-28.7925 -7.93,-0.3325 -28.93875,63.5625 -39.24875,86.0275 -18.71875,6.58125 -42.73375,9.25625 -50.98,12.34375 -8.24625,3.0825 22.8225,6.98625 22.8225,6.98625 0,0 -54.02,9.45875 -37.78875,10.69625"
       id="path4606"
       style="fill:#602f91;fill-opacity:1;fill-rule:nonzero;stroke:none" />
    <path
       d="m 340.13369,611.79476 c 0,0 -0.1925,-6.21875 9.90625,-10.03125 5.82,-2.1875 10.62,1.46625 12.725,-0.82 2.6975,-2.925 -0.37625,-10.08625 -4.42125,-12.22 -8.40875,-4.43375 -16.7775,-2.705 -24.80125,6.75875"
       id="path4610"
       style="fill:#ebe84d;fill-opacity:1;fill-rule:nonzero;stroke:none" />
    <path
       d="m 565.04582,713.96276 c -2.95625,0.64625 1.51875,8.77875 11.67,2.91875 7.25375,-4.19125 13.0225,-12.0275 10.865,-12.6375 -2.175,-0.6275 -6.8425,6.3275 -22.535,9.71875"
       id="path4614"
       style="fill:#fffad5;fill-opacity:1;fill-rule:nonzero;stroke:none" />
    <path
       d="m 590.69032,702.91288 c 2.68375,-0.71 7.07,-5.4425 4.14375,-5.4425 -5.5275,0 -6.82,6.1575 -4.14375,5.4425"
       id="path4618"
       style="fill:#fffad5;fill-opacity:1;fill-rule:nonzero;stroke:none" />
    <path
       d="m 398.22869,721.40901 c 2.84625,1.4375 -0.58375,5.2325 -7.5125,0.2625 -4.9625,-3.55375 -8.55875,-9.65375 -6.95375,-9.9425 1.625,-0.3025 4.0525,4.42875 14.46625,9.68"
       id="path4622"
       style="fill:#fffad5;fill-opacity:1;fill-rule:nonzero;stroke:none" />
    <path
       d="m 335.36807,604.51451 c -1.6075,2.705 -5.34875,-0.7925 0.0713,-7.30375 3.86875,-4.6525 10.29,-7.87625 10.52375,-6.31 0.23875,1.59875 -4.72875,3.73875 -10.595,13.61375"
       id="path4626"
       style="fill:#fffad5;fill-opacity:1;fill-rule:nonzero;stroke:none" />
    <path
       d="m 398.45157,637.20976 c 2.8525,-1.4425 4.06625,3.46875 -4.095,6.1375 -5.85,1.89 -13.035,1.25375 -12.36375,-0.1975 0.68375,-1.46375 6.0475,-0.66625 16.45875,-5.94"
       id="path4630"
       style="fill:#fffad5;fill-opacity:1;fill-rule:nonzero;stroke:none" />
    <path
       d="m 381.60707,710.55201 c -1.89125,-0.7075 -4.725,-4.455 -2.60125,-4.2525 4.0075,0.3925 4.49625,4.9575 2.60125,4.2525"
       id="path4634"
       style="fill:#fffad5;fill-opacity:1;fill-rule:nonzero;stroke:none" />
    <path
       d="m 353.30444,589.89288 c -1.7,1.07125 -6.48125,1.07125 -5.0575,-0.47625 2.695,-2.915 6.75875,-0.5925 5.0575,0.47625"
       id="path4638"
       style="fill:#fffad5;fill-opacity:1;fill-rule:nonzero;stroke:none" />
    <path
       d="m 453.23307,443.58913 c 0,0 7.77875,19.31 -18.22,31.17375 -15.90625,-7.73625 -39.6975,-53.77 -34.3925,-63.57875 5.29875,-9.80875 27.6725,27.76 52.6125,32.405"
       id="path4642"
       style="fill:#ebe84d;fill-opacity:1;fill-rule:nonzero;stroke:none" />
    <path
       d="m 519.39457,422.41976 c 0,0 0.13625,0.1125 0.36875,0.34625 0.20125,0.25 0.5675,0.64875 0.915,1.15375 0.75125,1.0075 1.73,2.49625 2.77875,4.35 1.0625,1.84375 2.17125,4.06125 3.25875,6.47875 1.075,2.425 2.09625,5.06375 2.99,7.7475 0.42375,1.34875 0.87625,2.6875 1.22625,4.0375 0.38,1.33875 0.72,2.6675 0.99875,3.96625 0.3,1.2925 0.53875,2.555 0.73125,3.75875 0.2125,1.19875 0.3925,2.33375 0.49125,3.3975 0.25875,2.1125 0.3475,3.88875 0.35125,5.1375 0.0225,1.24625 -0.01,1.96 -0.01,1.96 0,0 -0.29125,-0.66125 -0.72375,-1.82125 -0.21625,-0.58125 -0.47875,-1.28375 -0.75,-2.09375 -0.30375,-0.80375 -0.6425,-1.7075 -0.9675,-2.70125 -0.68125,-1.9725 -1.47625,-4.275 -2.3275,-6.74 -0.82375,-2.46375 -1.70125,-5.09375 -2.58125,-7.72 -0.86125,-2.6375 -1.72125,-5.27375 -2.52875,-7.74375 -0.3925,-1.24375 -0.77,-2.44625 -1.13,-3.5875 -0.36625,-1.1375 -0.6975,-2.22125 -0.9975,-3.22625 -0.61,-2.0125 -1.11625,-3.69 -1.47125,-4.86375 -0.18125,-0.58375 -0.32375,-1.0425 -0.42,-1.355 -0.1325,-0.31375 -0.2025,-0.48125 -0.2025,-0.48125"
       id="path4646"
       style="fill:#3f2667;fill-opacity:1;fill-rule:nonzero;stroke:none" />
    <path
       d="m 451.48369,431.63363 c 0,0 0.1175,0.2125 0.33875,0.61 0.215,0.40125 0.53625,0.98375 0.8875,1.765 0.3525,0.77625 0.78,1.72375 1.17375,2.84875 0.41125,1.11875 0.82875,2.40625 1.1725,3.8425 0.72875,2.86375 1.2,6.34375 1.03875,10.1375 -0.10625,1.8925 -0.38,3.8575 -0.88125,5.8175 -0.475,1.96625 -1.25875,3.9 -2.2075,5.74125 -0.96375,1.83625 -2.15,3.56625 -3.52875,5.06625 -1.3375,1.5375 -2.8675,2.84125 -4.4275,3.94125 -0.785,0.5475 -1.55625,1.08 -2.36875,1.50125 -0.785,0.4675 -1.59125,0.84 -2.37125,1.20625 -1.555,0.7375 -3.08375,1.28 -4.50875,1.6825 -1.40375,0.47375 -2.75,0.685 -3.91125,0.935 -1.18,0.18875 -2.20375,0.33625 -3.0525,0.41 -1.70125,0.1325 -2.6675,0.15125 -2.6675,0.15125 0,0 0.89875,-0.3975 2.46125,-0.995 0.76875,-0.325 1.70125,-0.71875 2.7725,-1.17 0.52625,-0.2325 1.07625,-0.5075 1.6575,-0.78125 0.58625,-0.26375 1.19375,-0.54875 1.80875,-0.88375 0.62,-0.32625 1.27375,-0.64 1.90625,-1.0425 0.6375,-0.38875 1.33,-0.72375 1.97375,-1.17625 0.65875,-0.4275 1.3375,-0.8575 1.97625,-1.3675 0.32625,-0.245 0.655,-0.49125 0.9875,-0.73875 0.3175,-0.265 0.63625,-0.53125 0.95875,-0.8 0.65875,-0.5225 1.2375,-1.1425 1.87,-1.71625 0.565,-0.6375 1.18625,-1.2375 1.7125,-1.92375 1.10125,-1.32875 2.0875,-2.78 2.88,-4.34 0.8175,-1.54375 1.5,-3.16875 1.99375,-4.84125 0.4975,-1.67 0.86125,-3.365 1.1125,-5.04 0.21875,-1.6775 0.36625,-3.32625 0.41375,-4.9075 0.0125,-1.57875 0.004,-3.0875 -0.0725,-4.48875 -0.1625,-2.79875 -0.46875,-5.16 -0.7025,-6.81875 -0.2525,-1.67 -0.39625,-2.625 -0.39625,-2.625"
       id="path4650"
       style="fill:#3f2667;fill-opacity:1;fill-rule:nonzero;stroke:none" />
    <path
       d="m 555.16357,470.29813 c 0,0 -1.52625,0.78875 -4.2225,2.105 -1.3825,0.5825 -3.07,1.3025 -5.0325,2.0825 -1.96875,0.7175 -4.18875,1.545 -6.645,2.34125 -2.46,0.75625 -5.115,1.66625 -7.9725,2.40125 -2.845,0.78875 -5.8475,1.62125 -8.9875,2.32875 -3.13,0.755 -6.37375,1.49 -9.685,2.15875 -3.315,0.6575 -6.68625,1.295 -10.06125,1.90875 -3.38875,0.5375 -6.77375,1.10125 -10.12,1.56375 -3.33625,0.525 -6.64625,0.85625 -9.84125,1.22875 -3.19,0.4075 -6.3025,0.6 -9.2375,0.86125 -2.94375,0.22125 -5.73125,0.37 -8.305,0.4725 -2.57875,0.0775 -4.93625,0.15625 -7.03375,0.1275 -2.0975,-0.02 -3.92125,-0.0462 -5.42375,-0.12 -3.00875,-0.18375 -4.71375,-0.33125 -4.71375,-0.33125 0,0 1.71125,-0.2225 4.6825,-0.5375 1.4825,-0.19 3.2825,-0.42 5.3475,-0.68375 2.05875,-0.285 4.38125,-0.6075 6.91375,-0.95875 2.5275,-0.37625 5.26625,-0.785 8.1625,-1.21625 2.89125,-0.45625 5.94125,-0.9375 9.095,-1.435 3.15125,-0.515 6.40625,-1.045 9.71375,-1.5875 3.31375,-0.505 6.6625,-1.12125 10.0175,-1.69625 3.3575,-0.56 6.71125,-1.14125 10.0075,-1.7425 3.28625,-0.64625 6.5525,-1.13625 9.67625,-1.77375 3.13375,-0.60125 6.16375,-1.18375 9.035,-1.73625 2.8775,-0.54625 5.56625,-1.16 8.0775,-1.6475 2.4925,-0.55625 4.77875,-1.06625 6.80375,-1.51875 1.99125,-0.525 3.75625,-0.9375 5.21,-1.2975 2.87875,-0.85 4.53875,-1.2975 4.53875,-1.2975"
       id="path4654"
       style="fill:#3f2667;fill-opacity:1;fill-rule:nonzero;stroke:none" />
    <path
       d="m 507.11907,424.48276 c 0,0 0.42875,0.56375 1.05375,1.62375 0.30625,0.53 0.72375,1.1675 1.1,1.93125 0.39375,0.75875 0.84,1.61625 1.28375,2.56875 0.475,0.94375 0.8925,1.99875 1.3375,3.1175 0.42875,1.12 0.96125,2.285 1.34,3.54 0.40375,1.2475 0.80625,2.54125 1.19125,3.86375 0.41875,1.31625 0.71625,2.68375 1.015,4.05125 0.28375,1.37125 0.575,2.74 0.8225,4.095 0.14625,0.6725 0.23875,1.35125 0.3075,2.025 0.075,0.67125 0.14875,1.335 0.22125,1.9875 0.145,1.30625 0.23625,2.57375 0.32875,3.77 0.035,0.6 0.11875,1.1775 0.10875,1.7475 -0.007,0.56875 -0.0162,1.11875 -0.025,1.645 -0.0238,2.10625 -0.13625,3.8575 -0.2325,5.08125 -0.0962,1.2225 -0.19625,1.91875 -0.19625,1.91875 0,0 -0.2275,-0.67875 -0.54875,-1.865 -0.32125,-1.185 -0.75375,-2.8725 -1.16375,-4.895 -0.2075,-1.01125 -0.425,-2.1025 -0.7175,-3.25 -0.27625,-1.1475 -0.5775,-2.35625 -0.8375,-3.60875 -0.2875,-1.24875 -0.48125,-2.5575 -0.8175,-3.86 -0.32375,-1.305 -0.615,-2.63875 -0.91125,-3.96875 -0.26875,-1.3375 -0.5475,-2.67375 -0.8775,-3.9775 -0.315,-1.30625 -0.6,-2.5975 -0.86,-3.855 -0.255,-1.26 -0.565,-2.45875 -0.81125,-3.6125 -0.285,-1.1425 -0.45625,-2.25875 -0.705,-3.25875 -0.46875,-2.01125 -0.78125,-3.72375 -1.04125,-4.91375 -0.2325,-1.21 -0.365,-1.90125 -0.365,-1.90125"
       id="path4658"
       style="fill:#3f2667;fill-opacity:1;fill-rule:nonzero;stroke:none" />
    <path
       d="m 534.96394,434.30576 c 0,0 -0.58875,0.0937 -1.6,0.23 -0.505,0.0563 -1.11875,0.1575 -1.81625,0.225 -0.69875,0.0788 -1.485,0.19625 -2.3375,0.26125 -3.41375,0.41 -7.90125,0.80625 -12.325,1.3775 -1.10875,0.12375 -2.2,0.3275 -3.29125,0.44875 -1.07,0.205 -2.13875,0.35375 -3.16375,0.535 -1.02,0.205 -2.00625,0.4025 -2.94125,0.59125 -0.91875,0.23875 -1.81375,0.42 -2.63625,0.6125 -0.79,0.2575 -1.54,0.46 -2.21375,0.64125 -0.68375,0.16375 -1.22125,0.4225 -1.70875,0.57125 -0.95375,0.3325 -1.54125,0.49625 -1.54125,0.49625 0,0 0.39375,-0.43 1.15625,-1.135 0.39375,-0.3325 0.8275,-0.83875 1.44,-1.21125 0.5925,-0.4125 1.27125,-0.88 2.03875,-1.3525 0.78125,-0.43 1.6475,-0.86375 2.58,-1.30625 0.93875,-0.4125 1.95625,-0.75875 3.0125,-1.135 1.06375,-0.3275 2.1775,-0.6125 3.315,-0.88625 1.14125,-0.2175 2.30625,-0.43875 3.475,-0.59125 1.1725,-0.1125 2.3425,-0.2775 3.5,-0.3 1.15375,-0.0638 2.2925,-0.0825 3.39,-0.0437 2.1975,0.0387 4.23875,0.26375 5.9725,0.54375 1.735,0.27875 3.16375,0.62375 4.1525,0.91625 0.99125,0.2825 1.5425,0.51125 1.5425,0.51125"
       id="path4662"
       style="fill:#3f2667;fill-opacity:1;fill-rule:nonzero;stroke:none" />
    <path
       d="m 538.35444,448.09113 c 0,0 -0.64,0.14125 -1.745,0.35875 -1.105,0.21375 -2.67625,0.5125 -4.55125,0.82875 -0.93375,0.16125 -1.94625,0.33625 -3.0175,0.52125 -1.0675,0.1725 -2.1925,0.35375 -3.35625,0.5425 -1.15875,0.1875 -2.35625,0.3825 -3.57375,0.58125 -1.21125,0.22375 -2.45375,0.3725 -3.67875,0.6125 -1.2325,0.2 -2.46375,0.4025 -3.67125,0.62375 -0.60375,0.11125 -1.20625,0.21125 -1.8025,0.3025 -0.59125,0.11125 -1.17625,0.22125 -1.75125,0.32875 -1.15625,0.2 -2.27375,0.395 -3.32625,0.61375 -1.0575,0.20625 -2.0775,0.34875 -2.99625,0.555 -0.9225,0.2 -1.785,0.3475 -2.5525,0.47625 -0.75125,0.17375 -1.42125,0.295 -1.97375,0.4025 -1.10625,0.20875 -1.7625,0.29125 -1.7625,0.29125 0,0 0.525,-0.3825 1.4875,-0.98625 0.48375,-0.2975 1.06625,-0.67375 1.76,-1.0575 0.69875,-0.36375 1.4925,-0.77125 2.37625,-1.17625 0.875,-0.4375 1.85,-0.825 2.89125,-1.22375 1.03625,-0.4125 2.14875,-0.79125 3.3125,-1.13 1.15875,-0.36625 2.36875,-0.69375 3.6125,-0.965 1.235,-0.3125 2.50875,-0.52875 3.78,-0.75625 5.0975,-0.8625 10.27875,-1.015 14.14,-0.69875 1.93,0.1225 3.53375,0.36625 4.65125,0.57 1.1175,0.2025 1.7475,0.385 1.7475,0.385"
       id="path4666"
       style="fill:#3f2667;fill-opacity:1;fill-rule:nonzero;stroke:none" />
    <path
       d="m 333.54244,555.63876 c -0.97625,2.15 1.42625,8.60875 6.2425,9.67 7.60875,1.67875 18.17625,2.5775 22.40375,1.125 4.2225,-1.43375 7.295,-11.30875 5.49375,-10.795 -1.8,0.51625 -5.49375,6.57875 -10.57125,6.89375 -5.06625,0.31 -15.84875,-1.1275 -16.9025,-2.05875 -1.06375,-0.91875 -5.82625,-6.6825 -6.66625,-4.835"
       id="path4670"
       style="fill:#3f2667;fill-opacity:1;fill-rule:nonzero;stroke:none" />
    <path
       d="m 573.40882,570.69251 c -4.25,6.4325 -11.15,11.095 -20.27875,12.06625 -7.60875,0.81375 -15.21625,-0.275 -22.91375,1.0375 -8.56875,1.46375 -16.80375,4.42625 -25.135,6.81375 -19.75375,5.66 -50.08125,11.985 -62.9825,-9.40875 -13.3675,-22.16 -11.3475,-50.76875 19.6675,-48.18875 23.1525,1.92625 50.705,10.18625 73.2175,1.33375 6.815,-2.67875 11.85,-8.365 19.54,-8.745 7.57625,-0.37625 14.22875,3.865 18.30875,10.065 7.3825,11.22625 7.075,25.19125 0.57625,35.02625"
       id="path4674"
       style="fill:#00a9a9;fill-opacity:1;fill-rule:nonzero;stroke:none" />
    <path
       d="m 511.84994,575.57401 c 7.3,-1.18875 7.32625,-9.71625 5.855,-15.34625 -1.52125,-5.82375 -4.45625,-12.06625 -10.07125,-6.145 -5.84625,6.1625 -9.10125,23.65375 4.21625,21.49125"
       id="path4678"
       style="fill:#03918d;fill-opacity:1;fill-rule:evenodd;stroke:none" />
    <path
       d="m 600.17032,611.99976 c 3.42,8.18 4.6375,18.97125 1.26375,27.2325 -7.7325,18.92625 -32.665,26.26875 -50.74,19.17875 -23.27875,-9.13625 -32.975,-28.8825 -39.45375,-51.4875 -2.6575,-9.27875 -7.1075,-42.8275 12.145,-38.15375 10.3675,2.52 15.80125,23.46375 25.23375,29.885 3.935,2.68 12.24125,7.4875 17.15625,6.255 6.675,-1.67125 4.50125,-17.03625 10.3425,-17.99375 2.725,-0.44375 18.97625,12.9475 24.0525,25.08375"
       id="path4682"
       style="fill:#ebe84d;fill-opacity:1;fill-rule:nonzero;stroke:none" />
    <path
       d="m 587.01357,655.38113 c 0,0 -0.43,0.27875 -1.27,0.7525 -0.8375,0.475 -2.0875,1.145 -3.74125,1.8675 -1.64875,0.74125 -3.70625,1.51875 -6.12625,2.26 -2.42125,0.745 -5.23,1.3475 -8.34875,1.77875 -3.1225,0.37 -6.57,0.4925 -10.2125,0.14 -3.6275,-0.4175 -7.4575,-1.25875 -11.18125,-2.825 -1.875,-0.77 -3.655,-1.7325 -5.47375,-2.82125 l -1.25,-0.7925 -1.29875,-0.8825 c -0.86375,-0.60375 -1.695,-1.2075 -2.515,-1.85875 -3.3025,-2.5625 -6.2725,-5.62375 -8.9425,-8.88875 -2.665,-3.275 -4.96625,-6.82125 -6.88125,-10.475 -1.925,-3.6475 -3.51875,-7.375 -4.79125,-11.06 -1.26875,-3.68875 -2.2375,-7.325 -3.01125,-10.79375 -0.7375,-3.47625 -1.24875,-6.7925 -1.6275,-9.85875 -0.7075,-6.14 -0.79875,-11.28 -0.71,-14.86375 0.1025,-3.58625 0.345,-5.61875 0.345,-5.61875 0,0 0.06,2.045 0.42125,5.59 0.35125,3.5425 0.97625,8.59125 2.185,14.535 0.595,2.9725 1.345,6.1675 2.305,9.48875 0.93375,3.3275 2.06125,6.79125 3.47125,10.26375 1.40125,3.4725 2.99625,6.9975 4.94375,10.3825 1.95375,3.3775 4.1425,6.6775 6.6525,9.7075 2.51,3.0275 5.32625,5.78125 8.3425,8.17375 0.74375,0.60625 1.52625,1.18625 2.285,1.72875 l 1.1525,0.805 1.24125,0.805 c 1.54375,0.94875 3.1725,1.87375 4.82625,2.5775 3.2825,1.51625 6.69125,2.47375 10.00125,3.00375 3.30625,0.57125 6.5225,0.7025 9.49375,0.61125 5.95875,-0.1675 10.925,-1.24375 14.3575,-2.10375 1.715,-0.45 3.0575,-0.85625 3.97,-1.145 0.91,-0.29625 1.3875,-0.48375 1.3875,-0.48375"
       id="path4686"
       style="fill:#bbb83a;fill-opacity:1;fill-rule:nonzero;stroke:none" />
    <path
       d="m 526.89944,573.22413 c 2.19125,2.14 5.25625,7.23 6.31375,9.8425 -0.2075,0.13875 -0.40375,0.29125 -0.59375,0.44875 -1.915,-1.6725 -3.25875,-4.05 -5.7075,-5.4825 -2.48,-1.45 -10.38,-0.93125 -10.6575,-4.405 -0.50625,-6.30125 8.5975,-2.405 10.645,-0.40375"
       id="path4690"
       style="fill:#fffad5;fill-opacity:1;fill-rule:nonzero;stroke:none" />
    <path
       d="m 574.38294,589.26301 c 0,0 0.0687,0.82 0.0137,2.25125 -0.06,1.42875 -0.21125,3.47625 -0.78125,5.91125 -0.29875,1.2175 -0.6425,2.54625 -1.3,3.93 -0.14125,0.34875 -0.33,0.6975 -0.54375,1.04875 -0.20375,0.3525 -0.4025,0.71 -0.69625,1.06125 -0.27875,0.35375 -0.52375,0.72 -0.935,1.04625 -0.3675,0.33875 -0.75125,0.6725 -1.30125,0.92375 -0.24375,0.12625 -0.54625,0.28 -0.755,0.36375 l -0.53375,0.1975 c -0.37875,0.12875 -0.76,0.26125 -1.14375,0.39125 -0.795,0.25625 -1.6425,0.4875 -2.5325,0.62875 -1.77875,0.31375 -3.68125,0.25625 -5.49625,-0.085 -0.88,-0.2425 -1.79125,-0.435 -2.60625,-0.8 -0.41625,-0.16625 -0.83625,-0.32625 -1.23875,-0.50875 l -1.15,-0.62125 c -0.785,-0.3875 -1.46875,-0.88 -2.14875,-1.36375 -0.70125,-0.45875 -1.3225,-0.9775 -1.915,-1.50625 -1.24625,-1.00125 -2.235,-2.14875 -3.23,-3.17625 -0.915,-1.0925 -1.74625,-2.14625 -2.47,-3.14 -0.705,-1.0075 -1.31125,-1.9575 -1.8425,-2.7975 -0.53,-0.84 -0.91,-1.62875 -1.25125,-2.25375 -0.665,-1.2625 -0.9975,-2.0075 -0.9975,-2.0075 0,0 0.6425,0.52125 1.68625,1.475 0.515,0.47875 1.14125,1.05875 1.85875,1.72375 0.73625,0.6425 1.56,1.3625 2.415,2.1775 0.89625,0.76 1.86625,1.5825 2.8925,2.45125 1.0675,0.79 2.1225,1.715 3.31125,2.47375 0.58375,0.4 1.1625,0.8225 1.78875,1.1575 0.61625,0.35625 1.225,0.7425 1.87125,1.0225 l 0.9575,0.46375 0.98,0.36375 c 0.64625,0.28875 1.3175,0.39125 1.97625,0.58125 1.3275,0.26 2.65625,0.32 3.99625,0.17375 0.67,-0.0813 1.34625,-0.205 2.0375,-0.36375 0.355,-0.0913 0.70875,-0.18125 1.06,-0.26875 l 0.55,-0.145 c 0.1475,-0.0437 0.17375,-0.0775 0.27125,-0.105 0.6925,-0.21875 1.5975,-1.18625 2.26875,-2.185 0.70375,-1.01 1.2875,-2.12375 1.805,-3.15875 0.495,-1.05 0.95,-2.0375 1.3275,-2.9275 0.37375,-0.9 0.7,-1.68625 0.9675,-2.33375 0.53,-1.31625 0.83375,-2.07 0.83375,-2.07"
       id="path4694"
       style="fill:#bbb83a;fill-opacity:1;fill-rule:nonzero;stroke:none" />
  </g>
</svg>
