<?xml version="1.0" encoding="UTF-8" standalone="no"?>
<!-- Created with Inkscape (http://www.inkscape.org/) -->

<svg
   xmlns:dc="http://purl.org/dc/elements/1.1/"
   xmlns:cc="http://creativecommons.org/ns#"
   xmlns:rdf="http://www.w3.org/1999/02/22-rdf-syntax-ns#"
   xmlns:svg="http://www.w3.org/2000/svg"
   xmlns="http://www.w3.org/2000/svg"
   version="1.1"
   width="1122.2954"
   height="376.03201"
   id="svg19247"
   viewBox="0 0 1122.2954 376.03201">
  <defs
     id="defs19249">
    <clipPath
       id="clipPath12554">
      <path
         d="m 0,6615.635 990,0 L 990,0 0,0 0,6615.635 z"
         id="path12556" />
    </clipPath>
  </defs>
  <metadata
     id="metadata19252">
    <rdf:RDF>
      <cc:Work
         rdf:about="">
        <dc:format>image/svg+xml</dc:format>
        <dc:type
           rdf:resource="http://purl.org/dc/dcmitype/StillImage" />
        <dc:title></dc:title>
      </cc:Work>
    </rdf:RDF>
  </metadata>
  <g
     transform="translate(261.14772,-244.34619)"
     id="layer1">
    <g
       transform="matrix(1.25,0,0,-1.25,-320.07759,4234.6617)"
       id="g12550">
      <g
         clip-path="url(#clipPath12554)"
         id="g12552">
        <g
           transform="translate(886.0645,2924.1445)"
           id="g12558">
          <path
             d="m 0,0 c 0,-5.851 -51.055,-10.58 -114.05,-10.58 -63,0 -114.065,4.729 -114.065,10.58 0,5.838 51.065,10.59 114.065,10.59 C -51.055,10.59 0,5.838 0,0"
             id="path12560"
             style="fill:#b12e41;fill-opacity:1;fill-rule:nonzero;stroke:none" />
        </g>
        <g
           transform="translate(707.1426,3016.3613)"
           id="g12562">
          <path
             d="m 0,0 c -28.494,12.833 -53.355,66.97 -57.639,81.54 -4.277,14.586 16.718,30.343 21.264,29.005 4.532,-1.34 19.738,-5.26 18.309,-11.535 -1.423,-6.277 -7.371,-12.469 -8.326,-13.844 2.986,-1.76 32.184,-35.094 43.4,-49.924 C 12.739,18.771 7.598,8.603 0,0"
             id="path12564"
             style="fill:#00a9a9;fill-opacity:1;fill-rule:nonzero;stroke:none" />
        </g>
        <g
           transform="translate(678.127,3102.6895)"
           id="g12566">
          <path
             d="m 0,0 c 0,0 -3.548,3.85 -5.776,2.193 -2.22,-1.649 0.638,-5.685 1.508,-6.268 1.274,1.058 3.788,3.179 4.25,3.896"
             id="path12568"
             style="fill:#ebe84d;fill-opacity:1;fill-rule:nonzero;stroke:none" />
        </g>
        <g
           transform="translate(686.4023,3111.7344)"
           id="g12570">
          <path
             d="m 0,0 c 0,0 -2.982,-5.396 -5.838,-7.519 -3.537,3.71 -4.719,5.851 -3.121,8.726 C -7.357,4.071 -1.691,1.257 0,0"
             id="path12572"
             style="fill:#ebe84d;fill-opacity:1;fill-rule:nonzero;stroke:none" />
        </g>
        <g
           transform="translate(657.0684,3098.8467)"
           id="g12574">
          <path
             d="m 0,0 c 0,0 0.162,-0.044 0.465,-0.126 0.3,-0.103 0.746,-0.17 1.294,-0.288 0.558,-0.107 1.241,-0.193 2.017,-0.288 0.775,-0.1 1.661,-0.138 2.608,-0.203 1.898,-0.069 4.135,-0.064 6.325,0.297 0.539,0.103 1.064,0.232 1.563,0.38 l 0.666,0.26 c 0.275,0.138 0.608,0.28 0.841,0.405 0.984,0.505 2.053,1.154 3.036,1.846 3.997,2.811 7.451,6.561 9.825,9.531 1.17,1.506 2.064,2.837 2.632,3.825 0.271,0.495 0.494,0.893 0.623,1.174 0.132,0.284 0.204,0.435 0.204,0.435 0,0 0.002,-0.169 0.006,-0.484 C 32.093,16.449 32.077,15.979 31.979,15.393 31.792,14.221 31.354,12.55 30.484,10.702 29.654,8.833 28.412,6.782 26.81,4.782 25.205,2.787 23.231,0.84 20.932,-0.756 19.769,-1.556 18.58,-2.243 17.231,-2.828 16.888,-2.988 16.62,-3.073 16.312,-3.193 15.888,-3.339 15.551,-3.432 15.173,-3.536 14.813,-3.603 14.454,-3.683 14.102,-3.731 13.754,-3.765 13.409,-3.797 13.067,-3.829 11.717,-3.908 10.456,-3.806 9.281,-3.648 8.105,-3.502 7.027,-3.22 6.043,-2.958 4.078,-2.404 2.525,-1.69 1.505,-1.085 0.989,-0.784 0.603,-0.506 0.368,-0.309 0.128,-0.107 0,0 0,0"
             id="path12576"
             style="fill:#037b78;fill-opacity:1;fill-rule:nonzero;stroke:none" />
        </g>
        <g
           transform="translate(895.0254,3063.3418)"
           id="g12578">
          <path
             d="m 0,0 c 0,0 -46.382,-83.352 11.769,-80.13 -26.924,-24.888 -46.163,-48.899 -91.67,-30.786 -45.508,18.105 -76.463,83.766 -69.818,113.68 6.639,29.923 28.022,33.91 39.501,35.506 C -98.728,39.854 -11.437,5.895 0,0"
             id="path12580"
             style="fill:#037b78;fill-opacity:1;fill-rule:nonzero;stroke:none" />
        </g>
        <g
           transform="translate(861.252,2966.4902)"
           id="g12582">
          <path
             d="m 0,0 c -35.41,-7.453 -90.939,8.328 -102.789,58.432 -9.189,38.83 10.037,64.369 30.823,66.406 8.927,0.869 32.982,-25.032 67.481,-30.288 19.261,-2.929 42.798,-10.858 59.641,3.054 11.086,9.16 18.655,22.683 19.803,37.118 0.433,5.294 -0.022,10.987 -1.233,16.169 -5.534,23.666 -22.616,41.679 -44.733,50.832 -17.57,7.273 -36.571,11.344 -55.491,12.853 -15.641,1.241 -31.63,0.822 -46.84,-3.336 -12.219,-3.33 -23.988,-8.551 -34.739,-15.238 -10.548,-6.569 -19.995,-14.784 -27.44,-24.77 -7.978,-10.691 -13.435,-22.92 -18.476,-35.211 -0.628,-1.52 -1.377,-3.047 -1.875,-4.625 -6.314,-19.883 -8.181,-41.412 -5.337,-62.083 1.463,-10.591 4.224,-21.049 8.592,-30.823 2.142,-4.79 4.672,-9.417 7.606,-13.77 3.926,-5.824 6.876,-9.498 3.222,-16.288 -5.168,-9.617 5.971,-20.051 11.364,-27.185 4.127,-5.454 7.56,-10.656 15.31,-9.692 6.96,0.869 13.09,4.927 19.971,6.276 17.08,3.358 34.884,5.013 48.155,-8.405 4.505,-4.559 8.541,-9.826 13.958,-13.367 5.95,-3.889 12.351,-3.374 19.211,-3.166 8.059,0.252 24.003,-1.744 29.61,5.74 2.661,3.553 -0.05,8.34 -0.612,12.068 -1.617,10.697 21.932,16.461 29.16,18.102 11.118,2.533 26.998,10.765 23.271,25.2 -2.197,8.538 -11.845,12.96 -30.901,0.735 C 28.497,9.464 15.124,3.191 0,0"
             id="path12584"
             style="fill:#00a9a9;fill-opacity:1;fill-rule:nonzero;stroke:none" />
        </g>
        <g
           transform="translate(801.2783,3096.8164)"
           id="g12586">
          <path
             d="M 0,0 C 0,0 -0.688,0.398 -1.854,1.128 -2.468,1.437 -3.146,1.863 -3.992,2.256 -4.819,2.678 -5.788,3.06 -6.824,3.472 -7.36,3.637 -7.906,3.828 -8.479,3.99 c -0.587,0.121 -1.166,0.322 -1.788,0.42 -1.231,0.239 -2.535,0.404 -3.886,0.434 -1.351,0.024 -2.744,-0.035 -4.147,-0.259 -1.401,-0.202 -2.815,-0.52 -4.193,-0.975 -1.39,-0.413 -2.739,-0.974 -4.043,-1.589 -1.305,-0.611 -2.55,-1.312 -3.723,-2.048 -1.182,-0.725 -2.26,-1.53 -3.273,-2.313 -0.995,-0.803 -1.923,-1.594 -2.727,-2.384 -0.799,-0.794 -1.504,-1.555 -2.097,-2.266 -0.578,-0.721 -1.068,-1.37 -1.445,-1.93 -0.355,-0.569 -0.659,-1.018 -0.818,-1.348 -0.185,-0.323 -0.282,-0.495 -0.282,-0.495 0,0 0.027,0.197 0.08,0.564 0.049,0.373 0.154,0.911 0.35,1.589 0.206,0.671 0.485,1.487 0.913,2.376 0.209,0.448 0.464,0.905 0.721,1.402 0.289,0.47 0.589,0.975 0.941,1.471 0.684,1.011 1.509,2.049 2.468,3.074 0.976,1.004 2.05,2.035 3.281,2.955 1.22,0.932 2.546,1.825 3.992,2.568 1.429,0.771 2.963,1.416 4.551,1.912 0.787,0.266 1.606,0.438 2.411,0.639 0.82,0.146 1.633,0.303 2.458,0.365 1.636,0.19 3.275,0.143 4.833,-0.037 1.561,-0.178 3.039,-0.557 4.386,-1.026 0.677,-0.226 1.305,-0.527 1.916,-0.79 0.597,-0.301 1.155,-0.623 1.693,-0.915 0.518,-0.329 1.01,-0.65 1.465,-0.966 C -3.991,4.094 -3.598,3.74 -3.214,3.436 -2.441,2.835 -1.873,2.158 -1.374,1.683 -0.912,1.171 -0.59,0.731 -0.351,0.448 -0.122,0.156 0,0 0,0"
             id="path12588"
             style="fill:#037b78;fill-opacity:1;fill-rule:nonzero;stroke:none" />
        </g>
        <g
           transform="translate(775.7432,2974.2539)"
           id="g12590">
          <path
             d="m 0,0 c 0,0 1.525,-0.761 4.163,-2.143 1.325,-0.675 2.901,-1.576 4.756,-2.483 1.864,-0.885 3.962,-1.878 6.221,-2.999 1.12,-0.574 2.368,-1.031 3.612,-1.581 1.247,-0.544 2.537,-1.107 3.862,-1.685 1.315,-0.602 2.737,-1.048 4.148,-1.599 1.415,-0.536 2.862,-1.084 4.333,-1.641 1.496,-0.479 3.017,-0.967 4.556,-1.46 0.77,-0.247 1.543,-0.495 2.321,-0.745 0.788,-0.21 1.58,-0.422 2.376,-0.634 1.59,-0.421 3.187,-0.873 4.801,-1.276 1.63,-0.332 3.266,-0.664 4.903,-0.997 1.624,-0.398 3.282,-0.587 4.923,-0.847 1.644,-0.24 3.276,-0.541 4.915,-0.633 1.634,-0.145 3.256,-0.29 4.859,-0.432 1.607,-0.052 3.195,-0.103 4.758,-0.153 0.39,-0.012 0.78,-0.024 1.168,-0.036 0.387,0.014 0.772,0.028 1.155,0.041 0.768,0.022 1.528,0.044 2.28,0.067 0.754,0.015 1.499,0.032 2.237,0.049 0.734,0.037 1.456,0.125 2.171,0.183 1.427,0.14 2.826,0.234 4.168,0.401 1.338,0.2 2.632,0.392 3.875,0.578 1.254,0.143 2.414,0.47 3.541,0.693 1.121,0.244 2.2,0.436 3.194,0.69 1.961,0.584 3.714,1.007 5.125,1.455 2.791,0.976 4.421,1.509 4.421,1.509 0,0 -1.487,-0.812 -4.15,-2.195 -1.349,-0.642 -3.036,-1.322 -4.972,-2.124 -0.978,-0.371 -2.043,-0.689 -3.157,-1.067 -1.12,-0.356 -2.291,-0.777 -3.552,-1.043 -1.257,-0.303 -2.567,-0.62 -3.922,-0.946 -1.363,-0.29 -2.795,-0.459 -4.259,-0.703 -0.734,-0.107 -1.476,-0.246 -2.232,-0.332 -0.758,-0.066 -1.526,-0.133 -2.301,-0.2 -0.777,-0.063 -1.564,-0.125 -2.357,-0.189 -0.396,-0.029 -0.795,-0.058 -1.196,-0.087 -0.401,-0.004 -0.805,-0.007 -1.209,-0.01 -1.62,-0.011 -3.267,-0.022 -4.935,-0.032 -1.665,0.061 -3.348,0.193 -5.045,0.317 -1.703,0.076 -3.394,0.362 -5.099,0.588 -1.701,0.25 -3.425,0.422 -5.106,0.817 -1.687,0.365 -3.372,0.732 -5.052,1.095 -1.66,0.437 -3.301,0.923 -4.935,1.378 -0.815,0.232 -1.628,0.464 -2.435,0.693 -0.79,0.287 -1.575,0.572 -2.356,0.856 -1.559,0.567 -3.1,1.127 -4.616,1.678 -1.49,0.61 -2.941,1.246 -4.355,1.879 -1.406,0.653 -2.82,1.201 -4.12,1.899 -2.617,1.359 -5.1,2.609 -7.323,3.901 -2.209,1.323 -4.207,2.569 -5.971,3.671 C 6.424,-4.732 5.002,-3.615 3.778,-2.767 1.362,-1.024 0,0 0,0"
             id="path12592"
             style="fill:#037b78;fill-opacity:1;fill-rule:nonzero;stroke:none" />
        </g>
        <g
           transform="translate(816.4805,3094.9199)"
           id="g12594">
          <path
             d="M 0,0 C 0.966,-11.607 21.111,-19.77 29.01,-17.386 36.914,-15.01 46.727,0.125 44.998,9.593 43.208,19.411 25.692,27.352 17.395,25.951 9.215,24.575 -0.886,10.687 0,0"
             id="path12596"
             style="fill:#fffad5;fill-opacity:1;fill-rule:nonzero;stroke:none" />
        </g>
        <g
           transform="translate(847.4023,3088.6504)"
           id="g12598">
          <path
             d="m 0,0 c -5.073,-5.479 -17.027,0.736 -18.329,5.108 -1.296,4.376 1.821,13.523 6.57,15.954 C -7.02,23.499 4.32,15.81 4.512,12.275 4.718,8.749 2.401,2.575 0,0"
             id="path12600"
             style="fill:#602f91;fill-opacity:1;fill-rule:nonzero;stroke:none" />
        </g>
        <g
           transform="translate(851.4238,3100.9375)"
           id="g12602">
          <path
             d="m 0,0 c -1.85,-3.408 -6.128,-4.707 -9.552,-2.865 -3.42,1.863 -4.698,6.136 -2.843,9.564 1.842,3.427 6.122,4.691 9.542,2.856 C 0.569,7.689 1.845,3.42 0,0"
             id="path12604"
             style="fill:#fffbdf;fill-opacity:1;fill-rule:nonzero;stroke:none" />
        </g>
        <g
           transform="translate(853.7803,3116.5322)"
           id="g12606">
          <path
             d="m 0,0 c -6.791,4.728 -14.514,6.539 -19.973,5.621 -8.902,-1.497 -19.888,-16.62 -18.926,-28.231 0.203,-2.487 6.185,-11.28 8.496,-12.275 0,0 -4.506,19.656 16.062,30.639 C -5.624,0.415 0,0 0,0"
             id="path12608"
             style="fill:#037b78;fill-opacity:1;fill-rule:nonzero;stroke:none" />
        </g>
        <g
           transform="translate(874.502,3107.3418)"
           id="g12610">
          <path
             d="M 0,0 C 0.956,-11.603 21.118,-19.75 29.013,-17.385 36.912,-15 46.723,0.123 44.991,9.603 43.202,19.416 25.687,27.356 17.396,25.955 9.22,24.58 -0.879,10.688 0,0"
             id="path12612"
             style="fill:#fffad5;fill-opacity:1;fill-rule:nonzero;stroke:none" />
        </g>
        <g
           transform="translate(905.4209,3101.0859)"
           id="g12614">
          <path
             d="m 0,0 c -5.069,-5.496 -17.021,0.728 -18.313,5.106 -1.294,4.373 1.804,13.528 6.555,15.961 4.739,2.43 16.08,-5.262 16.279,-8.8 C 4.723,8.751 2.401,2.57 0,0"
             id="path12616"
             style="fill:#602f91;fill-opacity:1;fill-rule:nonzero;stroke:none" />
        </g>
        <g
           transform="translate(909.4404,3113.3682)"
           id="g12618">
          <path
             d="m 0,0 c -1.847,-3.421 -6.127,-4.692 -9.556,-2.85 -3.404,1.852 -4.691,6.132 -2.835,9.54 1.842,3.432 6.115,4.711 9.539,2.868 C 0.567,7.692 1.851,3.423 0,0"
             id="path12620"
             style="fill:#fffbdf;fill-opacity:1;fill-rule:nonzero;stroke:none" />
        </g>
        <g
           transform="translate(920.3057,3107.4531)"
           id="g12622">
          <path
             d="m 0,0 c 0.981,3.211 1.349,6.36 0.855,9.079 -1.965,10.736 -21.127,19.439 -30.206,17.907 -4.892,-0.818 -10.409,-5.74 -14.246,-11.935 0,0 10.701,2.037 24.209,-2.422 C -6.349,8.303 0,0 0,0"
             id="path12624"
             style="fill:#037b78;fill-opacity:1;fill-rule:nonzero;stroke:none" />
        </g>
        <g
           transform="translate(874.9834,3096.5957)"
           id="g12626">
          <path
             d="m 0,0 c 0,0 0.437,-0.563 1.14,-1.573 0.387,-0.476 0.808,-1.06 1.34,-1.698 0.523,-0.648 1.159,-1.328 1.835,-2.061 0.36,-0.344 0.734,-0.701 1.122,-1.072 0.415,-0.336 0.81,-0.713 1.25,-1.057 0.888,-0.679 1.826,-1.374 2.877,-1.944 1.04,-0.586 2.148,-1.115 3.323,-1.516 1.17,-0.407 2.387,-0.747 3.639,-0.925 1.246,-0.203 2.514,-0.314 3.772,-0.301 1.255,0.02 2.501,0.092 3.701,0.277 1.195,0.193 2.361,0.413 3.444,0.729 1.085,0.305 2.113,0.637 3.04,1.011 0.468,0.181 0.905,0.379 1.322,0.571 0.428,0.176 0.817,0.375 1.185,0.563 0.73,0.386 1.38,0.726 1.888,1.052 0.518,0.314 0.927,0.57 1.195,0.759 0.281,0.181 0.43,0.277 0.43,0.277 0,0 -0.097,-0.149 -0.277,-0.428 -0.187,-0.274 -0.452,-0.693 -0.861,-1.166 -0.389,-0.491 -0.902,-1.062 -1.551,-1.656 -0.64,-0.604 -1.404,-1.256 -2.317,-1.855 -0.898,-0.624 -1.929,-1.228 -3.078,-1.756 -1.144,-0.542 -2.414,-0.978 -3.758,-1.336 -1.348,-0.351 -2.783,-0.571 -4.256,-0.654 -1.473,-0.102 -2.986,0.016 -4.478,0.238 -2.987,0.478 -5.868,1.689 -8.15,3.349 -1.164,0.802 -2.139,1.76 -3.011,2.685 C 4.343,-9.01 3.956,-8.527 3.59,-8.061 3.259,-7.568 2.939,-7.094 2.634,-6.637 2.361,-6.161 2.091,-5.717 1.857,-5.28 1.65,-4.832 1.454,-4.407 1.27,-4.008 0.895,-3.218 0.687,-2.463 0.473,-1.885 0.143,-0.697 0,0 0,0"
             id="path12628"
             style="fill:#037b78;fill-opacity:1;fill-rule:nonzero;stroke:none" />
        </g>
        <g
           transform="translate(882.5156,3134.9883)"
           id="g12630">
          <path
             d="m 0,0 c 0,0 0.149,0.37 0.437,0.999 0.141,0.315 0.336,0.692 0.525,1.127 0.184,0.437 0.387,0.926 0.628,1.44 0.202,0.534 0.422,1.11 0.653,1.72 0.166,0.622 0.423,1.257 0.545,1.93 0.064,0.335 0.175,0.671 0.204,1.016 0.031,0.345 0.068,0.692 0.116,1.039 l 0,1.042 C 3.12,10.662 3.026,11 2.995,11.344 c -0.014,0.349 -0.153,0.673 -0.23,1.008 -0.071,0.338 -0.213,0.654 -0.348,0.971 -0.12,0.323 -0.266,0.633 -0.446,0.928 -0.176,0.295 -0.307,0.612 -0.527,0.877 -0.197,0.276 -0.403,0.541 -0.585,0.819 -0.215,0.256 -0.427,0.506 -0.632,0.75 -0.399,0.502 -0.872,0.906 -1.252,1.333 -0.406,0.405 -0.81,0.748 -1.148,1.081 -0.341,0.33 -0.664,0.59 -0.919,0.821 -0.515,0.456 -0.804,0.736 -0.804,0.736 0,0 0.373,-0.134 1.016,-0.4 0.317,-0.142 0.722,-0.285 1.141,-0.529 0.425,-0.235 0.927,-0.472 1.426,-0.812 0.49,-0.353 1.072,-0.675 1.581,-1.165 C 1.533,17.527 1.807,17.288 2.085,17.043 2.345,16.771 2.59,16.475 2.85,16.182 3.124,15.9 3.324,15.542 3.563,15.209 L 3.907,14.693 4.18,14.122 C 4.36,13.738 4.559,13.355 4.656,12.931 4.764,12.512 4.932,12.104 4.963,11.667 5.003,11.236 5.099,10.805 5.084,10.375 5.076,9.947 5.062,9.519 5.033,9.1 4.909,8.27 4.739,7.467 4.473,6.735 4.275,5.975 3.883,5.335 3.604,4.693 3.271,4.081 2.916,3.527 2.591,3.021 2.237,2.527 1.896,2.091 1.597,1.709 1.303,1.322 0.996,1.037 0.766,0.778 0.288,0.276 0,0 0,0"
             id="path12632"
             style="fill:#037b78;fill-opacity:1;fill-rule:nonzero;stroke:none" />
        </g>
        <g
           transform="translate(827.7471,3127.9648)"
           id="g12634">
          <path
             d="m 0,0 c 0,0 -0.284,0.115 -0.771,0.335 -0.492,0.205 -1.162,0.563 -1.956,1.061 -0.776,0.508 -1.645,1.172 -2.456,2.039 -0.39,0.446 -0.806,0.903 -1.129,1.454 -0.183,0.257 -0.334,0.541 -0.469,0.836 -0.139,0.293 -0.3,0.575 -0.39,0.893 -0.225,0.616 -0.336,1.267 -0.419,1.907 -0.012,0.323 -0.014,0.644 -0.011,0.959 0.016,0.315 0.077,0.621 0.114,0.922 0.028,0.305 0.124,0.588 0.205,0.866 0.082,0.279 0.159,0.551 0.28,0.797 0.109,0.249 0.216,0.492 0.319,0.726 0.13,0.219 0.256,0.43 0.376,0.632 0.226,0.413 0.501,0.743 0.734,1.039 0.221,0.304 0.448,0.541 0.64,0.73 0.378,0.384 0.601,0.59 0.601,0.59 0,0 -0.141,-0.27 -0.386,-0.745 -0.132,-0.228 -0.276,-0.513 -0.425,-0.846 -0.152,-0.33 -0.336,-0.693 -0.48,-1.109 -0.173,-0.406 -0.31,-0.857 -0.439,-1.332 -0.081,-0.234 -0.116,-0.483 -0.155,-0.736 -0.031,-0.253 -0.113,-0.503 -0.109,-0.767 -0.01,-0.262 -0.045,-0.526 -0.036,-0.793 0.024,-0.267 0.042,-0.534 0.05,-0.806 0.087,-0.535 0.191,-1.074 0.395,-1.591 0.063,-0.27 0.201,-0.515 0.313,-0.769 0.108,-0.256 0.23,-0.505 0.388,-0.735 0.274,-0.483 0.592,-0.935 0.921,-1.363 0.337,-0.42 0.69,-0.814 1.023,-1.19 0.359,-0.358 0.699,-0.695 1.012,-1.007 0.333,-0.29 0.632,-0.569 0.901,-0.82 0.282,-0.24 0.528,-0.448 0.73,-0.62 C -0.225,0.209 0,0 0,0"
             id="path12636"
             style="fill:#037b78;fill-opacity:1;fill-rule:nonzero;stroke:none" />
        </g>
        <g
           transform="translate(839.9111,3072.1123)"
           id="g12638">
          <path
             d="M 0,0 C 0,0 0.626,0.115 1.715,0.241 2.255,0.31 2.937,0.351 3.646,0.524 4,0.599 4.378,0.677 4.776,0.76 5.17,0.845 5.579,0.883 6.008,1.035 6.432,1.16 6.874,1.29 7.331,1.426 c 0.227,0.063 0.456,0.128 0.69,0.192 0.227,0.091 0.457,0.183 0.689,0.276 0.464,0.176 0.939,0.357 1.426,0.542 0.473,0.211 0.941,0.462 1.424,0.693 0.987,0.416 1.88,1.088 2.848,1.632 0.884,0.685 1.843,1.291 2.655,2.087 0.897,0.697 1.623,1.578 2.416,2.366 0.347,0.439 0.7,0.868 1.058,1.287 0.38,0.406 0.628,0.895 0.959,1.319 0.662,0.857 1.115,1.793 1.654,2.641 0.219,0.448 0.432,0.885 0.638,1.307 0.226,0.419 0.432,0.833 0.571,1.249 0.303,0.825 0.657,1.581 0.83,2.288 0.19,0.702 0.448,1.32 0.522,1.845 0.221,1.048 0.392,1.677 0.392,1.677 0,0 0.155,-0.601 0.348,-1.708 0.126,-0.556 0.132,-1.228 0.149,-2.015 0.057,-0.795 -0.046,-1.673 -0.176,-2.643 -0.089,-0.982 -0.41,-1.99 -0.69,-3.089 C 25.32,12.333 24.957,11.178 24.324,10.114 23.778,8.998 23.027,7.958 22.257,6.903 21.407,5.918 20.551,4.892 19.519,4.049 18.545,3.14 17.417,2.423 16.325,1.706 15.757,1.384 15.168,1.104 14.597,0.819 14.307,0.683 14.03,0.526 13.737,0.411 13.438,0.306 13.143,0.202 12.85,0.099 12.26,-0.095 11.695,-0.323 11.118,-0.467 10.536,-0.583 9.966,-0.698 9.411,-0.81 9.135,-0.86 8.862,-0.91 8.595,-0.959 8.322,-0.984 8.053,-1.001 7.788,-1.013 7.263,-1.034 6.755,-1.057 6.268,-1.077 5.302,-1.136 4.379,-0.956 3.607,-0.893 2.816,-0.849 2.194,-0.625 1.661,-0.493 0.602,-0.206 0,0 0,0"
             id="path12640"
             style="fill:#037b78;fill-opacity:1;fill-rule:nonzero;stroke:none" />
        </g>
        <g
           transform="translate(848.9082,3135.6963)"
           id="g12642">
          <path
             d="M 0,0 C 0.644,-7.788 14.153,-13.257 19.453,-11.657 24.752,-10.062 31.325,0.088 30.166,6.425 28.968,13.014 17.223,18.345 11.663,17.396 6.179,16.476 -0.593,7.16 0,0"
             id="path12644"
             style="fill:#fffad5;fill-opacity:1;fill-rule:nonzero;stroke:none" />
        </g>
        <g
           transform="translate(873.3867,3136.1797)"
           id="g12646">
          <path
             d="m 0,0 c -3.405,-3.687 -11.418,0.479 -12.292,3.424 -0.862,2.936 1.217,9.075 4.396,10.701 C -4.715,15.752 2.896,10.591 3.02,8.23 3.154,5.869 1.602,1.736 0,0"
             id="path12648"
             style="fill:#602f91;fill-opacity:1;fill-rule:nonzero;stroke:none" />
        </g>
        <g
           transform="translate(874.3652,3143.5801)"
           id="g12650">
          <path
             d="m 0,0 c -1.166,-2.164 -3.881,-2.982 -6.038,-1.806 -2.169,1.169 -2.981,3.877 -1.812,6.04 1.178,2.163 3.88,2.975 6.049,1.806 C 0.358,4.866 1.159,2.155 0,0"
             id="path12652"
             style="fill:#fffbdf;fill-opacity:1;fill-rule:nonzero;stroke:none" />
        </g>
        <g
           transform="translate(880.2109,3146.5576)"
           id="g12654">
          <path
             d="m 0,0 c -3.047,6.011 -9.191,11.464 -20.52,9.369 -10.248,-1.897 -12.357,-8.69 -13.615,-15.68 0,0 5.819,5.313 16.948,6.772 C -5.762,1.961 0,0 0,0"
             id="path12656"
             style="fill:#037b78;fill-opacity:1;fill-rule:nonzero;stroke:none" />
        </g>
        <g
           transform="translate(825.0244,3135.1133)"
           id="g12658">
          <path
             d="m 0,0 c 0.352,-4.211 7.668,-7.17 10.547,-6.314 2.858,0.868 6.433,6.363 5.809,9.806 C 15.695,7.068 9.342,9.952 6.323,9.434 3.343,8.938 -0.315,3.881 0,0"
             id="path12660"
             style="fill:#fffad5;fill-opacity:1;fill-rule:nonzero;stroke:none" />
        </g>
        <g
           transform="translate(832.9941,3133.7969)"
           id="g12662">
          <path
             d="m 0,0 c -1.837,-1.988 -6.185,0.273 -6.656,1.865 -0.469,1.596 0.65,4.92 2.379,5.8 1.72,0.888 5.848,-1.919 5.92,-3.203 C 1.72,3.19 0.881,0.947 0,0"
             id="path12664"
             style="fill:#602f91;fill-opacity:1;fill-rule:nonzero;stroke:none" />
        </g>
        <g
           transform="translate(833.5264,3137.8145)"
           id="g12666">
          <path
             d="m 0,0 c -0.632,-1.178 -2.099,-1.611 -3.268,-0.976 -1.174,0.636 -1.621,2.095 -0.99,3.279 0.64,1.169 2.104,1.6 3.281,0.972 C 0.201,2.635 0.63,1.172 0,0"
             id="path12668"
             style="fill:#fffbdf;fill-opacity:1;fill-rule:nonzero;stroke:none" />
        </g>
        <g
           transform="translate(841.6855,3140.8643)"
           id="g12670">
          <path
             d="m 0,0 c -1.672,3.26 -5.28,6.25 -10.823,5.225 -5.027,-0.929 -6.642,-4.999 -7.323,-8.793 0,0 1.919,2.341 9.129,4.116 C -3.48,1.912 0,0 0,0"
             id="path12672"
             style="fill:#037b78;fill-opacity:1;fill-rule:nonzero;stroke:none" />
        </g>
        <g
           transform="translate(718.9492,2963.9229)"
           id="g12674">
          <path
             d="m 0,0 c 0,0 4.9,-8.336 10.147,-14.22 3.408,2.444 7.8,11.287 3.777,16.047 C 9.883,6.581 1.702,3.043 0,0"
             id="path12676"
             style="fill:#ebe84d;fill-opacity:1;fill-rule:nonzero;stroke:none" />
        </g>
        <g
           transform="translate(870.2744,2920.8906)"
           id="g12678">
          <path
             d="m 0,0 c 0,0 -8.729,-0.992 -12.367,-1.187 -0.14,3.458 1.141,9.853 6.08,10.42 C -0.502,9.888 1.021,4.795 0,0"
             id="path12680"
             style="fill:#ebe84d;fill-opacity:1;fill-rule:nonzero;stroke:none" />
        </g>
        <g
           transform="translate(731.7412,2946.4004)"
           id="g12682">
          <path
             d="M 0,0 C 0,0 4.728,-5.076 5.988,-6.383 7.446,-4.41 10.172,-1.047 8.205,1.199 6.216,3.436 0.8,1.108 0,0"
             id="path12684"
             style="fill:#ebe84d;fill-opacity:1;fill-rule:nonzero;stroke:none" />
        </g>
        <g
           transform="translate(854.8945,2919.5205)"
           id="g12686">
          <path
             d="m 0,0 -7.191,-0.273 c 0,0 -0.271,5.499 3.358,5.948 C -0.209,6.12 0.084,1.229 0,0"
             id="path12688"
             style="fill:#ebe84d;fill-opacity:1;fill-rule:nonzero;stroke:none" />
        </g>
        <g
           transform="translate(847.0283,3059.4072)"
           id="g12690">
          <path
             d="m 0,0 c 0,0 3.935,-7.434 4.936,-8.063 1.538,-0.941 19.295,-2.814 23.474,-1.996 2.357,1.322 5.379,4.742 5.618,5.758 C 30.814,-3.935 10.981,-3.562 0,0"
             id="path12692"
             style="fill:#fffad5;fill-opacity:1;fill-rule:nonzero;stroke:none" />
        </g>
        <g
           transform="translate(727.5723,3123.5244)"
           id="g12694">
          <path
             d="M 0,0 C -1.172,2.498 3.617,7.411 5.607,7.75 7.571,8.101 10.57,6.276 10.604,4.063 10.635,1.866 5.388,-2.7 3.956,-2.608 2.531,-2.51 0.551,-1.181 0,0"
             id="path12696"
             style="fill:#63c8d4;fill-opacity:1;fill-rule:nonzero;stroke:none" />
        </g>
        <g
           transform="translate(718.2744,3113.3867)"
           id="g12698">
          <path
             d="M 0,0 C -0.925,1.203 1.072,4.444 2.103,4.879 3.123,5.29 4.969,4.661 5.241,3.484 5.526,2.293 3.233,-0.807 2.453,-0.926 1.665,-1.043 0.438,-0.566 0,0"
             id="path12700"
             style="fill:#63c8d4;fill-opacity:1;fill-rule:nonzero;stroke:none" />
        </g>
        <g
           transform="translate(774.3379,3189.3027)"
           id="g12702">
          <path
             d="m 0,0 c -3.397,1.715 -7.123,2.727 -10.522,2.909 -6.563,0.352 -13.494,-1.595 -18.978,-5.212 -6.709,-4.429 -10.273,-11.433 -10.659,-19.401 -0.1,-2.033 0.026,-4.128 0.336,-6.127 0.369,-2.388 0.804,-4.859 1.816,-7.072 0.251,-0.527 1.952,-3.21 1.37,-3.729 0.437,0.384 0.979,0.667 1.341,1.12 1.984,2.451 4.901,4.299 7.365,6.256 7.891,6.229 17.08,10.61 26.267,14.603 1.522,0.662 10.853,3.609 12.91,3.899 0.076,0.743 -0.878,2.308 -1.164,2.951 C 8.229,-5.583 4.391,-2.209 0,0"
             id="path12704"
             style="fill:#63c8d4;fill-opacity:1;fill-rule:nonzero;stroke:none" />
        </g>
        <g
           transform="translate(774.2314,3181.9033)"
           id="g12706">
          <path
             d="M 0,0 C 3.384,-0.834 -4.803,10.774 -18.587,5.183 -27.58,1.521 -31.046,-6.527 -28.589,-7.312 -26.103,-8.089 -18.36,4.608 0,0"
             id="path12708"
             style="fill:#fffad5;fill-opacity:1;fill-rule:nonzero;stroke:none" />
        </g>
        <g
           transform="translate(740.0498,3172.8203)"
           id="g12710">
          <path
             d="M 0,0 C -2.169,-2.342 -2.698,-7.499 0.181,-5.766 4.556,-3.127 2.18,2.338 0,0"
             id="path12712"
             style="fill:#fffad5;fill-opacity:1;fill-rule:nonzero;stroke:none" />
        </g>
        <g
           transform="translate(782.9678,3163.2461)"
           id="g12714">
          <path
             d="M 0,0 C 1.977,3.455 3.435,7.423 3.123,11.468 3.054,12.198 2.928,13.896 2.199,13.592 0.984,13.059 -1.812,12.381 -3.67,11.664 -12.415,8.253 -21.407,4.947 -29.267,-0.187 c -3.671,-2.426 -7.461,-4.566 -10.758,-7.456 -0.529,-0.465 -5.466,-4.513 -5.263,-4.94 2.112,-4.459 9.7,-4.022 13.637,-3.755 7.011,0.465 14.245,2.247 20.425,5.651 1.667,0.9 3.28,1.992 4.733,3.222 2.47,2.08 4.807,4.574 6.443,7.369 C -0.036,-0.057 -0.018,-0.03 0,0"
             id="path12716"
             style="fill:#3ab2bb;fill-opacity:1;fill-rule:nonzero;stroke:none" />
        </g>
        <g
           transform="translate(704.3887,3056.3711)"
           id="g12718">
          <path
             d="m 0,0 c 0,0 0.025,-1.752 0.262,-4.811 0.118,-1.519 0.284,-3.38 0.53,-5.495 0.248,-2.125 0.591,-4.508 1.009,-7.105 0.435,-2.583 0.959,-5.386 1.637,-8.314 0.166,-0.732 0.336,-1.482 0.51,-2.221 0.192,-0.753 0.39,-1.519 0.588,-2.277 0.379,-1.539 0.846,-3.078 1.313,-4.654 0.465,-1.576 0.995,-3.152 1.527,-4.752 0.293,-0.797 0.582,-1.604 0.871,-2.396 l 0.441,-1.207 0.486,-1.197 c 0.327,-0.795 0.644,-1.594 0.976,-2.402 0.342,-0.788 0.71,-1.569 1.075,-2.365 0.684,-1.608 1.506,-3.15 2.294,-4.715 0.373,-0.788 0.821,-1.538 1.235,-2.305 0.436,-0.758 0.863,-1.511 1.288,-2.277 0.468,-0.735 0.929,-1.462 1.39,-2.204 0.463,-0.725 0.904,-1.459 1.422,-2.16 1.004,-1.391 1.936,-2.831 3.037,-4.102 0.531,-0.655 1.058,-1.31 1.581,-1.961 0.544,-0.625 1.112,-1.211 1.656,-1.824 0.56,-0.602 1.097,-1.211 1.667,-1.783 0.579,-0.552 1.161,-1.108 1.726,-1.633 0.589,-0.537 1.125,-1.111 1.726,-1.585 0.601,-0.494 1.183,-0.971 1.765,-1.447 0.587,-0.464 1.14,-0.971 1.739,-1.382 0.597,-0.411 1.191,-0.819 1.766,-1.223 0.581,-0.392 1.151,-0.811 1.716,-1.184 0.596,-0.343 1.165,-0.678 1.731,-1.013 2.232,-1.39 4.443,-2.334 6.352,-3.272 0.983,-0.414 1.932,-0.739 2.785,-1.082 0.859,-0.304 1.645,-0.658 2.376,-0.867 2.938,-0.853 4.616,-1.346 4.616,-1.346 l -0.084,-0.349 c 0,0 -0.442,0.054 -1.257,0.176 -0.824,0.132 -2.047,0.277 -3.587,0.555 -1.529,0.335 -3.372,0.804 -5.48,1.447 -2.045,0.762 -4.446,1.523 -6.841,2.814 -0.611,0.301 -1.244,0.609 -1.887,0.93 -0.611,0.339 -1.237,0.719 -1.875,1.093 -0.634,0.37 -1.269,0.773 -1.922,1.176 -0.65,0.382 -1.254,0.893 -1.89,1.334 -0.64,0.463 -1.284,0.944 -1.937,1.424 -0.664,0.461 -1.252,1.027 -1.895,1.546 -0.626,0.537 -1.267,1.081 -1.889,1.645 -0.616,0.579 -1.197,1.2 -1.801,1.806 -0.609,0.624 -1.227,1.226 -1.812,1.873 -0.577,0.659 -1.141,1.321 -1.718,1.992 -1.204,1.31 -2.228,2.761 -3.286,4.22 -0.574,0.708 -1.026,1.485 -1.534,2.235 -0.488,0.765 -0.984,1.531 -1.469,2.296 -0.454,0.77 -0.913,1.562 -1.366,2.342 -0.454,0.797 -0.931,1.567 -1.336,2.385 -0.802,1.63 -1.632,3.252 -2.322,4.913 -0.366,0.83 -0.731,1.652 -1.076,2.479 -0.33,0.833 -0.647,1.668 -0.97,2.487 -1.323,3.309 -2.263,6.691 -3.152,9.924 -0.867,3.254 -1.516,6.452 -2.018,9.471 -0.277,1.513 -0.482,2.997 -0.675,4.43 -0.157,1.424 -0.306,2.821 -0.421,4.155 -0.251,2.651 -0.375,5.096 -0.398,7.271 -0.074,2.163 -0.007,4.055 0.052,5.612 0.042,1.547 0.183,2.776 0.251,3.6 C -0.415,-0.449 -0.369,0 -0.369,0 L 0,0 z"
             id="path12720"
             style="fill:#63c8d4;fill-opacity:1;fill-rule:nonzero;stroke:none" />
        </g>
        <g
           transform="translate(758.251,3027.2441)"
           id="g12722">
          <path
             d="m 0,0 c 0,0 7.553,5.945 13.892,3.146 6.354,-2.768 17.306,-12.167 14.273,-21.449 7.98,-6.066 7.861,-10.215 1.696,-17.35 -4.473,-5.175 -31.273,-15.855 -54.234,-5.374 -19.466,8.892 -19.544,23.357 -9.436,24.343 C -23.704,-15.709 0.962,-13.537 0,0"
             id="path12724"
             style="fill:#ee3d57;fill-opacity:1;fill-rule:nonzero;stroke:none" />
        </g>
        <g
           transform="translate(738.9668,2994.6025)"
           id="g12726">
          <path
             d="m 0,0 c 0,0 0.837,-0.034 2.302,-0.096 0.726,-0.02 1.609,-0.045 2.621,-0.074 1.005,-0.011 2.139,-0.023 3.375,-0.038 2.467,0.012 5.324,0.084 8.35,0.308 0.754,0.066 1.521,0.133 2.297,0.202 0.77,0.103 1.554,0.171 2.334,0.287 1.565,0.221 3.144,0.477 4.696,0.832 1.56,0.321 3.085,0.756 4.57,1.221 1.47,0.505 2.912,1.021 4.245,1.657 0.336,0.154 0.669,0.307 0.999,0.46 0.32,0.171 0.637,0.34 0.95,0.508 0.315,0.168 0.625,0.334 0.933,0.499 0.296,0.183 0.588,0.364 0.876,0.544 0.29,0.177 0.577,0.354 0.859,0.528 0.27,0.192 0.535,0.381 0.796,0.567 0.539,0.357 1.045,0.723 1.497,1.116 0.951,0.74 1.742,1.513 2.482,2.183 0.688,0.727 1.288,1.359 1.782,1.88 0.912,1.116 1.485,1.755 1.485,1.755 0,0 -0.282,-0.785 -0.866,-2.159 C 46.249,11.521 45.837,10.709 45.292,9.817 44.709,8.955 44.067,7.946 43.188,6.99 42.778,6.481 42.312,5.991 41.806,5.503 41.314,4.995 40.774,4.505 40.187,4.041 39.616,3.551 39.001,3.085 38.344,2.65 37.706,2.181 37.015,1.77 36.3,1.369 34.884,0.54 33.336,-0.152 31.734,-0.762 c -0.803,-0.293 -1.623,-0.564 -2.451,-0.813 -0.836,-0.209 -1.668,-0.47 -2.515,-0.634 -1.691,-0.363 -3.396,-0.628 -5.079,-0.778 -1.682,-0.164 -3.34,-0.219 -4.939,-0.198 -1.6,0.019 -3.14,0.115 -4.59,0.266 -1.452,0.144 -2.812,0.366 -4.059,0.597 -2.497,0.456 -4.53,1.038 -5.93,1.503 C 0.77,-0.354 0,0 0,0"
             id="path12728"
             style="fill:#c42d4b;fill-opacity:1;fill-rule:nonzero;stroke:none" />
        </g>
        <g
           transform="translate(819.3184,3176.5068)"
           id="g12730">
          <path
             d="m 0,0 c -0.596,0.231 -0.902,0.477 -0.56,0.761 2.418,1.951 6.181,2.111 9.088,1.757 3.436,-0.409 6.919,-0.279 10.339,-0.93 4.15,-0.788 8.176,-1.244 12.371,-1.881 2.885,-0.454 5.843,-1.066 8.83,-1.775 2.985,-0.743 6.002,-1.497 8.997,-2.38 l 2.238,-0.674 c 0.749,-0.225 1.483,-0.465 2.227,-0.701 1.476,-0.453 2.946,-0.979 4.39,-1.497 2.895,-1.016 5.702,-2.148 8.387,-3.301 2.678,-1.174 5.249,-2.374 7.62,-3.622 1.206,-0.591 2.323,-1.28 3.429,-1.873 1.117,-0.607 2.156,-1.258 3.154,-1.863 2.018,-1.196 3.78,-2.438 5.369,-3.485 1.543,-1.12 2.881,-2.113 3.957,-2.935 2.128,-1.746 3.341,-2.721 3.341,-2.721 l -0.226,-0.312 c 0,0 -1.257,0.907 -3.482,2.484 -1.129,0.726 -2.519,1.633 -4.1,2.662 -1.63,0.936 -3.431,2.064 -5.493,3.118 -1.022,0.549 -2.076,1.128 -3.209,1.653 -1.128,0.534 -2.256,1.135 -3.48,1.653 -1.219,0.526 -2.432,1.101 -3.725,1.627 -1.285,0.517 -2.594,1.074 -3.941,1.576 -2.69,1.013 -5.497,1.984 -8.383,2.86 -1.453,0.438 -2.895,0.891 -4.376,1.277 -0.731,0.193 -1.469,0.391 -2.212,0.597 l -2.231,0.533 c -2.975,0.719 -5.979,1.333 -8.933,1.844 -2.975,0.502 -5.908,0.959 -8.734,1.37 -2.838,0.453 -5.573,0.808 -8.184,1.203 -1.285,0.184 -2.561,0.363 -3.783,0.507 -1.232,0.16 -2.423,0.324 -3.568,0.449 -2.282,0.279 -4.379,0.527 -6.239,0.72 -1.86,0.198 -3.496,0.37 -4.839,0.507 C 3.995,-0.788 1.303,-0.479 0,0"
             id="path12732"
             style="fill:#63c8d4;fill-opacity:1;fill-rule:nonzero;stroke:none" />
        </g>
        <g
           transform="translate(942.9463,3122.6416)"
           id="g12734">
          <path
             d="m 0,0 c 1.074,1.904 1.753,4.006 1.955,5.972 0.37,3.755 -0.576,7.799 -2.515,11.032 -2.372,3.98 -6.298,6.208 -10.867,6.631 -1.16,0.113 -2.366,0.091 -3.536,-0.031 -1.382,-0.152 -2.808,-0.339 -4.111,-0.854 -0.303,-0.133 -1.898,-1.051 -2.176,-0.696 0.203,-0.25 0.357,-0.583 0.604,-0.804 1.37,-1.203 2.351,-2.917 3.408,-4.398 3.376,-4.681 5.653,-10.085 7.704,-15.474 0.354,-0.884 1.803,-6.322 1.922,-7.518 0.419,-0.06 1.341,0.45 1.716,0.603 C -3.424,-4.586 -1.39,-2.476 0,0"
             id="path12736"
             style="fill:#63c8d4;fill-opacity:1;fill-rule:nonzero;stroke:none" />
        </g>
        <g
           transform="translate(938.7002,3122.8809)"
           id="g12738">
          <path
             d="M 0,0 C -0.574,-1.911 6.318,2.498 3.451,10.558 1.593,15.82 -2.961,18.018 -3.462,16.64 -3.979,15.218 3.12,10.439 0,0"
             id="path12740"
             style="fill:#fffad5;fill-opacity:1;fill-rule:nonzero;stroke:none" />
        </g>
        <g
           transform="translate(934.3662,3142.7637)"
           id="g12742">
          <path
             d="M 0,0 C -1.291,1.312 -4.229,1.745 -3.312,0.047 -1.915,-2.531 1.289,-1.302 0,0"
             id="path12744"
             style="fill:#fffad5;fill-opacity:1;fill-rule:nonzero;stroke:none" />
        </g>
        <g
           transform="translate(927.7529,3118.3535)"
           id="g12746">
          <path
             d="m 0,0 c 1.928,-1.219 4.169,-2.175 6.499,-2.096 0.423,0.024 1.404,0.059 1.249,0.481 -0.263,0.708 -0.596,2.345 -0.956,3.42 -1.727,5.114 -3.394,10.374 -6.15,15.016 -1.295,2.171 -2.428,4.407 -3.999,6.387 -0.251,0.312 -2.456,3.251 -2.704,3.146 -2.618,-1.101 -2.555,-5.465 -2.513,-7.739 0.088,-4.034 0.926,-8.237 2.717,-11.89 0.479,-0.964 1.058,-1.938 1.729,-2.799 1.134,-1.474 2.496,-2.883 4.075,-3.893 0,0 0.023,-0.013 0.053,-0.033"
             id="path12748"
             style="fill:#3ab2bb;fill-opacity:1;fill-rule:nonzero;stroke:none" />
        </g>
        <g
           transform="translate(322.8379,3090.792)"
           id="g12750">
          <path
             d="m 0,0 c 0.025,-0.13 0.068,-0.252 0.08,-0.385 0.301,-2.768 -1.71,-5.263 -4.486,-5.564 -2.73,-0.289 -5.181,1.66 -5.537,4.368 -12.507,-2.019 -24.432,-4.052 -35.803,-6.094 0.1,-0.32 0.175,-0.654 0.213,-1.005 0.3,-2.768 -1.713,-5.262 -4.489,-5.56 -2.773,-0.297 -5.264,1.715 -5.561,4.486 -0.009,0.096 0.002,0.187 -0.002,0.282 -12.806,-2.373 -24.871,-4.76 -36.248,-7.148 0.017,-0.08 0.05,-0.149 0.062,-0.233 0.419,-2.756 -1.479,-5.339 -4.236,-5.757 -2.641,-0.405 -5.092,1.328 -5.671,3.892 -13.235,-2.876 -25.48,-5.752 -36.808,-8.604 0.49,-2.631 -1.157,-5.213 -3.797,-5.835 -2.565,-0.605 -5.108,0.88 -5.924,3.333 -11.676,-3.073 -22.31,-6.113 -31.982,-9.099 0.071,-0.197 0.156,-0.389 0.206,-0.598 0.637,-2.714 -1.051,-5.434 -3.767,-6.078 -2.67,-0.628 -5.329,0.998 -6.029,3.63 -12.223,-3.991 -22.761,-7.872 -31.838,-11.589 0.055,-0.16 0.124,-0.308 0.164,-0.476 0.641,-2.719 -1.047,-5.438 -3.765,-6.078 -2.302,-0.54 -4.593,0.598 -5.631,2.613 -8.764,-3.903 -15.907,-7.595 -21.726,-10.992 0.007,-0.022 0.015,-0.037 0.019,-0.056 0.641,-2.716 -1.048,-5.438 -3.763,-6.079 -1.596,-0.373 -3.18,0.068 -4.357,1.037 -8.441,-5.764 -12.798,-10.387 -15.018,-13.422 2.165,-8.162 4.135,-16.373 6.061,-24.59 4.158,4.383 9.38,8.618 15.504,12.708 -0.379,0.522 -0.665,1.128 -0.823,1.798 -0.636,2.715 1.048,5.435 3.766,6.078 2.293,0.538 4.569,-0.593 5.616,-2.582 6.541,3.758 13.842,7.387 21.767,10.884 -0.013,0.046 -0.034,0.085 -0.048,0.134 -0.638,2.719 1.05,5.435 3.765,6.081 2.19,0.511 4.361,-0.503 5.465,-2.334 9.969,4.045 20.75,7.905 32.135,11.581 -0.171,2.423 1.423,4.685 3.87,5.264 2.193,0.51 4.366,-0.503 5.468,-2.335 10.356,3.169 21.137,6.192 32.189,9.067 -0.412,2.586 1.217,5.093 3.809,5.71 2.529,0.59 5.035,-0.846 5.895,-3.233 11.421,2.855 23.075,5.555 34.804,8.115 -0.157,2.578 1.652,4.904 4.258,5.301 2.404,0.366 4.665,-1.028 5.488,-3.214 11.787,2.478 23.602,4.813 35.285,6.997 0.265,2.291 2.079,4.177 4.47,4.435 2.126,0.229 4.074,-0.902 5.009,-2.684 12.305,2.235 24.408,4.304 36.115,6.212 0.121,2.437 1.984,4.497 4.49,4.767 2.323,0.248 4.431,-1.13 5.232,-3.21 13.433,2.128 26.246,4.029 38.124,5.708 0.528,1.957 2.196,3.489 4.334,3.725 2.023,0.213 3.882,-0.803 4.866,-2.44 11.954,1.64 22.781,3.042 32.124,4.2 0.259,2.3 2.079,4.201 4.478,4.46 2.346,0.251 4.475,-1.158 5.259,-3.276 16.799,2.007 26.781,2.997 26.781,2.997 L 26.546,4.01 C 17.431,2.685 8.581,1.349 0,0"
             id="path12752"
             style="fill:#ebe84d;fill-opacity:1;fill-rule:nonzero;stroke:none" />
        </g>
        <g
           transform="translate(685.2021,3069.0908)"
           id="g12754">
          <path
             d="m 0,0 c 0,2.788 2.264,5.054 5.054,5.054 0.132,0 0.254,-0.031 0.382,-0.038 0.441,3.131 0.849,6.28 1.216,9.454 0.434,3.754 0.817,7.246 1.164,10.533 -4.306,3.248 -8.737,6.322 -13.341,9.151 l -8.556,-9.315 c 0,0 -0.345,-4.227 -1.305,-11.521 2.653,-0.155 4.761,-2.334 4.761,-5.022 0,-2.792 -2.264,-5.054 -5.054,-5.054 -0.393,0 -0.771,0.056 -1.14,0.141 -1.11,-7.142 -2.63,-15.744 -4.668,-25.322 2.594,-0.218 4.643,-2.366 4.643,-5.016 0,-2.787 -2.266,-5.054 -5.057,-5.054 -0.621,0 -1.211,0.13 -1.764,0.339 -1.603,-6.824 -3.458,-14.018 -5.598,-21.426 2.344,-0.438 4.12,-2.487 4.12,-4.958 0,-2.793 -2.261,-5.054 -5.049,-5.054 -0.701,0 -1.368,0.144 -1.975,0.404 -2.039,-6.455 -4.295,-13.021 -6.793,-19.609 2.004,-0.67 3.452,-2.541 3.452,-4.768 0,-2.793 -2.263,-5.055 -5.054,-5.055 -0.751,0 -1.457,0.175 -2.099,0.469 -1.668,-4.029 -3.427,-8.055 -5.288,-12.046 -1.136,-2.437 -2.241,-4.776 -3.315,-7.034 0.765,-0.887 1.245,-2.025 1.245,-3.291 0,-2.787 -2.266,-5.054 -5.057,-5.054 -0.072,0 -0.14,0.019 -0.213,0.024 -4.65,-9.472 -8.68,-17.127 -12.142,-23.32 0.514,-0.792 0.823,-1.732 0.823,-2.75 0,-2.791 -2.264,-5.052 -5.053,-5.052 -0.096,0 -0.184,0.021 -0.277,0.027 -10.024,-16.632 -13.85,-18.17 -13.85,-18.17 l 22.639,-9.331 c 0,0 3.446,5.068 8.823,14.293 -1.012,0.925 -1.659,2.243 -1.659,3.72 0,2.793 2.268,5.054 5.053,5.054 0.51,0 0.993,-0.099 1.456,-0.24 3.725,6.736 7.977,14.83 12.45,24.092 -1.419,0.894 -2.371,2.463 -2.371,4.266 0,2.791 2.264,5.056 5.055,5.056 0.552,0 1.076,-0.109 1.577,-0.277 3.202,6.972 6.463,14.491 9.681,22.492 -1.089,0.926 -1.798,2.289 -1.798,3.831 0,2.792 2.264,5.054 5.054,5.054 0.074,0 0.143,-0.015 0.218,-0.02 2.334,6.133 4.623,12.516 6.826,19.119 -2.183,0.557 -3.803,2.518 -3.803,4.879 0,2.783 2.265,5.053 5.054,5.053 0.647,0 1.266,-0.137 1.836,-0.357 2.203,7.091 4.29,14.41 6.217,21.931 -1.623,0.847 -2.741,2.518 -2.741,4.468 0,2.026 1.2,4.206 2.916,5.009 0.655,0.308 1.371,0.933 2.138,0.933 l 0.012,0 c 1.913,8 3.616,16.219 5.061,24.842 C 1.669,-3.944 0,-2.396 0,0"
             id="path12756"
             style="fill:#ebe84d;fill-opacity:1;fill-rule:nonzero;stroke:none" />
        </g>
        <g
           transform="translate(414.1484,3109.0723)"
           id="g12758">
          <path
             d="m 0,0 c 0.027,-0.264 0.017,-0.515 0.008,-0.77 3.331,0.401 6.653,0.774 9.961,1.116 L -0.565,1.824 C -0.273,1.271 -0.069,0.658 0,0"
             id="path12760"
             style="fill:#ebe84d;fill-opacity:1;fill-rule:nonzero;stroke:none" />
        </g>
        <g
           transform="translate(655.3965,3115.873)"
           id="g12762">
          <path
             d="M 0,0 C 0,0 -4.296,1.269 -12.295,3.162 -13.045,1.312 -14.856,0 -16.977,0 c -2.79,0 -5.053,2.263 -5.053,5.054 0,0.099 0.025,0.195 0.029,0.294 -6.014,1.287 -13.176,2.708 -21.364,4.136 -0.725,-1.908 -2.555,-3.264 -4.71,-3.264 -2.733,0 -4.947,2.175 -5.037,4.883 -6.554,1.039 -13.635,2.056 -21.204,3.011 -0.579,-2.155 -2.526,-3.747 -4.863,-3.747 -2.741,0 -4.969,2.194 -5.04,4.921 -7.313,0.814 -15.014,1.558 -23.083,2.19 -0.007,-2.785 -2.265,-5.039 -5.052,-5.039 -2.788,0 -5.053,2.265 -5.053,5.053 0,0.24 0.038,0.469 0.068,0.697 -7.756,0.499 -15.813,0.891 -24.14,1.147 -0.134,-2.472 -2.053,-4.539 -4.593,-4.757 -2.782,-0.239 -5.23,1.823 -5.47,4.605 -0.009,0.132 0.008,0.259 0.008,0.392 -7.616,0.126 -15.496,0.176 -23.587,0.113 0.25,-0.529 0.427,-1.1 0.478,-1.716 0.238,-2.781 -1.827,-5.23 -4.604,-5.469 -2.78,-0.237 -5.228,1.828 -5.468,4.603 -0.074,0.88 0.102,1.715 0.434,2.469 -7.814,-0.144 -15.808,-0.392 -23.942,-0.777 0.06,-0.236 0.125,-0.473 0.15,-0.72 0.297,-2.772 -1.712,-5.266 -4.487,-5.564 -2.776,-0.298 -5.265,1.714 -5.561,4.486 -0.046,0.431 -0.022,0.853 0.038,1.261 -8.316,-0.506 -16.763,-1.165 -25.294,-1.995 0.015,-0.091 0.046,-0.171 0.055,-0.264 0.299,-2.772 -1.712,-5.263 -4.486,-5.564 -2.774,-0.296 -5.263,1.714 -5.562,4.487 -0.012,0.098 0.001,0.19 -0.004,0.285 -9.822,-1.116 -19.734,-2.476 -29.683,-4.12 0.161,-0.412 0.29,-0.846 0.341,-1.307 0.299,-2.772 -1.712,-5.263 -4.488,-5.563 -2.773,-0.298 -5.262,1.713 -5.56,4.482 -0.027,0.235 -0.014,0.464 -0.004,0.693 -6.986,-1.288 -13.981,-2.719 -20.957,-4.312 -1.433,-6.119 -1.497,-9.41 -0.656,-13.119 1.045,-4.585 2.853,-8.291 6.298,-11.76 0.237,0.061 0.476,0.118 0.714,0.179 6.341,1.592 12.687,3.047 19.027,4.372 -0.132,0.365 -0.233,0.743 -0.276,1.142 -0.3,2.777 1.71,5.264 4.487,5.568 2.776,0.298 5.263,-1.714 5.561,-4.489 0.011,-0.096 0,-0.184 0.003,-0.284 9.207,1.743 18.38,3.22 27.47,4.469 -0.093,0.307 -0.163,0.624 -0.199,0.955 -0.168,1.55 0.401,2.994 1.404,4.033 0.794,0.827 1.855,1.402 3.082,1.536 2.113,0.224 4.056,-0.896 4.997,-2.663 l 10.534,-1.478 c 4.661,0.488 9.29,0.915 13.883,1.295 -0.171,0.423 -0.305,0.864 -0.356,1.338 -0.3,2.767 1.712,5.262 4.487,5.563 2.773,0.296 5.264,-1.714 5.561,-4.485 0.063,-0.584 0.003,-1.148 -0.124,-1.688 7.977,0.552 15.821,0.959 23.491,1.249 0.75,1.558 2.264,2.7 4.108,2.86 2.041,0.176 3.894,-0.896 4.836,-2.575 8.157,0.217 16.097,0.308 23.771,0.305 0.316,2.285 2.172,4.136 4.568,4.341 2.714,0.233 5.096,-1.732 5.432,-4.409 7.757,-0.11 15.275,-0.359 22.534,-0.712 0.759,1.828 2.559,3.114 4.663,3.114 2.298,0 4.218,-1.546 4.828,-3.648 8.239,-0.525 16.105,-1.181 23.56,-1.934 0.653,2.029 2.537,3.507 4.785,3.507 2.627,0 4.762,-2.012 5.009,-4.578 7.627,-0.895 14.76,-1.885 21.358,-2.912 0.7,1.945 2.548,3.346 4.734,3.346 2.759,0 4.997,-2.219 5.046,-4.969 8.226,-1.444 15.405,-2.921 21.419,-4.308 0.776,1.794 2.557,3.055 4.638,3.055 2.788,0 5.054,-2.262 5.054,-5.051 0,-0.136 -0.03,-0.263 -0.04,-0.399 7.581,-2.034 11.751,-3.607 11.963,-4.137 C 1.039,-30.062 0,0 0,0"
             id="path12764"
             style="fill:#ebe84d;fill-opacity:1;fill-rule:nonzero;stroke:none" />
        </g>
        <g
           transform="translate(440.9707,3107.0605)"
           id="g12766">
          <path
             d="m 0,0 -16.854,2.357 c -3.307,-0.341 -6.629,-0.714 -9.96,-1.115 0.008,0.255 0.019,0.506 -0.008,0.77 -0.069,0.658 -0.273,1.271 -0.566,1.824 -0.94,1.767 -2.883,2.887 -4.996,2.662 -1.227,-0.134 -2.288,-0.709 -3.082,-1.535 -1.003,-1.039 -1.572,-2.484 -1.405,-4.033 0.037,-0.331 0.106,-0.649 0.2,-0.955 -9.091,-1.249 -18.264,-2.727 -27.47,-4.469 -0.004,0.099 0.008,0.187 -0.004,0.283 -0.297,2.775 -2.785,4.787 -5.56,4.489 -2.777,-0.303 -4.787,-2.791 -4.487,-5.567 0.043,-0.399 0.144,-0.777 0.275,-1.143 -6.339,-1.325 -12.685,-2.78 -19.026,-4.372 l 0.333,-1.292 1.024,-0.163 93.315,-14.696 c 0,0 3.454,0 4.147,11.749 C 6.65,-2.076 0,0 0,0"
             id="path12768"
             style="fill:#d3cb37;fill-opacity:1;fill-rule:nonzero;stroke:none" />
        </g>
      </g>
    </g>
  </g>
</svg>
