<?xml version="1.0" encoding="UTF-8" standalone="no"?>
<!-- Created with Inkscape (http://www.inkscape.org/) -->

<svg
   xmlns:dc="http://purl.org/dc/elements/1.1/"
   xmlns:cc="http://creativecommons.org/ns#"
   xmlns:rdf="http://www.w3.org/1999/02/22-rdf-syntax-ns#"
   xmlns:svg="http://www.w3.org/2000/svg"
   xmlns="http://www.w3.org/2000/svg"
   version="1.1"
   width="33.708282"
   height="33.275723"
   id="svg4978">
  <defs
     id="defs4980" />
  <metadata
     id="metadata4983">
    <rdf:RDF>
      <cc:Work
         rdf:about="">
        <dc:format>image/svg+xml</dc:format>
        <dc:type
           rdf:resource="http://purl.org/dc/dcmitype/StillImage" />
        <dc:title></dc:title>
      </cc:Work>
    </rdf:RDF>
  </metadata>
  <g
     transform="translate(-796.00301,-629.29575)"
     id="layer1">
    <g
       transform="matrix(1.25,0,0,-1.25,796.00687,648.61094)"
       id="g1220">
      <path
         d="M 0,0 C 0.23,-8.631 15.704,-13.148 20.17,-10.334 24.633,-7.52 28.571,3.604 26.301,9.334 24.029,15.064 8.304,17.031 5.442,14.114 2.58,11.199 -0.107,4.076 0,0"
         id="path1222"
         style="fill:#ffffff;fill-opacity:1;fill-rule:nonzero;stroke:none" />
    </g>
    <g
       transform="matrix(1.25,0,0,-1.25,806.06057,647.27681)"
       id="g1224">
      <path
         d="M 0,0 1.053,0 C -0.231,0.629 -1.005,1.606 -1.119,3.085 -0.693,2.977 -0.277,2.872 0.175,2.759 0.087,2.866 0.021,2.946 -0.042,3.028 c -0.441,0.559 -0.829,1.147 -0.985,1.854 -0.159,0.711 -0.001,1.361 0.406,1.984 1.676,-1.898 3.75,-2.998 6.31,-3.172 0,0.258 -0.003,0.508 0.003,0.76 0.045,1.706 1.413,3.059 3.121,3.086 0.647,0.01 1.23,-0.201 1.735,-0.598 0.446,-0.349 0.903,-0.412 1.42,-0.177 0.331,0.15 0.671,0.278 1.031,0.426 C 12.911,6.86 12.771,6.587 12.584,6.339 12.395,6.09 12.193,5.854 11.98,5.589 12.457,5.712 12.914,5.829 13.394,5.952 13.159,5.564 12.877,5.248 12.569,4.957 12.431,4.826 12.294,4.696 12.139,4.581 12.021,4.495 11.986,4.391 11.981,4.249 11.931,3.208 11.769,2.188 11.455,1.19 10.703,-1.21 9.166,-2.922 6.902,-3.997 5.871,-4.485 4.793,-4.802 3.649,-4.872 c -1.253,-0.079 -2.468,0.121 -3.63,0.595 -0.459,0.186 -0.9,0.423 -1.344,0.638 -0.031,0.014 -0.057,0.035 -0.12,0.074 0.274,0.033 0.51,0.058 0.75,0.091 0.814,0.112 1.634,0.217 2.384,0.584 0.339,0.166 0.64,0.403 0.96,0.608 0.034,0.021 0.067,0.039 0.092,0.077 C 1.417,-1.968 0.48,-1.285 0,0"
         id="path1226"
         style="fill:#ee3d57;fill-opacity:1;fill-rule:evenodd;stroke:none" />
    </g>
  </g>
</svg>
