<?xml version="1.0" encoding="UTF-8" standalone="no"?>
<!-- Created with Inkscape (http://www.inkscape.org/) -->

<svg
   xmlns:dc="http://purl.org/dc/elements/1.1/"
   xmlns:cc="http://creativecommons.org/ns#"
   xmlns:rdf="http://www.w3.org/1999/02/22-rdf-syntax-ns#"
   xmlns:svg="http://www.w3.org/2000/svg"
   xmlns="http://www.w3.org/2000/svg"
   version="1.1"
   width="126.75082"
   height="58.763237"
   id="svg18276">
  <defs
     id="defs18278" />
  <metadata
     id="metadata18281">
    <rdf:RDF>
      <cc:Work
         rdf:about="">
        <dc:format>image/svg+xml</dc:format>
        <dc:type
           rdf:resource="http://purl.org/dc/dcmitype/StillImage" />
        <dc:title></dc:title>
      </cc:Work>
    </rdf:RDF>
  </metadata>
  <g
     transform="translate(-323.38925,-260.36419)"
     id="layer1">
    <g
       transform="matrix(1.25,0,0,-1.25,330.28841,301.51459)"
       id="g42">
      <path
         d="m 0,0 c 6.752,-2.66 23.962,-16.991 34.71,-9.018 10.747,7.973 22.242,7.614 32.17,3.091 9.925,-4.523 28.737,-15.855 28.737,0 0,15.856 2.815,15.597 -9.928,21.918 C 72.948,22.312 71.557,32.988 55.159,32.92 50.105,32.897 44.369,8.9 37.074,10.721 29.782,12.541 20.857,22.469 15.916,24.037 10.972,25.604 -17.242,6.793 0,0"
         id="path44"
         style="fill:#ffffff;fill-opacity:1;fill-rule:nonzero;stroke:none" />
    </g>
  </g>
</svg>
